<?xml version="1.0" encoding="utf-8"?>
<!-- Generator: Adobe Illustrator 26.0.3, SVG Export Plug-In . SVG Version: 6.00 Build 0)  -->
<svg version="1.1" id="Layer_1" xmlns="http://www.w3.org/2000/svg" xmlns:xlink="http://www.w3.org/1999/xlink" x="0px" y="0px"
	 viewBox="0 0 1920 1080" style="enable-background:new 0 0 1920 1080;" xml:space="preserve">
<style type="text/css">
	.st0{fill:#936046;stroke:#EDC7B2;stroke-miterlimit:10;}
	.st1{fill:#603813;}
	.st2{fill:#8C6239;stroke:#000000;stroke-width:1;stroke-miterlimit:10.0003;}
	.st3{stroke:#000000;stroke-miterlimit:10;}
	.st4{fill:none;stroke:#000000;stroke-miterlimit:10;}
	.st5{fill:#C69C81;}
	.st6{fill:url(#SVGID_1_);}
	.st7{fill:#553A34;stroke:#42210B;stroke-miterlimit:10;}
	.st8{fill:#42210B;stroke:#42210B;stroke-miterlimit:10;}
	.st9{fill:#42210B;}
	.st10{fill:#C69C81;stroke:#C69C6D;stroke-miterlimit:10;}
	.st11{fill:#C69C81;stroke:#EDC7B2;stroke-miterlimit:10;}
	.st12{fill:#FFFFFF;stroke:#000000;stroke-miterlimit:10;}
	.st13{fill:#001300;}
</style>
<polygon class="st0" points="1295.9,807 1021.6,844.8 989,709.4 1263.3,671.6 "/>
<g>
	<path class="st1" d="M1184.3,702.3c7.8-54.6-132.2-41.4-99.6,10.8c-6.4,1.4-8-2.6-13.1-5.6c-5.1-63.3,107.1-74.9,120.2-9.7
		C1189.7,701.5,1189.1,703.1,1184.3,702.3z"/>
</g>
<ellipse transform="matrix(0.1707 -0.9853 0.9853 0.1707 -258.9216 1679.3629)" class="st2" cx="868.2" cy="993.5" rx="36.4" ry="80.5"/>
<ellipse transform="matrix(0.1707 -0.9853 0.9853 0.1707 -120.591 1813.6475)" class="st2" cx="1017.2" cy="978.5" rx="36.4" ry="80.5"/>
<path class="st3" d="M868.9,973.9l-52.4-1.4c-13.4-0.3-24.1-11.1-23.8-23.8l6.4-220.9c0.3-12.9,11.7-23,25.1-22.5l52.4,1.4
	c13.4,0.3,24.1,11.1,23.8,23.8L894,951.4C893.7,964.1,882.5,974.3,868.9,973.9z"/>
<path class="st3" d="M993.9,967.2l-51.7,5c-13.4,1.3-25.4-8.1-26.8-20.8l-21.2-200c-1.3-12.7,8.5-24.2,21.9-25.4l51.7-5
	c13.4-1.3,25.4,8.1,26.8,20.8l21.2,200C1017.2,954.5,1007.3,965.9,993.9,967.2z"/>
<rect x="799.3" y="650.3" class="st3" width="194.6" height="91.3"/>
<rect x="799.6" y="580.8" class="st3" width="38" height="69.6"/>
<line class="st4" x1="994.6" y1="643.9" x2="994.6" y2="650.3"/>
<g>
	<path class="st5" d="M762.1,153.8c-4-13.4,4-25.9,18.2-28.3c14.5-2.6,30.2,6.3,35.3,19.6l0,0l9.6,29.8l0,0
		c1.8,7.6-3,14.5-11.3,15.8c-8.6,1.3-17.9-4.3-20.4-12.4c-0.2-0.3-0.2-0.5-0.3-0.8c-0.2-1-1.1-1.6-2.1-1.6
		C777.9,174.7,765.8,165.9,762.1,153.8z"/>
</g>
<linearGradient id="SVGID_1_" gradientUnits="userSpaceOnUse" x1="3729.9214" y1="1646.9788" x2="3760.4287" y2="1670.2936" gradientTransform="matrix(-0.7268 0.2502 -0.3118 -0.9058 4028.2568 720.3007)">
	<stop  offset="0" style="stop-color:#E0A599"/>
	<stop  offset="1" style="stop-color:#E9BEB8"/>
</linearGradient>
<path class="st6" d="M781.9,140.8c8-2.1,17.6,2.1,21.6,9.3l0,0l0.8,1.8c-3.7,0.8-5.3,3.9-3.8,6.9c1.4,2.9,5.6,4.7,9.1,3.7l1.9,3.9
	l0,0c1.8,4.2-0.5,8.4-4.9,9.5c-4.8,1.1-10.4-1.6-12.6-6c0-0.2-0.2-0.3-0.2-0.5c-0.2-0.5-0.8-0.8-1.3-0.8c-7.3,0.2-15-4.2-18.2-10.9
	C770.9,150.3,774.2,142.8,781.9,140.8z"/>
<g>
	<path class="st5" d="M926.6,11.3c67.4,14.5,143.9-30.3,158.4,102.6s-36.4,171.8-122.5,161S780.3,144.8,785.9,89.2
		C791.5,33.9,859-3.3,926.6,11.3z"/>
</g>
<g>
	<path d="M983.6,131.7c6.7-19.3-53-19-42.6,0.8c-2.7,0.3-3.2-1.1-5.1-2.4c1.8-22.9,49.8-23.5,51.1,0.2
		C985.8,131.6,985.5,132.2,983.6,131.7z"/>
</g>
<g>
	<path d="M1059.1,130c3.7-19.6-52.1-14.3-39.6,4.2c-2.6,0.5-3.2-1-5.1-1.9c-1.4-22.7,43.1-27.2,47.7-3.9
		C1061.3,129.6,1061,130.3,1059.1,130z"/>
</g>
<g>
	<path d="M991.2,157.3c-4.5,17.5,43.8,15.6,34.2-1.8c2.2-0.3,2.6,1,4.3,2.1c-0.3,20.6-38.8,22.4-41.2,1.1
		C989.3,157.7,989.6,157,991.2,157.3z"/>
</g>
<g>
	<g>
		<g>
			<path class="st7" d="M954.5,89.7c1.4,3.1,1.1,3.4,0.8,6.4"/>
		</g>
		<g>
			<path class="st7" d="M955.1,90c1.4,3.1,1.1,3.4,0.8,6.4"/>
		</g>
		<g>
			<path class="st7" d="M952.6,90.2c2.1,2.7,1.9,3.2,2.2,6.3"/>
		</g>
		<g>
			<path class="st7" d="M951.9,89.9c1.4,3.1,1.1,3.4,0.8,6.4"/>
		</g>
		<g>
			<path class="st7" d="M951.5,89.9c1.4,3.1,1.1,3.4,0.8,6.4"/>
		</g>
		<g>
			<path class="st7" d="M949.5,90.2c2.2,2.7,2.2,3.2,2.7,6.1"/>
		</g>
		<g>
			<path class="st7" d="M948.1,90.4c2.7,2.6,2.7,2.9,3.7,6"/>
		</g>
		<g>
			<path class="st7" d="M946.7,90.7c3,2.3,3.2,2.7,4.6,5.5"/>
		</g>
	</g>
	<g>
		<g>
			<path class="st7" d="M946.7,90.8c1.3,2.4,1.1,2.7,1,5.3"/>
		</g>
		<g>
			<path class="st7" d="M947.1,91c1.3,2.4,1.1,2.7,1,5.3"/>
		</g>
		<g>
			<path class="st7" d="M945.1,91.3c1.9,2.3,1.9,2.6,2.2,5.2"/>
		</g>
		<g>
			<path class="st7" d="M944.4,91.2c1.3,2.4,1.1,2.7,1,5.3"/>
		</g>
		<g>
			<path class="st7" d="M944,91.2c1.3,2.4,1.1,2.7,1,5.3"/>
		</g>
		<g>
			<path class="st7" d="M942.2,91.5c2.1,2.1,2.1,2.6,2.7,5"/>
		</g>
		<g>
			<path class="st7" d="M940.9,91.8c2.6,1.9,2.6,2.3,3.5,4.7"/>
		</g>
		<g>
			<path class="st7" d="M939.6,92.1c2.9,1.6,2.9,1.9,4.5,4.2"/>
		</g>
	</g>
	<g>
		<g>
			<path class="st7" d="M937.1,92.9c2.7,2.1,2.6,2.4,3.5,5.2"/>
		</g>
		<g>
			<path class="st7" d="M937.7,92.9c2.7,2.1,2.6,2.4,3.5,5.2"/>
		</g>
		<g>
			<path class="st7" d="M935.5,93.9c3.2,1.6,3.4,2.1,4.9,4.5"/>
		</g>
		<g>
			<path class="st7" d="M934.7,93.9c2.7,2.1,2.6,2.4,3.5,5.2"/>
		</g>
		<g>
			<path class="st7" d="M934.2,94.2c2.7,2.1,2.6,2.4,3.5,5.2"/>
		</g>
		<g>
			<path class="st7" d="M932.5,95c3.4,1.4,3.5,1.9,5.3,4.2"/>
		</g>
		<g>
			<path class="st7" d="M931.3,95.7c3.7,1.1,3.8,1.6,6.1,3.7"/>
		</g>
		<g>
			<path class="st7" d="M930.1,96.5c3.8,0.8,4.2,1.1,6.9,2.9"/>
		</g>
	</g>
	<g>
		<g>
			<path class="st7" d="M928.5,97.3c2.9,1.3,3,1.8,4.9,3.9"/>
		</g>
		<g>
			<path class="st7" d="M929.1,97.3c2.9,1.3,3,1.8,4.9,3.9"/>
		</g>
		<g>
			<path class="st7" d="M927.7,98.4c3.2,0.8,3.4,1.3,5.7,3.1"/>
		</g>
		<g>
			<path class="st7" d="M927,98.6c2.9,1.3,3,1.8,4.9,3.9"/>
		</g>
		<g>
			<path class="st7" d="M926.9,98.9c2.9,1.3,3,1.8,4.9,3.9"/>
		</g>
		<g>
			<path class="st7" d="M925.8,99.9c3.2,0.8,3.5,1.1,5.9,2.7"/>
		</g>
		<g>
			<path class="st7" d="M925.1,100.7c3.4,0.5,3.7,0.6,6.2,2.3"/>
		</g>
		<g>
			<path class="st7" d="M924.5,101.5c3.4,0,3.7,0.3,6.5,1.4"/>
		</g>
	</g>
	<g>
		<g>
			<path class="st7" d="M924.3,100.2c3,0.5,3.2,0.8,5.1,2.3"/>
		</g>
		<g>
			<path class="st7" d="M925,100c3,0.5,3.2,0.8,5.1,2.3"/>
		</g>
		<g>
			<path class="st7" d="M923.5,101.3c3.2,0.2,3.5,0.3,5.9,1.4"/>
		</g>
		<g>
			<path class="st7" d="M922.9,101.5c3,0.5,3.2,0.8,5.1,2.3"/>
		</g>
		<g>
			<path class="st7" d="M922.7,101.8c3,0.5,3.2,0.8,5.1,2.3"/>
		</g>
		<g>
			<path class="st7" d="M921.6,102.9c3.4,0,3.7,0.2,6.1,1.1"/>
		</g>
		<g>
			<path class="st7" d="M921,103.7c3.4-0.3,3.7-0.2,6.5,0.6"/>
		</g>
		<g>
			<path class="st7" d="M920.3,104.5c3.4-0.6,3.8-0.5,6.7-0.2"/>
		</g>
	</g>
	<g>
		<g>
			<path class="st7" d="M977.8,90.2c0.6,4,0.2,4.5-1.4,8.1"/>
		</g>
		<g>
			<path class="st7" d="M978.4,90.5c0.6,4,0.2,4.5-1.4,8.1"/>
		</g>
		<g>
			<path class="st7" d="M975.4,90.2c1.6,3.9,1.3,4.3,0.5,8.1"/>
		</g>
		<g>
			<path class="st7" d="M974.6,89.7c0.6,4,0.2,4.5-1.4,8.1"/>
		</g>
		<g>
			<path class="st7" d="M974,89.9c0.6,4,0.2,4.5-1.4,8.1"/>
		</g>
		<g>
			<path class="st7" d="M971.4,89.7c1.8,3.7,1.6,4.3,1.1,8.1"/>
		</g>
		<g>
			<path class="st7" d="M969.7,89.7c2.4,3.5,2.2,4,2.4,7.9"/>
		</g>
		<g>
			<path class="st7" d="M967.7,89.9c3,3.2,3,3.9,3.8,7.6"/>
		</g>
	</g>
	<g>
		<path class="st8" d="M976.4,99.9c-23.6-1.9-30.5-8.5-50.1,6c-0.8-1.3-1.6-2.6-2.9-3.7c23.5-15.1,29.2-10,56-10
			C979.7,93.9,977.2,98.1,976.4,99.9z"/>
	</g>
	<g>
		<g>
			<path class="st7" d="M966.5,88.8c1.9,3.7,1.6,4.2,1.3,8.1"/>
		</g>
		<g>
			<path class="st7" d="M967.3,89.1c1.9,3.7,1.6,4.2,1.3,8.1"/>
		</g>
		<g>
			<path class="st7" d="M964.1,89.4c2.7,3.4,2.7,3.9,3.4,7.7"/>
		</g>
		<g>
			<path class="st7" d="M963.3,89.1c1.9,3.7,1.6,4.2,1.3,8.1"/>
		</g>
		<g>
			<path class="st7" d="M962.6,89.2c1.9,3.7,1.6,4.2,1.3,8.1"/>
		</g>
		<g>
			<path class="st7" d="M960.2,89.7c3,3.2,3,3.9,3.8,7.6"/>
		</g>
		<g>
			<path class="st7" d="M958.5,90c3.5,2.9,3.5,3.5,4.9,7.1"/>
		</g>
		<g>
			<path class="st7" d="M956.7,90.5c4,2.4,4.2,3.1,6.2,6.4"/>
		</g>
	</g>
</g>
<g>
	<g>
		<g>
			<path class="st7" d="M1033.9,87c-0.6,2.9-0.3,3.4,0.8,6"/>
		</g>
		<g>
			<path class="st7" d="M1033.5,87.3c-0.6,2.9-0.3,3.4,0.8,6"/>
		</g>
		<g>
			<path class="st7" d="M1035.9,87c-1.3,2.9-1.1,3.2-0.8,6.1"/>
		</g>
		<g>
			<path class="st7" d="M1036.4,86.7c-0.6,2.9-0.3,3.4,0.8,6"/>
		</g>
		<g>
			<path class="st7" d="M1037,86.7c-0.6,2.9-0.3,3.4,0.8,6"/>
		</g>
		<g>
			<path class="st7" d="M1039,86.7c-1.6,2.9-1.4,3.2-1.3,6.1"/>
		</g>
		<g>
			<path class="st7" d="M1040.2,86.5c-2.1,2.7-1.9,3.1-2.2,6"/>
		</g>
		<g>
			<path class="st7" d="M1041.7,86.7c-2.6,2.4-2.4,2.9-3.4,5.6"/>
		</g>
	</g>
	<g>
		<g>
			<path class="st7" d="M1041.8,86.8c-0.8,2.4-0.5,2.7,0.3,5"/>
		</g>
		<g>
			<path class="st7" d="M1041.4,87.1c-0.8,2.4-0.5,2.7,0.3,5"/>
		</g>
		<g>
			<path class="st7" d="M1043.6,87c-1.4,2.3-1.3,2.6-1.1,5"/>
		</g>
		<g>
			<path class="st7" d="M1044.1,86.7c-0.8,2.4-0.5,2.7,0.3,5"/>
		</g>
		<g>
			<path class="st7" d="M1044.6,86.8c-0.8,2.4-0.5,2.7,0.3,5"/>
		</g>
		<g>
			<path class="st7" d="M1046.3,86.8c-1.6,2.3-1.4,2.6-1.4,5"/>
		</g>
		<g>
			<path class="st7" d="M1047.6,86.8c-1.9,2.1-1.9,2.4-2.4,4.8"/>
		</g>
		<g>
			<path class="st7" d="M1049,87c-2.4,1.9-2.4,2.3-3.4,4.5"/>
		</g>
	</g>
	<g>
		<g>
			<path class="st7" d="M1051.7,87.3c-2.1,2.3-1.9,2.6-2.2,5.2"/>
		</g>
		<g>
			<path class="st7" d="M1051.1,87.5c-2.1,2.3-1.9,2.6-2.2,5.2"/>
		</g>
		<g>
			<path class="st7" d="M1053.5,87.9c-2.7,1.9-2.7,2.4-3.8,4.8"/>
		</g>
		<g>
			<path class="st7" d="M1054.3,87.8c-2.1,2.3-1.9,2.6-2.2,5.2"/>
		</g>
		<g>
			<path class="st7" d="M1054.8,88.1c-2.1,2.3-1.9,2.6-2.2,5.2"/>
		</g>
		<g>
			<path class="st7" d="M1056.7,88.6c-2.9,1.8-3,2.3-4.2,4.7"/>
		</g>
		<g>
			<path class="st7" d="M1058,88.9c-3.4,1.6-3.4,1.9-5.1,4.2"/>
		</g>
		<g>
			<path class="st7" d="M1059.4,89.6c-3.7,1.3-3.8,1.6-6.1,3.7"/>
		</g>
	</g>
	<g>
		<g>
			<path class="st7" d="M1061,90c-2.6,1.6-2.6,2.1-4,4.2"/>
		</g>
		<g>
			<path class="st7" d="M1060.5,90c-2.6,1.6-2.6,2.1-4,4.2"/>
		</g>
		<g>
			<path class="st7" d="M1062.1,91c-2.9,1.3-3,1.6-4.9,3.5"/>
		</g>
		<g>
			<path class="st7" d="M1062.8,91c-2.6,1.6-2.6,2.1-4,4.2"/>
		</g>
		<g>
			<path class="st7" d="M1063.1,91.2c-2.6,1.6-2.6,2.1-4,4.2"/>
		</g>
		<g>
			<path class="st7" d="M1064.4,92c-3,1.1-3.2,1.4-5.1,3.4"/>
		</g>
		<g>
			<path class="st7" d="M1065.1,92.6c-3.2,0.8-3.4,1.1-5.6,2.9"/>
		</g>
		<g>
			<path class="st7" d="M1065.9,93.3c-3.2,0.5-3.5,0.8-6.1,2.3"/>
		</g>
	</g>
	<g>
		<g>
			<path class="st7" d="M1065.8,92.1c-2.9,1-2.9,1.3-4.5,2.7"/>
		</g>
		<g>
			<path class="st7" d="M1065.3,92c-2.9,1-2.9,1.3-4.5,2.7"/>
		</g>
		<g>
			<path class="st7" d="M1066.9,92.9c-3.2,0.6-3.4,0.8-5.4,2.1"/>
		</g>
		<g>
			<path class="st7" d="M1067.5,93.1c-2.9,1-2.9,1.3-4.5,2.7"/>
		</g>
		<g>
			<path class="st7" d="M1067.9,93.4c-2.9,1-2.9,1.3-4.5,2.7"/>
		</g>
		<g>
			<path class="st7" d="M1069,94.2c-3.2,0.5-3.5,0.6-5.7,1.9"/>
		</g>
		<g>
			<path class="st7" d="M1069.9,94.7c-3.4,0.2-3.7,0.5-6.2,1.4"/>
		</g>
		<g>
			<path class="st7" d="M1070.7,95.4c-3.5-0.2-3.8,0.2-6.7,0.8"/>
		</g>
	</g>
	<g>
		<g>
			<path class="st7" d="M1011.2,90.7c0.3,3.7,0.8,4,3.4,7.1"/>
		</g>
		<g>
			<path class="st7" d="M1010.7,91.2c0.3,3.7,0.8,4,3.4,7.1"/>
		</g>
		<g>
			<path class="st7" d="M1013.7,90.4c-0.6,3.7-0.2,4.2,1.3,7.6"/>
		</g>
		<g>
			<path class="st7" d="M1014.4,89.9c0.3,3.7,0.8,4,3.4,7.1"/>
		</g>
		<g>
			<path class="st7" d="M1015,89.9c0.3,3.7,0.8,4,3.4,7.1"/>
		</g>
		<g>
			<path class="st7" d="M1017.4,89.4c-1,3.7-0.5,4.2,0.8,7.6"/>
		</g>
		<g>
			<path class="st7" d="M1019.2,89.2c-1.4,3.5-1.3,4-0.5,7.6"/>
		</g>
		<g>
			<path class="st7" d="M1020.9,88.9c-2.2,3.4-2.1,3.9-2.1,7.4"/>
		</g>
	</g>
	<g>
		<path class="st8" d="M1014.9,99.4c22.5-5.2,27.8-12.2,50.3-1.8c0.5-1.3,1-2.6,1.9-3.7c-26.3-10.5-30.8-4.8-57.2-1
			C1010.4,94.4,1013.7,97.8,1014.9,99.4z"/>
	</g>
	<g>
		<g>
			<path class="st7" d="M1022,87.8c-1,3.7-0.6,4.2,0.5,7.6"/>
		</g>
		<g>
			<path class="st7" d="M1021.4,88.1c-1,3.7-0.6,4.2,0.5,7.6"/>
		</g>
		<g>
			<path class="st7" d="M1024.4,87.9c-1.9,3.4-1.8,4-1.4,7.6"/>
		</g>
		<g>
			<path class="st7" d="M1025.2,87.6c-1,3.7-0.6,4.2,0.5,7.6"/>
		</g>
		<g>
			<path class="st7" d="M1025.9,87.6c-1,3.7-0.6,4.2,0.5,7.6"/>
		</g>
		<g>
			<path class="st7" d="M1028.4,87.6c-2.2,3.4-2.1,3.9-2.1,7.4"/>
		</g>
		<g>
			<path class="st7" d="M1030.2,87.8c-2.7,3.2-2.7,3.7-3.2,7.2"/>
		</g>
		<g>
			<path class="st7" d="M1031.9,87.9c-3.4,2.9-3.4,3.4-4.6,6.8"/>
		</g>
	</g>
</g>
<g>
	<path class="st9" d="M961.5,219.3c11.5-5.5,35.8-9.3,48.9-11.4c12.9-2.1,36.4-7.2,49-5.8c-13.1-15.6-29.5-26.9-55.4-23
		C978,182.9,966.8,199.4,961.5,219.3z"/>
</g>
<path class="st9" d="M777.7,114.4c-20.1-18.4-0.5-64.2,32.9-88.2C846.6,0.4,909.8-8.3,929.7,11c20,19.3-4.3,66.2-41.7,89.8
	C854.9,121.8,797.7,132.5,777.7,114.4z"/>
<path class="st9" d="M1071.9,61.9c-7,18.2-58.3,25-96.3,15.6c-40.7-10-79.2-41.5-71.4-59.7c8-18.4,62.4-23,102-11.4
	C1041.5,16.6,1078.9,43.8,1071.9,61.9z"/>
<path class="st10" d="M992,299.5h-65c-8.8,0-16-7.2-16-16.1v-19.8c0-8.9,7.2-16.1,16-16.1h65c8.8,0,16,7.2,16,16.1v19.8
	C1008,292.3,1000.8,299.5,992,299.5z"/>
<g>
	<path class="st11" d="M1129,615.9c-0.8,0.6-3,2.7-3.7,3.5c-6.4-0.6-10.4-0.5-17.4-0.3c-5.4,0.2-15.6-0.5-20.8,3.2
		c-0.2,0.2-1.9,1.6-2.4,2.3c-0.3,0.3-1.4,2.3-2.2,1.6c-10.5-3.7-28.7-12.2-45.3-22.1c-12.6,12.7-26,24.8-39.6,36.9
		c20.1,6.9,42.8,10.5,66.9,11.3c-0.5,1.3-1.1,3.5-0.6,5.2c1,2.7,3.7,6.4,5.4,8.2c1.8,1.9,5.9,3.4,7,3.9c7.8,3.2,13.1,6,20.3,8.9
		c-0.3,2.7,1.1,7.2,2.7,9.3c2.9,3.9,9.4,10.5,15.5,8.2c6.1-2.4,0-10.5-2.1-13.7c-0.2-0.3-1.1-1.4-1.4-1.8c4.5-0.2,8.3-1,12.3-2.6
		c1.3,1.4,4.8,4.3,6.1,5.2c4.3,2.7,15.8,10.5,20.9,6.4c5.1-4.2-6.5-11.9-10.5-14.8c-1.1-0.8-5.4-3.4-7.3-4.2
		c0.8-0.8,1.8-2.9,2.2-3.5c1.1-1.6,1.9-2.1,3.2-3.4c1.6,1.8,6.4,5.5,8,6.4c4.5,2.9,17.1,11.9,22.4,7.4c5.1-4.5-8-12.9-12.5-16.1
		c-1.8-1.3-7.8-4.7-10.7-5.6c1-1.4,2.2-2.6,3.4-3.9c0.2-0.3,0-0.5,0.3-0.6c1,0.5,4.3,2.1,4.9,2.4c4.6,1.9,21.7,11.1,25.5,5.8
		c4-5.5-12.6-12.9-18.2-15.6c-2.1-1-9.1-3.5-12.1-4c-0.8-2.1-0.5-2.1-1.6-4.3c-1.6-3.7-5.1-8.1-9.3-10.8c0.3-0.3,1.4-1,1.8-1.3
		c3.2-2.7,11.5-9.7,6.4-13.2C1141.3,606.4,1132.7,613,1129,615.9z"/>
</g>
<g>
	<path class="st12" d="M802.3,411.4c-5.1,67-50.5,171.5,72,209.3c122.3,37.8,175.8-68.4,160.2-135.4c-15.6-67,47.1-121.2-27.6-182.1
		C932,242.2,807.4,344.4,802.3,411.4z"/>
</g>
<g>
	<path class="st3" d="M1065.3,626.2c-0.5,1.6-1.1,3.2-1.6,5c-6.4,19.8-31.3,28.7-55.2,19.5c-88.9-34-141.5-178.7-173.6-254.9
		c-6.2-15,4-30.9,23.2-36.5c2.9-0.8,5.7-1.6,8.6-2.6c20.8-6,43.9,2.3,50.8,18.4c28.1,64.6,82.7,194.5,131.3,218.5
		C1063.1,600.4,1069.5,613.6,1065.3,626.2z"/>
</g>
<path class="st13" d="M955.1,310.3c-2.4-8.7,2.9-17.2,11.8-19s33.1,1.1,35.6,9.8c2.4,8.7-17.9,20.1-26.8,21.9
	C966.8,324.8,957.5,319,955.1,310.3z"/>
<path class="st13" d="M1053.3,288.9c-2.4-8.7-11.2-14.5-19.6-12.9c-8.5,1.6-27.6,12.7-25.2,21.6c2.4,8.7,25.4,11.8,33.9,10.1
	C1050.8,306.1,1055.7,297.7,1053.3,288.9z"/>
<ellipse transform="matrix(1.603024e-02 -0.9999 0.9999 1.603024e-02 687.8013 1296.723)" class="st13" cx="1002.7" cy="298.9" rx="13.8" ry="16.3"/>
<ellipse class="st3" cx="1017.2" cy="338" rx="4.3" ry="3.2"/>
<ellipse class="st3" cx="1019.3" cy="371.8" rx="4.3" ry="3.2"/>
<ellipse class="st3" cx="1018.4" cy="405.8" rx="4.3" ry="3.2"/>
<ellipse class="st3" cx="1017.2" cy="440.1" rx="4.3" ry="3.2"/>
<ellipse class="st3" cx="1017.2" cy="474.3" rx="4.3" ry="3.2"/>
<ellipse class="st3" cx="1017.2" cy="508.8" rx="4.3" ry="3.2"/>
<ellipse class="st3" cx="1017.2" cy="543.1" rx="4.3" ry="3.2"/>
<g>
	<path class="st3" d="M1012.9,484.5c-1.4,43.5-27.8,199.2-122,195c-94.2-4.2-103-145.1-100.1-201.6c2.9-56.5,5.6-163.6,104.6-192.9
		C994.6,255.5,1014.5,440.9,1012.9,484.5z"/>
</g>
</svg>
