<svg id="Layer_1" data-name="Layer 1" xmlns="http://www.w3.org/2000/svg" viewBox="0 0 340.58 155.55"><defs><style>.cls-1{fill:gray;}.cls-2{fill:#666;}.cls-3{fill:none;stroke:#000;stroke-miterlimit:10;stroke-width:5px;}</style></defs><path d="M232.86,113.71c-46.68,95.36-102,70.73-144.44,7.78,7.29-9.08,11.85-12.23,18.09-15.93,14,41.11,92.75,60.92,103.69-4.26C226.47,103,219,104.63,232.86,113.71Z" transform="translate(-88.42 -34.45)"/><ellipse cx="269.88" cy="77.77" rx="70.7" ry="77.77"/><ellipse class="cls-1" cx="270.49" cy="75.74" rx="37.25" ry="41.11"/><ellipse class="cls-2" cx="270.49" cy="77.22" rx="9.88" ry="10.74"/><rect class="cls-2" x="263.35" y="21.67" width="15.66" height="15.92"/><polygon class="cls-2" points="299.38 52.4 287.67 41.11 297.25 29.26 308.96 40.55 299.38 52.4"/><rect class="cls-2" x="306.53" y="64.81" width="14.44" height="17.22"/><polygon class="cls-2" points="292.08 107.77 301.96 94.25 313.22 104.07 303.33 117.59 292.08 107.77"/><polygon class="cls-2" points="254.22 42.22 241.91 52.59 233.09 40.18 245.56 29.63 254.22 42.22"/><rect class="cls-2" x="221.53" y="66.29" width="14.44" height="17.22"/><rect class="cls-2" x="263.35" y="113.88" width="15.66" height="15.92"/><polygon class="cls-2" points="241.45 120.55 230.35 108.33 240.54 97.03 251.64 109.25 241.45 120.55"/><ellipse class="cls-3" cx="155.79" cy="64.35" rx="19.79" ry="20.2"/><ellipse class="cls-3" cx="188.9" cy="52.77" rx="15.69" ry="16.77"/></svg>