<?xml version="1.0" encoding="utf-8"?>
<!-- Generator: Adobe Illustrator 26.0.3, SVG Export Plug-In . SVG Version: 6.00 Build 0)  -->
<svg version="1.1" id="Layer_1" xmlns="http://www.w3.org/2000/svg" xmlns:xlink="http://www.w3.org/1999/xlink" x="0px" y="0px"
	 viewBox="0 0 1920 1080" style="enable-background:new 0 0 1920 1080;" xml:space="preserve">
<style type="text/css">
	.st0{fill:#E9BEB8;stroke:#E9BEB8;stroke-miterlimit:10;}
	.st1{fill:#ED1C24;stroke:#FF0000;stroke-miterlimit:10;}
	.st2{fill:#ED1C24;stroke:#ED1C24;stroke-miterlimit:10;}
	.st3{fill:#603813;stroke:#603813;stroke-miterlimit:10;}
	.st4{fill:#EDCCBF;stroke:#ECC6C1;stroke-miterlimit:10;}
	.st5{fill:#FFFFFF;stroke:#FFFFFF;stroke-width:1;stroke-miterlimit:10.0001;}
	.st6{fill:#008807;stroke:#000000;stroke-width:1;stroke-miterlimit:9.9997;}
	.st7{stroke:#000000;stroke-miterlimit:10;}
	.st8{fill:#FFFFFF;stroke:#FFFFFF;stroke-miterlimit:10;}
	.st9{fill:#008807;stroke:#000000;stroke-width:1;stroke-miterlimit:9.9992;}
	.st10{fill:#553A34;stroke:#42210B;stroke-miterlimit:10;}
	.st11{fill:#42210B;stroke:#42210B;stroke-miterlimit:10;}
	.st12{opacity:0.74;fill:#FFCCD5;stroke:#000000;stroke-width:1;stroke-miterlimit:10.0004;enable-background:new    ;}
	.st13{opacity:0.74;fill:#FFCCD5;stroke:#000000;stroke-width:0.9999;stroke-miterlimit:9.9998;enable-background:new    ;}
	.st14{opacity:0.74;fill:none;stroke:#000000;stroke-miterlimit:10;enable-background:new    ;}
	.st15{fill:#A21C24;stroke:#000000;stroke-miterlimit:10;}
	.st16{fill:none;stroke:#000000;stroke-miterlimit:10;}
	.st17{fill:#754C24;}
	.st18{opacity:0.74;}
	.st19{fill:#EDCCBF;}
	.st20{fill:url(#SVGID_1_);}
	.st21{fill:#CBCBCB;}
	.st22{fill:#FF7BAB;stroke:#FF7BAC;stroke-miterlimit:10;}
	.st23{fill:#FF7BAC;stroke:#000000;stroke-miterlimit:10;}
	.st24{fill:#EDC7B2;stroke:#EDC7B2;stroke-miterlimit:10;}
</style>
<path class="st0" d="M917.8,950h-28.4c-11.7,0-21.2-8.8-21.2-19.8V885c0-10.8,9.5-19.8,21.2-19.8h28.4c11.7,0,21.2,8.8,21.2,19.8
	v45.3C939,941.1,929.6,950,917.8,950z"/>
<path class="st0" d="M999,932.9h-21.1c-11.7,0-21.2-8.8-21.2-19.8v-45.3c0-10.8,9.5-19.8,21.2-19.8H999c11.7,0,21.2,8.8,21.2,19.8
	v45.3C1020.1,924,1010.6,932.9,999,932.9z"/>
<g>
	<g>
		<path class="st0" d="M984.5,966.6c8.9,22.4-60,6.4-79.6,11.9c-19.6,5.5-29.7-4-38.7-19.8c-8.8-15.7-11.1-11.7,8.9-18.9
			C895.4,932.7,975.6,944.3,984.5,966.6z"/>
	</g>
	<g>
		<path class="st1" d="M992,974.2c-7,17.2-51.2,18.4-69.6,19.9c-18.4,1.5-69.6-25.2-62.2-53.4c7.4-28.1,45.5,7.8,60.4,10
			C935.2,952.9,999.1,957,992,974.2z"/>
	</g>
	<rect x="862" y="957.7" class="st2" width="19.5" height="36.2"/>
</g>
<g>
	<g>
		<path class="st0" d="M1077.6,929.1c8.9,22.4-60,6.4-79.6,11.9c-19.6,5.5-29.7-4-38.7-19.8c-8.8-15.7-11.1-11.7,8.9-18.9
			C988.3,895.2,1068.7,906.6,1077.6,929.1z"/>
	</g>
	<g>
		<path class="st1" d="M1085.1,936.5c-7,17.2-51.2,18.4-69.6,19.9c-18.4,1.3-69.6-25.2-62.2-53.4c7.4-28.1,45.5,7.8,60.4,10
			C1028.2,915.4,1092.1,919.2,1085.1,936.5z"/>
	</g>
	<rect x="955.2" y="920" class="st2" width="19.5" height="26.2"/>
</g>
<g>
	<path class="st3" d="M1158.3,1004.5c-3.8,0.8-7.9,1.7-11.8,2.5c-3,0.7-5.9-1.7-6.6-5.1c-12-72.1-81.7-409.1,37.2-302.9
		c2.4,2.1,2.9,5.8,1.1,8.3c-2.5,3.6-5.3,7.5-8.2,10.7c-2.4,2.4-6.2,1.9-8.2-0.8c-67.6-97.4-10,213.6,0.8,280.6
		C1162.9,1000.8,1161.2,1003.7,1158.3,1004.5z"/>
</g>
<g>
	<path class="st4" d="M1091.8,303.7c-20.8-40.4-26.4-145.6-94.7-140.7c-68.4,4.8-104.6,93.3-88.3,156.5c10,38.8,29.6,50.9,61.4,60.2
		c0,0.2-0.1,0.6-0.1,0.8l-3.8,22.8c-1.3,8.2,4.7,16,13.7,17.2l49.5,7.1c8.9,1.2,17.5-4.3,18.8-12.7l2.9-16.9
		C1101.1,398.4,1110.1,339.6,1091.8,303.7z"/>
	<g>
		
			<ellipse transform="matrix(0.9896 -0.1438 0.1438 0.9896 -25.282 146.1179)" class="st5" cx="998.2" cy="248" rx="22.3" ry="13.8"/>
		
			<ellipse transform="matrix(0.9952 -9.777066e-02 9.777066e-02 0.9952 -19.7207 99.1244)" class="st6" cx="1001.6" cy="250.8" rx="12.6" ry="10.4"/>
		<ellipse class="st7" cx="1003.8" cy="254.6" rx="7.5" ry="5.3"/>
	</g>
	<g>
		<path class="st8" d="M1068.6,229.1c-3.7-0.8-8-1-12.5-0.2c-12.1,1.9-20.8,9.8-19.2,17.2c1.5,7.4,12.5,11.9,24.6,10
			c5.4-0.8,10.1-2.9,13.6-5.5C1072.5,243.5,1070.1,236.4,1068.6,229.1z"/>
		
			<ellipse transform="matrix(0.9921 -0.1256 0.1256 0.9921 -22.664 134.9378)" class="st9" cx="1058.9" cy="247.2" rx="12.2" ry="9.1"/>
		<ellipse class="st7" cx="1059.5" cy="250.1" rx="7" ry="5.4"/>
	</g>
	<g>
		<g>
			<g>
				<path class="st10" d="M997.3,219.6c0.5,2.1,0.4,2.4-0.3,4.5"/>
			</g>
			<g>
				<path class="st10" d="M997.5,219.7c0.5,2.1,0.4,2.4-0.3,4.5"/>
			</g>
			<g>
				<path class="st10" d="M995.8,219.6c1.2,2.1,1.1,2.4,0.9,4.5"/>
			</g>
			<g>
				<path class="st10" d="M995.2,219.2c0.5,2.1,0.4,2.4-0.3,4.5"/>
			</g>
			<g>
				<path class="st10" d="M994.9,219.4c0.5,2.1,0.4,2.4-0.3,4.5"/>
			</g>
			<g>
				<path class="st10" d="M993.3,219.4c1.3,1.9,1.3,2.4,1.3,4.5"/>
			</g>
			<g>
				<path class="st10" d="M992.4,219.4c1.6,1.9,1.6,2.2,2.1,4.3"/>
			</g>
			<g>
				<path class="st10" d="M991.1,219.6c2.1,1.7,2.1,2.1,2.9,4"/>
			</g>
		</g>
		<g>
			<g>
				<path class="st10" d="M991.1,219.7c0.8,1.8,0.5,1.9,0,3.6"/>
			</g>
			<g>
				<path class="st10" d="M991.5,219.8c0.8,1.8,0.5,1.9,0,3.6"/>
			</g>
			<g>
				<path class="st10" d="M989.8,219.8c1.2,1.7,1.2,1.9,1.2,3.6"/>
			</g>
			<g>
				<path class="st10" d="M989.4,219.7c0.8,1.8,0.5,1.9,0,3.6"/>
			</g>
			<g>
				<path class="st10" d="M988.9,219.7c0.8,1.8,0.5,1.9,0,3.6"/>
			</g>
			<g>
				<path class="st10" d="M987.5,219.8c1.3,1.6,1.3,1.8,1.5,3.6"/>
			</g>
			<g>
				<path class="st10" d="M986.6,220c1.6,1.6,1.6,1.7,2.1,3.5"/>
			</g>
			<g>
				<path class="st10" d="M985.6,220.1c2,1.2,2,1.6,2.9,3.1"/>
			</g>
		</g>
		<g>
			<g>
				<path class="st10" d="M983.6,220.3c1.8,1.6,1.6,1.8,2.1,3.7"/>
			</g>
			<g>
				<path class="st10" d="M984,220.6c1.8,1.6,1.6,1.8,2.1,3.7"/>
			</g>
			<g>
				<path class="st10" d="M982.1,220.9c2.2,1.2,2.2,1.7,3.3,3.4"/>
			</g>
			<g>
				<path class="st10" d="M981.6,220.9c1.8,1.6,1.6,1.8,2.1,3.7"/>
			</g>
			<g>
				<path class="st10" d="M981.1,221c1.8,1.6,1.6,1.8,2.1,3.7"/>
			</g>
			<g>
				<path class="st10" d="M979.8,221.5c2.4,1.2,2.4,1.6,3.6,3.1"/>
			</g>
			<g>
				<path class="st10" d="M978.7,221.9c2.6,1,2.6,1.2,4.2,2.9"/>
			</g>
			<g>
				<path class="st10" d="M977.7,222.4c2.9,0.8,3,1,4.9,2.5"/>
			</g>
		</g>
		<g>
			<g>
				<path class="st10" d="M976.5,222.7c2.1,1.1,2.1,1.3,3.3,2.9"/>
			</g>
			<g>
				<path class="st10" d="M977,222.7c2.1,1.1,2.1,1.3,3.3,2.9"/>
			</g>
			<g>
				<path class="st10" d="M975.6,223.5c2.4,0.8,2.5,1.1,4.1,2.5"/>
			</g>
			<g>
				<path class="st10" d="M975.2,223.6c2.1,1.1,2.1,1.3,3.3,2.9"/>
			</g>
			<g>
				<path class="st10" d="M975,223.7c2.1,1.1,2.1,1.3,3.3,2.9"/>
			</g>
			<g>
				<path class="st10" d="M974.1,224.4c2.4,0.7,2.5,1,4.2,2.2"/>
			</g>
			<g>
				<path class="st10" d="M973.5,224.8c2.5,0.6,2.6,0.7,4.5,1.9"/>
			</g>
			<g>
				<path class="st10" d="M972.9,225.4c2.5,0.2,2.9,0.4,4.9,1.3"/>
			</g>
		</g>
		<g>
			<g>
				<path class="st10" d="M972.9,224.4c2.2,0.6,2.4,0.8,3.6,1.8"/>
			</g>
			<g>
				<path class="st10" d="M973.3,224.4c2.2,0.6,2.4,0.8,3.6,1.8"/>
			</g>
			<g>
				<path class="st10" d="M972.1,225.1c2.5,0.2,2.6,0.4,4.3,1.3"/>
			</g>
			<g>
				<path class="st10" d="M971.7,225.3c2.2,0.6,2.4,0.8,3.6,1.8"/>
			</g>
			<g>
				<path class="st10" d="M971.5,225.4c2.2,0.6,2.4,0.8,3.6,1.8"/>
			</g>
			<g>
				<path class="st10" d="M970.6,226.1c2.5,0.1,2.6,0.4,4.5,1.2"/>
			</g>
			<g>
				<path class="st10" d="M969.9,226.5c2.6,0,2.9,0.1,4.9,0.8"/>
			</g>
			<g>
				<path class="st10" d="M969.4,227.1c2.6-0.1,3-0.1,5.3,0.4"/>
			</g>
		</g>
		<g>
			<g>
				<path class="st10" d="M1014.9,221.4c0,2.8-0.4,3-2.1,5.4"/>
			</g>
			<g>
				<path class="st10" d="M1015.3,221.6c0,2.8-0.4,3-2.1,5.4"/>
			</g>
			<g>
				<path class="st10" d="M1013.1,221.2c0.8,2.6,0.4,3-0.5,5.5"/>
			</g>
			<g>
				<path class="st10" d="M1012.5,220.8c0,2.8-0.4,3-2.1,5.4"/>
			</g>
			<g>
				<path class="st10" d="M1012,220.8c0,2.8-0.4,3-2.1,5.4"/>
			</g>
			<g>
				<path class="st10" d="M1010.1,220.7c0.9,2.6,0.8,3-0.1,5.5"/>
			</g>
			<g>
				<path class="st10" d="M1008.7,220.6c1.3,2.5,1.2,2.9,0.9,5.5"/>
			</g>
			<g>
				<path class="st10" d="M1007.3,220.6c2,2.4,1.8,2.8,2.1,5.4"/>
			</g>
		</g>
		<g>
			<path class="st11" d="M1012.7,227.8c-17.8-2.9-22.2-7.8-38.9,0.6c-0.4-1-0.9-1.8-1.8-2.6c19.7-8.7,23.4-4.7,43.9-2.9
				C1015.9,223.9,1013.6,226.6,1012.7,227.8z"/>
		</g>
		<g>
			<g>
				<path class="st10" d="M1006.5,219.6c1.1,2.6,0.8,3,0,5.5"/>
			</g>
			<g>
				<path class="st10" d="M1007,219.8c1.1,2.6,0.8,3,0,5.5"/>
			</g>
			<g>
				<path class="st10" d="M1004.6,219.8c1.8,2.5,1.5,2.8,1.6,5.4"/>
			</g>
			<g>
				<path class="st10" d="M1004,219.6c1.1,2.6,0.8,3,0,5.5"/>
			</g>
			<g>
				<path class="st10" d="M1003.3,219.7c1.1,2.6,0.8,3,0,5.5"/>
			</g>
			<g>
				<path class="st10" d="M1001.6,219.8c2,2.4,1.8,2.8,2.1,5.4"/>
			</g>
			<g>
				<path class="st10" d="M1000.3,220c2.4,2.2,2.2,2.7,3,5.2"/>
			</g>
			<g>
				<path class="st10" d="M998.7,220.1c2.9,1.9,2.9,2.4,4.1,4.8"/>
			</g>
		</g>
	</g>
	<g>
		<g>
			<g>
				<path class="st10" d="M1052.9,216.1c-0.4,1.8-0.3,2.1,0.1,3.7"/>
			</g>
			<g>
				<path class="st10" d="M1052.7,216.2c-0.4,1.8-0.3,2.1,0.1,3.7"/>
			</g>
			<g>
				<path class="st10" d="M1054,216.1c-0.9,1.7-0.9,1.9-0.8,3.7"/>
			</g>
			<g>
				<path class="st10" d="M1054.5,216c-0.4,1.8-0.3,2.1,0.1,3.7"/>
			</g>
			<g>
				<path class="st10" d="M1054.8,216c-0.4,1.8-0.3,2.1,0.1,3.7"/>
			</g>
			<g>
				<path class="st10" d="M1055.9,216c-1.1,1.7-1.1,1.9-1.1,3.6"/>
			</g>
			<g>
				<path class="st10" d="M1056.7,216c-1.3,1.6-1.3,1.8-1.6,3.6"/>
			</g>
			<g>
				<path class="st10" d="M1057.6,216.1c-1.6,1.3-1.6,1.7-2.2,3.4"/>
			</g>
		</g>
		<g>
			<g>
				<path class="st10" d="M1057.6,216.2c-0.5,1.6-0.4,1.7,0,3"/>
			</g>
			<g>
				<path class="st10" d="M1057.3,216.3c-0.5,1.6-0.4,1.7,0,3"/>
			</g>
			<g>
				<path class="st10" d="M1058.7,216.3c-0.9,1.3-0.9,1.6-0.9,3"/>
			</g>
			<g>
				<path class="st10" d="M1059,216.2c-0.5,1.6-0.4,1.7,0,3"/>
			</g>
			<g>
				<path class="st10" d="M1059.2,216.2c-0.5,1.6-0.4,1.7,0,3"/>
			</g>
			<g>
				<path class="st10" d="M1060.3,216.3c-1.1,1.3-1.1,1.6-1.1,2.9"/>
			</g>
			<g>
				<path class="st10" d="M1061.1,216.3c-1.3,1.2-1.2,1.3-1.6,2.9"/>
			</g>
			<g>
				<path class="st10" d="M1061.7,216.5c-1.5,1.1-1.5,1.2-2.2,2.6"/>
			</g>
		</g>
		<g>
			<g>
				<path class="st10" d="M1063.4,216.8c-1.3,1.2-1.3,1.6-1.6,3.1"/>
			</g>
			<g>
				<path class="st10" d="M1063.2,216.9c-1.3,1.2-1.3,1.6-1.6,3.1"/>
			</g>
			<g>
				<path class="st10" d="M1064.5,217.2c-1.8,1.1-1.8,1.3-2.5,2.8"/>
			</g>
			<g>
				<path class="st10" d="M1064.9,217.2c-1.3,1.2-1.3,1.6-1.6,3.1"/>
			</g>
			<g>
				<path class="st10" d="M1065.3,217.3c-1.3,1.2-1.3,1.6-1.6,3.1"/>
			</g>
		</g>
		<g>
			<g>
				<path class="st10" d="M1039.2,217.7c0,2.2,0.3,2.5,1.6,4.5"/>
			</g>
			<g>
				<path class="st10" d="M1039,217.9c0,2.2,0.3,2.5,1.6,4.5"/>
			</g>
			<g>
				<path class="st10" d="M1040.7,217.4c-0.5,2.2-0.3,2.5,0.4,4.6"/>
			</g>
			<g>
				<path class="st10" d="M1041.2,217.2c0,2.2,0.3,2.5,1.6,4.5"/>
			</g>
			<g>
				<path class="st10" d="M1041.5,217.2c0,2.2,0.3,2.5,1.6,4.5"/>
			</g>
			<g>
				<path class="st10" d="M1042.9,216.9c-0.8,2.2-0.5,2.5,0.1,4.6"/>
			</g>
			<g>
				<path class="st10" d="M1044,216.9c-1.1,2.1-0.9,2.5-0.5,4.6"/>
			</g>
			<g>
				<path class="st10" d="M1045,216.8c-1.5,1.9-1.3,2.4-1.5,4.5"/>
			</g>
		</g>
		<g>
			<path class="st11" d="M1065.8,218.4c-9.9-3.5-14.1-1-27.4,0.2c0.1,1.1,2,3.1,2.5,4.2c11.5-2.1,15.7-5.3,24.5-2.1
				C1065.4,220.1,1065.5,219.2,1065.8,218.4z"/>
		</g>
		<g>
			<g>
				<path class="st10" d="M1045.8,216.1c-0.8,2.2-0.5,2.5,0,4.6"/>
			</g>
			<g>
				<path class="st10" d="M1045.4,216.3c-0.8,2.2-0.5,2.5,0,4.6"/>
			</g>
			<g>
				<path class="st10" d="M1047.3,216.3c-1.3,2.1-1.2,2.4-1.2,4.6"/>
			</g>
			<g>
				<path class="st10" d="M1047.8,216.1c-0.8,2.2-0.5,2.5,0,4.6"/>
			</g>
			<g>
				<path class="st10" d="M1048.2,216.2c-0.8,2.2-0.5,2.5,0,4.6"/>
			</g>
			<g>
				<path class="st10" d="M1049.5,216.2c-1.5,1.9-1.3,2.4-1.5,4.5"/>
			</g>
			<g>
				<path class="st10" d="M1050.6,216.3c-1.8,1.8-1.8,2.2-2.2,4.3"/>
			</g>
			<g>
				<path class="st10" d="M1051.7,216.5c-2.1,1.7-2.1,1.9-3.2,4"/>
			</g>
		</g>
	</g>
	<g>
		
			<ellipse transform="matrix(0.322 -0.9468 0.9468 0.322 427.3019 1183.2031)" class="st12" cx="1039.7" cy="293.3" rx="1.7" ry="4"/>
		<path class="st13" d="M1049.1,289.8c1.9-1.4,3.8-1.8,4.4-1.1c0.5,0.8-0.6,2.5-2.5,3.8c-1.9,1.4-3.8,1.8-4.4,1.1
			C1046.1,292.9,1047.2,291.2,1049.1,289.8z"/>
		<path class="st14" d="M1057.5,284.2c-4.6,11.2-15.8,14.5-25.1,7.1"/>
		<line class="st14" x1="1032.4" y1="291.7" x2="1033.6" y2="267.8"/>
		<line class="st14" x1="1057.3" y1="284.7" x2="1045.7" y2="265.6"/>
	</g>
	<g>
		<g>
			<path class="st15" d="M1084.6,321.6c4.6,6.9-17.6,15.8-25.7,17.8c-8,1.9-42.9-3.9-40.8-13c2.1-9.2,26,1.8,33.4,2.4
				C1059.1,329,1080,314.7,1084.6,321.6z"/>
		</g>
		<g>
			<path class="st16" d="M1017.8,326.5c19.5,10,51.8,9.2,67.1-4.8"/>
		</g>
	</g>
	<g>
		<path class="st17" d="M1021.6,304.3c-0.9-0.2-1.8-0.2-2.6,0.1c-0.1,0.1-0.4,0.1-0.4,0.4c-0.1,0.1,0,0.4,0,0.6
			c0.1,0.6,0.4,1.1,0.9,1.6s1.2,0.8,2,0.7c0.8,0,1.2-0.4,1.6-1c0.3-0.4,0.4-1,0.3-1.6c0-0.2,0-0.6-0.3-0.8s-0.9-0.4-1.5-0.4
			c-0.9,0-1.8,0-2.4,0.4c-0.8,0.4-0.9,1.2-0.3,1.8"/>
		<g>
			<path class="st17" d="M1021.9,303.6c-0.8-0.2-1.6-0.2-2.5,0c-0.4,0.1-0.9,0.2-1.2,0.6c-0.4,0.2-0.4,0.8-0.4,1.2
				c0.3,1.6,1.5,2.9,3.3,2.9c0.8,0,1.6-0.2,2.1-0.8c0.5-0.7,0.8-1.3,0.8-2.2c0-0.4-0.1-0.8-0.3-1.1c-0.3-0.4-0.5-0.6-1.1-0.7
				c-0.8-0.2-1.5-0.2-2.2-0.1c-0.9,0.1-1.8,0.4-2.4,1.1c-0.4,0.7-0.4,1.7,0.3,2.2c0.3,0.2,0.8,0.2,1.1,0c0.3-0.2,0.3-0.7,0-1
				l-0.1-0.1c0.1,0.1,0,0,0,0c0,0.1,0,0.1,0,0s0,0.1,0,0v-0.1c0,0.1,0,0,0,0s0.1-0.1,0,0c0,0,0-0.1,0.1-0.1c0-0.1,0,0,0,0l0.1-0.1
				c0.1-0.1-0.1,0,0,0h0.1c0,0,0.1-0.1,0.1,0h0.1c0.1,0,0.3-0.1,0.4-0.1c-0.1,0,0.1,0,0.1,0h0.1c0.1,0,0.3,0,0.4,0s0.3,0,0.4,0h0.1
				c0,0,0.3,0,0.1,0c0.1,0,0.3,0,0.4,0.1h0.1c-0.1,0,0,0,0,0c0.1,0.1-0.1-0.1,0,0c0,0,0.1,0.1,0,0l0,0l0,0v0.1c0,0.1,0,0.1,0,0
				s0,0.1,0,0.1c0,0.1,0,0.1,0,0.2s0,0.2,0,0.4c0-0.1,0,0.1,0,0.1v0.1v0.1l-0.1,0.1c0,0-0.1,0.1,0,0.1c0-0.1,0,0.1,0,0.1l-0.1,0.1
				c0,0-0.1,0.1-0.1,0c0.1,0-0.1,0-0.1,0s-0.1,0-0.1,0.1c-0.1,0.1,0,0,0,0c-0.1,0-0.1,0-0.3,0c-0.1,0,0.1,0-0.1,0h-0.1
				c0,0-0.3,0-0.1,0h-0.1h-0.1c0,0-0.1-0.1-0.1,0c-0.1,0-0.3-0.1-0.4-0.1c0.1,0.1,0,0,0,0l-0.1-0.1c-0.1-0.1-0.1-0.1-0.1-0.1
				c0-0.1-0.1-0.1-0.1-0.2c0,0-0.1-0.2,0-0.1c0-0.1,0-0.1-0.1-0.2c0-0.1-0.1-0.2-0.1-0.4v-0.1l0,0c0,0,0,0,0,0.1l0,0l0,0l0.1-0.1
				c0.1-0.1-0.1,0,0.1,0c0.1,0,0.1,0,0.3-0.1c0.5-0.1,1.2-0.1,1.8,0c0.3,0.1,0.9-0.1,0.9-0.4
				C1022.5,304.1,1022.2,303.7,1021.9,303.6L1021.9,303.6z"/>
		</g>
	</g>
	<g class="st18">
		<path class="st16" d="M956.5,266.2c5.9-7.8,5.7-7.2,15.9-9.2"/>
	</g>
	<g class="st18">
		<path class="st16" d="M998,328.8c6.6-6.6,6.3-6.3,15.1-10.4"/>
	</g>
	<g>
		<path class="st19" d="M866.4,269.1c-1.8-15.6,6.8-29.3,19.5-31.1c13-1.8,25.3,9.4,27.9,25.1l0,0l4.3,34.7l0,0
			c0.4,8.9-4.6,16.4-12,17.2c-7.8,0.8-15-6.3-16.2-15.7c0-0.2,0-0.7-0.1-1c-0.1-1-0.8-1.9-1.6-2.1
			C877.4,294.3,868.1,283.2,866.4,269.1z"/>
		
			<linearGradient id="SVGID_1_" gradientUnits="userSpaceOnUse" x1="1592.9677" y1="237.7746" x2="1620.0966" y2="217.0418" gradientTransform="matrix(-0.7463 0.1176 0.1552 0.9851 2054.7495 -139.7809)">
			<stop  offset="0" style="stop-color:#E0A599"/>
			<stop  offset="1" style="stop-color:#E9BEB8"/>
		</linearGradient>
		<path class="st20" d="M887.9,254.4c7.1-1.3,14.3,5.2,16.4,14.3l0,0l0.4,2.2c-3.3,0.4-5.4,3.9-4.6,7.5c0.5,3.7,3.7,6.3,7,5.8
			l0.9,4.8l0,0c0.5,5.3-2.1,9.8-6.2,10.3c-4.3,0.6-8.5-3.4-9.5-8.9c0-0.1,0-0.4-0.1-0.6c-0.1-0.6-0.4-1.1-0.9-1.1
			c-6.3-1-11.8-7.2-13.2-15.6C876.8,264.1,881.1,255.6,887.9,254.4z"/>
	</g>
	<ellipse class="st21" cx="1031.3" cy="158.4" rx="14.5" ry="13.4"/>
	<ellipse class="st21" cx="1009" cy="149.3" rx="15.1" ry="13.7"/>
	<ellipse class="st21" cx="1018.3" cy="172.1" rx="15.1" ry="13.7"/>
	<ellipse class="st21" cx="992.4" cy="167.4" rx="15.1" ry="13.7"/>
	<ellipse class="st21" cx="982.9" cy="144.6" rx="15.1" ry="13.7"/>
	<ellipse class="st21" cx="968.4" cy="163.7" rx="15.1" ry="13.7"/>
	<ellipse class="st21" cx="1044.2" cy="177.9" rx="15.1" ry="13.7"/>
	<ellipse class="st21" cx="1053.6" cy="162.7" rx="15.1" ry="13.7"/>
	<ellipse class="st21" cx="1039.1" cy="144.6" rx="15.1" ry="13.7"/>
	<ellipse class="st21" cx="1019.4" cy="131.2" rx="15.1" ry="13.7"/>
	<ellipse class="st21" cx="977.7" cy="186.5" rx="15.1" ry="13.7"/>
	<ellipse class="st21" cx="953.8" cy="181.7" rx="15.1" ry="13.7"/>
	<ellipse class="st21" cx="946.5" cy="160.8" rx="15.1" ry="13.7"/>
	<ellipse class="st21" cx="932" cy="178.8" rx="15.1" ry="13.7"/>
	<ellipse class="st21" cx="960" cy="203.6" rx="15.1" ry="13.7"/>
	<ellipse class="st21" cx="999.5" cy="187.4" rx="15.1" ry="13.7"/>
	<ellipse class="st21" cx="938.2" cy="200.8" rx="15.1" ry="13.7"/>
	<ellipse class="st21" cx="945.6" cy="220.7" rx="15.1" ry="13.7"/>
	<ellipse class="st21" cx="917.5" cy="219.8" rx="15.1" ry="13.7"/>
	<ellipse class="st21" cx="917.5" cy="196.1" rx="15.1" ry="13.7"/>
	<ellipse class="st21" cx="923.6" cy="236" rx="15.1" ry="13.7"/>
	<ellipse class="st21" cx="907" cy="243.6" rx="15.1" ry="13.7"/>
	<ellipse class="st21" cx="895.7" cy="220.7" rx="15.1" ry="13.7"/>
	<ellipse class="st21" cx="899.8" cy="203.6" rx="15.1" ry="13.7"/>
	<ellipse class="st21" cx="915.4" cy="177.9" rx="15.1" ry="13.7"/>
	<ellipse class="st21" cx="996.3" cy="131.2" rx="15.1" ry="13.7"/>
	<ellipse class="st21" cx="960" cy="139.9" rx="15.1" ry="13.7"/>
	<ellipse class="st21" cx="922.6" cy="262.5" rx="15.1" ry="13.7"/>
	<ellipse class="st21" cx="885.2" cy="234.1" rx="15.1" ry="13.7"/>
	<ellipse class="st21" cx="881.1" cy="215" rx="15.1" ry="13.7"/>
	<ellipse class="st21" cx="915.4" cy="283.5" rx="15.1" ry="13.7"/>
	<ellipse class="st21" cx="873.7" cy="247.3" rx="15.1" ry="13.7"/>
	<ellipse class="st21" cx="863.5" cy="264.4" rx="15.1" ry="13.7"/>
	<ellipse class="st21" cx="866.5" cy="232.1" rx="15.1" ry="13.7"/>
	<ellipse class="st21" cx="899.8" cy="323.4" rx="15.1" ry="13.7"/>
	<ellipse class="st21" cx="880" cy="307.2" rx="15.1" ry="13.7"/>
	<ellipse class="st21" cx="864.5" cy="287.2" rx="15.1" ry="13.7"/>
	<ellipse class="st21" cx="873.7" cy="326.3" rx="15.1" ry="13.7"/>
	<ellipse class="st21" cx="858.2" cy="309.2" rx="15.1" ry="13.7"/>
	<ellipse class="st8" cx="895.7" cy="306.9" rx="10.4" ry="8.1"/>
	<g class="st18">
		<path class="st16" d="M953.6,261.8c5.7-8.4,5.4-7.8,15.9-9.2"/>
	</g>
</g>
<g>
	<path class="st22" d="M776.5,553.5c-25.5,150.7-45.4,246,90.5,325.3s221.1-81.6,239.2-187.9c17.9-106.3,99.5-79-27.2-229.6
		S802,402.8,776.5,553.5z"/>
</g>
<g>
	<path class="st23" d="M936,478.4c-19.1,2.6-35,2.9-54.5,5.5c-3.4,0.4-6.4,1.3-7.8,5.4c-1.8,5.5-3.2,11.3-3.8,17.2
		c-0.1,0-0.1-0.1-0.3-0.1c-0.3,2.1-0.8,4.2-0.9,6.3c-0.1,1.2-0.3,2.4-0.3,3.5c0,1.2,0-1.8,0,0.7c0.1,2.6,0.9,7.2,1.6,10.3
		c0.1,0.6,0.3,1.6,0.5,2.1c0.2,0.6,0.5,1.3,0.8,2.1c0,0.1,0.1-0.2,0.3-0.1c3.6,11.8,10.3,23.3,16.7,33.6c2.2,3.5,5.1,4.8,8.2,4.2
		c18-4,32.2-4.8,50.8-3c3.3,0.2,5.7-1,6.6-5.2c3.2-13.6,6.4-28.5,6.3-42.9c0.1,0,0.1,0,0.3,0.1c-0.4-4.2-0.4-8.3-1.5-12.4
		c-0.4-1.6-1.1-2.9-1.6-4.3c-0.5-1.3-1.3-2.5-2-3.9c-0.3-0.6-0.5-1.1-0.9-1.7c0-0.1-0.1-0.2-0.1-0.2l-0.1,0.1
		c-2.5-5.1-5.7-9.6-8.9-14.3C943.1,477.4,939.3,478,936,478.4z"/>
</g>
<g>
	<path class="st24" d="M1087.4,656.9c-0.4,0.4-1.2,1.6-1.6,2.4c-0.3,0.4-0.8,0.7-1.3,0.6c-5.1-1.1-8.5-1.3-14.1-1.9
		c-4.6-0.4-13.6-1.9-16.8,1c-0.1,0.1-1.2,1.3-1.3,1.9c-0.1,0.4-0.5,1.9-1.5,1.3c-22.1-10.1-82.3-45.4-87.1-63.3
		c-4.6-17.2-2.2-15.6-4.3-28.3c-0.1-0.6-0.8-1.1-1.3-1.1c-22.9-1.2-45.5-3.4-65.3,1.8c-0.5,0.1-0.9,0.7-0.9,1.2
		c2.4,13.4,17.6,39.6,26,48.8c35.1,38.9,78.1,57,123.7,64.2c0.5,0.1,1.2,0.7,1.2,1.2c0,1.1,0.3,2.7,0.9,3.7c1.6,2.7,5.1,6.5,7.1,8.4
		s5.9,3.7,7.1,4.5c7.5,3.7,12.6,6.9,19.6,10.3c0.3,0.1,0.5,0.6,0.8,0.8c0.8,2.7,3.2,6.9,4.9,8.8c3.6,4,11.2,11.1,15.7,9.3
		c4.5-1.7-3.2-10.1-5.7-13.4l0,0c-0.5-0.8-0.1-1.8,0.9-1.8c2.4,0,4.3-0.4,6.4-1.1c0.4-0.1,1.1,0,1.5,0.2c1.8,1.6,4.9,4.2,6.2,5.1
		c4.5,3,16.6,11.7,19.9,8.2c3.2-3.5-9.1-12.1-13.3-15.3c-1.1-0.8-4.5-3-6.6-4.3c-0.4-0.2-0.8-0.8-0.5-1.3c0.3-0.8,0.4-2.1,0.5-2.4
		c0.3-0.8,0.5-1.2,0.9-1.8c0.4-0.6,1.3-0.7,2-0.1c2.4,2.1,6.2,5.1,7.6,6c4.7,3.1,18.3,13.1,21.3,9.4c3.2-3.7-10.6-13.1-15.4-16.6
		c-1.6-1.2-6.7-4.5-9.9-6.1c-0.5-0.2-0.9-1-0.5-1.6c0.4-0.8,0.9-1.6,1.2-2.4c0.1-0.2-0.1-0.6,0-0.7c0.9,0.6,4.3,2.5,4.9,2.8
		c4.5,2.2,22,12.9,23.8,8.1c1.8-4.8-14.6-13.7-20.1-16.9c-2-1.1-8-4-11.2-5.1c-0.3-0.1-0.5-0.2-0.8-0.7c-0.9-1.6-0.9-1.8-2.4-3.9
		c-2.2-3.4-5.9-7.5-10-10.6c-0.5-0.4-0.5-1.2-0.1-1.7c0.1-0.1,0.1-0.1,0.1-0.1c1.8-2.4,7-8.2,1.6-12.1
		C1095.1,649,1089.6,654.4,1087.4,656.9z"/>
</g>
</svg>
