<?xml version="1.0" encoding="utf-8"?>
<!-- Generator: Adobe Illustrator 26.0.3, SVG Export Plug-In . SVG Version: 6.00 Build 0)  -->
<svg version="1.1" id="Layer_1" xmlns="http://www.w3.org/2000/svg" xmlns:xlink="http://www.w3.org/1999/xlink" x="0px" y="0px"
	 viewBox="0 0 1920 1080" style="enable-background:new 0 0 1920 1080;" xml:space="preserve">
<style type="text/css">
	.st0{fill:#EDC7B2;}
	.st1{fill:url(#SVGID_1_);}
	.st2{fill:url(#SVGID_00000033354401134908174960000012996423508666983309_);}
	.st3{fill:#603813;}
	.st4{fill:url(#SVGID_00000078726578286592265550000004893199654369546882_);stroke:#EDC7B2;stroke-miterlimit:10;}
	.st5{fill:#FFFFFF;stroke:#E0A599;stroke-miterlimit:10;}
	.st6{fill:#0A78FF;stroke:#000000;stroke-miterlimit:10;}
	.st7{fill:#AA0924;}
	.st8{stroke:#000000;stroke-miterlimit:10;}
	.st9{fill:url(#SVGID_00000175303696329421222730000017543074844457354146_);stroke:#EDC7B2;stroke-miterlimit:10;}
	.st10{fill:none;stroke:#000000;stroke-miterlimit:10;}
	.st11{fill:#F7931E;stroke:#F7931E;stroke-width:3;stroke-miterlimit:10;}
	.st12{opacity:0.5;fill:#F7931E;stroke:#000000;stroke-width:3;stroke-miterlimit:10;enable-background:new    ;}
	.st13{font-family:'Superclarendon-Regular';}
	.st14{font-size:11.893px;}
	.st15{letter-spacing:29.5;}
	.st16{fill:none;}
	.st17{fill:#EDC7B2;stroke:#EDC7B2;stroke-width:3;stroke-miterlimit:10;}
	.st18{fill:#EDC7B2;stroke:#EDC7B2;stroke-miterlimit:10;}
	.st19{fill:none;stroke:#603813;stroke-miterlimit:10;}
	.st20{stroke:#000000;stroke-width:3;stroke-miterlimit:10;}
	.st21{fill:#F7931E;stroke:#000000;stroke-width:3.0001;stroke-miterlimit:10.0005;}
	.st22{fill:#F7931E;stroke:#000000;stroke-width:2.9999;stroke-miterlimit:9.9995;}
	.st23{fill:none;stroke:#000000;stroke-width:3;stroke-miterlimit:10;}
	.st24{stroke:#000000;stroke-width:2.9998;stroke-miterlimit:9.9993;}
	.st25{opacity:0.74;fill:#FFCCD5;stroke:#000000;stroke-width:1;stroke-miterlimit:9.9997;enable-background:new    ;}
	.st26{opacity:0.74;fill:#FFCCD5;stroke:#000000;stroke-width:1;stroke-miterlimit:9.9996;enable-background:new    ;}
	.st27{opacity:0.74;fill:none;stroke:#000000;stroke-miterlimit:10;enable-background:new    ;}
	.st28{opacity:0.74;}
	.st29{fill:#E0B299;stroke:#EDC7B2;stroke-width:1;stroke-miterlimit:10.0005;}
	.st30{fill:#E0B299;stroke:#EDC7B2;stroke-width:1;stroke-miterlimit:9.9992;}
	.st31{fill:#E0B299;stroke:#EDC7B2;stroke-miterlimit:10;}
	.st32{fill:#E0B299;stroke:#EDC7B2;stroke-width:1;stroke-miterlimit:10;}
	.st33{fill:#E0B299;stroke:#EDC7B2;stroke-width:1;stroke-miterlimit:10.0007;}
	.st34{fill:#E0B299;stroke:#EDC7B2;stroke-miterlimit:9.9999;}
	.st35{fill:#E0B299;stroke:#EDC7B2;stroke-width:1;stroke-miterlimit:9.9997;}
	.st36{fill:#553A34;stroke:#42210B;stroke-miterlimit:10;}
	.st37{fill:#42210B;stroke:#42210B;stroke-miterlimit:10;}
</style>
<path class="st0" d="M978.4,153.1c-66.6-8.1-123.7-9-190.2,1.8c-11.6,2-13.9,4.8-13.2,15.4c1,15,2.1,28.8,3.6,42
	c-0.1-0.1-0.6-0.3-0.7-0.3c-0.1,6.2-0.3,12.3-0.3,18.5c0.1,1.3,0.3,2.4,0.6,3.8c1,9.3,4,18.1,6.3,27c0.9,2.3,1.7,4.8,2.4,7.2
	c0.1-0.1,0.3-0.3,0.6-0.4c5.8,25.7,14.3,51.3,27.7,80.8c4.5,9.9,8.2,13.3,17,11.3c51.3-10.6,48.3-10.5,98.7,5.9
	c9,2.8,12.5,1.1,18-9.5c17.6-35.2,27.4-63.9,33.4-93.4c0.1,0.1,0.3,0.3,0.6,0.4c1.6-9.5,5.4-18.4,6.4-27.8c0.3-3.7,0.7-7.3,0.9-11
	c0-3.4,0-6.8,0-10.2c0-1.4,0-3,0-4.4c0-0.3,0-0.4,0-0.8c-0.1,0-0.3,0.1-0.7,0.1c1-12.7,2-26.4,2.8-41.3
	C993,156.5,990.1,154.4,978.4,153.1z"/>
<g>
	<path class="st0" d="M1031.5,231.4c1.7-16.3-6.8-30.5-19.2-32.5c-12.9-2-25.1,9.9-27.7,26l0,0l-4.4,36.2l0,0
		c-0.6,9.2,4.5,17.1,11.9,17.8c7.7,0.8,14.8-6.4,15.9-16.4c0-0.3,0-0.7,0.1-1c0-1.1,0.7-2,1.6-2.1
		C1020.6,257.7,1030,246.3,1031.5,231.4z"/>
	
		<linearGradient id="SVGID_1_" gradientUnits="userSpaceOnUse" x1="852.1608" y1="791.4165" x2="879.4687" y2="812.2861" gradientTransform="matrix(0.7463 0.1176 0.1552 -0.9851 236.6173 924.1271)">
		<stop  offset="0" style="stop-color:#E0A599"/>
		<stop  offset="1" style="stop-color:#E9BEB8"/>
	</linearGradient>
	<path class="st1" d="M1010.2,216.2c-7.1-1.3-14.3,5.2-16.2,15l0,0l-0.3,2.3c3.1,0.4,5.3,4,4.7,7.9c-0.7,3.8-3.7,6.5-7,6.1l-0.9,5.1
		l0,0c-0.6,5.4,2.1,10.2,6.1,10.9c4.1,0.7,8.4-3.7,9.4-9.3c0-0.1,0-0.3,0-0.7c0-0.7,0.6-1.1,0.9-1.1c6.1-1,11.6-7.5,13.1-16.3
		C1021.3,226.2,1017,217.6,1010.2,216.2z"/>
</g>
<g>
	<path class="st0" d="M738.3,231.2c-1.7-16.3,6.8-30.5,19.2-32.5c12.9-2,25.1,9.9,27.7,26l0,0l4.4,36.2l0,0
		c0.6,9.2-4.5,17.1-11.9,17.8c-7.7,0.8-14.8-6.4-15.9-16.4c0-0.3,0-0.7-0.1-1c0-1.1-0.7-2-1.6-2.1
		C749.2,257.4,739.9,245.9,738.3,231.2z"/>
	
		<linearGradient id="SVGID_00000178899734112647291710000016080668903893139073_" gradientUnits="userSpaceOnUse" x1="1753.0375" y1="899.3338" x2="1780.3466" y2="920.2044" gradientTransform="matrix(-0.7463 0.1176 -0.1552 -0.9851 2222.3655 924.1271)">
		<stop  offset="0" style="stop-color:#E0A599"/>
		<stop  offset="1" style="stop-color:#E9BEB8"/>
	</linearGradient>
	<path style="fill:url(#SVGID_00000178899734112647291710000016080668903893139073_);" d="M759.8,215.9c7.1-1.3,14.3,5.2,16.2,15
		l0,0l0.3,2.3c-3.1,0.4-5.3,4-4.7,7.9c0.6,4,3.7,6.5,7,6.1l0.9,5.1l0,0c0.6,5.4-2.1,10.2-6.1,10.9c-4.1,0.7-8.4-3.7-9.4-9.3
		c0-0.1,0-0.3,0-0.7c0-0.7-0.6-1.1-0.9-1.1c-6.1-1-11.6-7.5-13.1-16.3C748.4,225.9,752.8,217.2,759.8,215.9z"/>
</g>
<g>
	<g>
		<path class="st3" d="M875.8,334.6c1,0,1-1.7,0-1.7S874.7,334.6,875.8,334.6L875.8,334.6z"/>
	</g>
</g>
<g>
	<g>
		<path class="st0" d="M885.8,342.8c1,0,1-1.7,0-1.7C884.5,341.1,884.5,342.8,885.8,342.8L885.8,342.8z"/>
	</g>
</g>
<g>
	<g>
		<path class="st0" d="M909.4,341.8c1,0,1-1.7,0-1.7C908.1,340.1,908.1,341.8,909.4,341.8L909.4,341.8z"/>
	</g>
</g>
<g>
	<g>
		<path class="st0" d="M882.2,338.7c1,0,1-1.7,0-1.7S881.2,338.7,882.2,338.7L882.2,338.7z"/>
	</g>
</g>
<g>
	<g>
		<path class="st0" d="M886.5,328.5c1,0,1-1.7,0-1.7C885.4,327,885.4,328.5,886.5,328.5L886.5,328.5z"/>
	</g>
</g>
<g>
	<g>
		<path class="st0" d="M904,341.1c1,0,1-1.7,0-1.7C902.8,339.6,902.8,341.1,904,341.1L904,341.1z"/>
	</g>
</g>
<g>
	<g>
		<path class="st0" d="M904,341.1c1,0,1-1.7,0-1.7C902.8,339.6,902.8,341.1,904,341.1L904,341.1z"/>
	</g>
</g>
<g>
	<g>
		<path class="st0" d="M904,341.1c1,0,1-1.7,0-1.7C902.8,339.6,902.8,341.1,904,341.1L904,341.1z"/>
	</g>
</g>
<g>
	<g>
		<path class="st0" d="M880.7,340.4c1,0,1-1.7,0-1.7C879.5,338.7,879.5,340.4,880.7,340.4L880.7,340.4z"/>
	</g>
</g>
<g>
	<g>
		<path class="st0" d="M880.7,340.4c1,0,1-1.7,0-1.7C879.5,338.7,879.5,340.4,880.7,340.4L880.7,340.4z"/>
	</g>
</g>
<g>
	<g>
		<path class="st0" d="M893.3,332.8c1,0,1-1.7,0-1.7C892.3,331.1,892.2,332.8,893.3,332.8L893.3,332.8z"/>
	</g>
</g>
<g>
	<g>
		<path class="st0" d="M893.3,332.8c1,0,1-1.7,0-1.7C892.3,331.1,892.2,332.8,893.3,332.8L893.3,332.8z"/>
	</g>
</g>
<g>
	<g>
		<path class="st0" d="M893.3,332.8c1,0,1-1.7,0-1.7C892.3,331.1,892.2,332.8,893.3,332.8L893.3,332.8z"/>
	</g>
</g>
<g>
	<g>
		<path class="st0" d="M897.1,334.2c1,0,1-1.7,0-1.7C895.9,332.5,895.9,334.2,897.1,334.2L897.1,334.2z"/>
	</g>
</g>
<g>
	<g>
		<path class="st0" d="M881.9,327.3c1,0,1-1.7,0-1.7C880.7,325.6,880.7,327.3,881.9,327.3L881.9,327.3z"/>
	</g>
</g>
<g>
	<g>
		<path class="st0" d="M881.9,327.3c1,0,1-1.7,0-1.7C880.7,325.6,880.7,327.3,881.9,327.3L881.9,327.3z"/>
	</g>
</g>
<g>
	<g>
		<path class="st0" d="M906,339.7c1,0,1-1.7,0-1.7C904.8,338,904.8,339.7,906,339.7L906,339.7z"/>
	</g>
</g>
<g>
	<g>
		<path class="st0" d="M906,339.7c1,0,1-1.7,0-1.7C904.8,338,904.8,339.7,906,339.7L906,339.7z"/>
	</g>
</g>
<g>
	
		<linearGradient id="SVGID_00000069383374701628666660000007090164239648399252_" gradientUnits="userSpaceOnUse" x1="596.0947" y1="772.9154" x2="649.4" y2="772.9154" gradientTransform="matrix(0.3901 0.1443 0.219 -0.5921 396.775 630.3911)">
		<stop  offset="0" style="stop-color:#FF7BAC"/>
		<stop  offset="0.4387" style="stop-color:#EDC7B2"/>
	</linearGradient>
	<path style="fill:url(#SVGID_00000069383374701628666660000007090164239648399252_);stroke:#EDC7B2;stroke-miterlimit:10;" d="
		M798.5,258.9c1.7-4.4,7.7-6.2,13.5-4.2c5.8,2.1,9.1,7.2,7.4,11.6s-7.7,6.2-13.5,4.2C800.3,268.5,796.8,263.2,798.5,258.9z"/>
</g>
<g>
	<ellipse class="st5" cx="851.8" cy="232.8" rx="22.2" ry="14.4"/>
	<ellipse class="st6" cx="851.5" cy="236.4" rx="9.2" ry="10.9"/>
	<g>
		<g>
			<path class="st7" d="M833.5,225.1c-0.3,1.3-0.7,2.4-1,3.8c-0.1,0.7,0.7,1.3,1.3,1s1.3-0.3,1.7,0.1c0.6,0.3,0.7,1,0.7,1.7
				c0,0.4,0.6,0.8,0.9,0.8c0.6,0,0.9-0.3,0.9-0.8c0.1-1.1-0.6-2.4-1.4-3.1c-1-0.7-2.4-0.7-3.7-0.1c0.3,0.3,0.9,0.7,1.3,1
				c0.3-1.3,0.7-2.4,1-3.8C835.5,224.4,833.9,224.1,833.5,225.1L833.5,225.1z"/>
		</g>
	</g>
	<g>
		<g>
			<path class="st7" d="M872.7,236.4c-2-1.1-3.8-2.4-5.8-3.7c-0.3-0.1-1,0-1.3,0.3c-0.1,0.3,0,0.8,0.3,1.1c2,1.1,3.8,2.4,5.8,3.7
				c0.3,0.1,1,0,1.3-0.3C873.1,237.1,873,236.5,872.7,236.4L872.7,236.4z"/>
		</g>
	</g>
	<g>
		<g>
			<path class="st7" d="M866.6,235c-0.1,1-0.1,2-0.3,3c0,0.1,0.1,0.4,0.1,0.7c0.1,0.1,0.3,0.3,0.7,0.1c0.1,0,0.6,0,0.7-0.1
				c0.1-0.1,0.1-0.3,0.1-0.7c0.1-1,0.1-2,0.3-3c0-0.1-0.1-0.4-0.1-0.7c-0.1-0.1-0.3-0.3-0.7-0.1c-0.1,0-0.6,0-0.7,0.1
				C866.7,234.4,866.7,234.5,866.6,235L866.6,235z"/>
		</g>
	</g>
	<g>
		<g>
			<path class="st7" d="M869.7,236.2c0.7,0,1.4-0.1,2-0.4c0.7-0.3,1-0.7,1.6-1.3c0.1-0.1,0.1-0.4,0.1-0.7c0-0.1-0.1-0.3-0.3-0.4
				c-0.1-0.1-0.6-0.1-0.7-0.1c-0.1,0-0.3,0.1-0.6,0.3l0,0l0.1-0.1c-0.1,0.1-0.3,0.3-0.6,0.4l0.1-0.1c-0.1,0.1-0.6,0.3-0.7,0.3
				c0,0,0.1,0,0.1-0.1c-0.3,0.1-0.6,0.1-0.9,0.1h0.1c-0.1,0-0.3,0-0.6,0c-0.6,0-0.9,0.3-0.9,0.8C868.9,236,869.3,236.2,869.7,236.2
				L869.7,236.2z"/>
		</g>
	</g>
	<g>
		<g>
			<path class="st7" d="M860.6,220.6c0,0.3-0.1,0.8-0.1,1.3c-0.1,0.4-0.1,0.8-0.3,1.3c-0.3,0.8-0.7,1.7-1.3,2.3
				c-0.1,0.3-0.1,0.8,0.3,1.1c0.3,0.1,0.9,0.1,1.3-0.3c1-1.8,1.7-3.8,2-5.8c0-0.4-0.6-0.8-0.9-0.8
				C860.9,219.7,860.6,220.1,860.6,220.6L860.6,220.6z"/>
		</g>
	</g>
	<g>
		<g>
			<path class="st7" d="M857.1,223.1c0.6,0.3,1,0.8,1.6,1.1c0,0,0.1,0.1,0.3,0.1c0.1,0,0.1,0,0.3,0c0.1,0,0.6-0.1,0.7-0.1
				c0.1-0.1,0.3-0.3,0.1-0.7c0-0.1,0-0.4-0.1-0.7c-0.6-0.3-1-0.8-1.6-1.1c0,0-0.1-0.1-0.3-0.1c-0.1,0-0.1,0-0.3,0
				c-0.1,0-0.6,0.1-0.7,0.1c-0.1,0.1-0.3,0.3-0.1,0.7C856.9,222.8,856.9,223,857.1,223.1L857.1,223.1z"/>
		</g>
	</g>
	<g>
		<g>
			<path class="st7" d="M859.8,224.9c0.6,1,1,2.1,1.6,3.1c0.1,0.3,0.9,0.4,1.3,0.3c0.3-0.3,0.6-0.7,0.3-1.1c-0.6-1-1-2.1-1.6-3.1
				c-0.1-0.3-0.9-0.4-1.3-0.3C859.8,223.9,859.5,224.4,859.8,224.9L859.8,224.9z"/>
		</g>
	</g>
	<g>
		<g>
			<path class="st7" d="M860.9,223.7c1,0.4,2.3,1,3.3,1.4c0.1,0.1,0.3,0.1,0.7,0.1c0.1,0,0.3-0.1,0.6-0.3c0.1-0.3,0.1-1-0.3-1.1
				c-1-0.4-2.3-1-3.3-1.4c-0.1-0.1-0.3-0.1-0.7-0.1c-0.1,0-0.3,0.1-0.6,0.3C860.5,223,860.5,223.4,860.9,223.7L860.9,223.7z"/>
		</g>
	</g>
	<g>
		<g>
			<path class="st7" d="M836.3,242.5c1.3-1.4,1.7-3.3,1.4-5.1c-0.3,0.3-0.9,0.7-1.3,1c0.7,0.4,1.7,0.7,2.6,0.4
				c0.3,0,0.7-0.4,0.7-0.8c0-0.7,0-1.4-0.1-2.1c0-0.4-0.3-0.8-0.9-0.8s-0.9,0.3-0.9,0.8c0,0.7,0,1.4,0.1,2.1
				c0.1-0.3,0.3-0.4,0.7-0.8c-0.3,0.1-0.9,0-1.3-0.3c-0.3-0.1-0.7-0.1-1,0s-0.3,0.4-0.3,0.8c0.3,1.1,0,2.7-0.9,3.7
				c-0.3,0.3-0.3,0.8,0,1.1C835.5,242.7,836.1,242.7,836.3,242.5L836.3,242.5z"/>
		</g>
	</g>
	<g>
		<g>
			<path class="st7" d="M836.9,238.4c-0.1,0-0.6-0.1-0.7-0.1c0,0,0.1,0,0.1,0.1c-0.3-0.1-0.7-0.3-1-0.7l0.1,0.1
				c-0.3-0.3-0.7-0.4-0.9-0.8c-0.1-0.1-0.3-0.1-0.7-0.1c-0.1,0-0.6,0.1-0.7,0.1c-0.1,0.1-0.3,0.3-0.1,0.7c0,0.1,0.1,0.3,0.1,0.7
				c0.7,1,2,1.7,3.1,2c0.6,0.1,1-0.1,1-0.4C837.6,238.8,837.3,238.5,836.9,238.4L836.9,238.4z"/>
		</g>
	</g>
	<g>
		<g>
			<path class="st7" d="M838.3,238.2c-0.1,1.1,0,2.3,0.1,3.4c0.1,0.4,0.7,0.7,1,0.4c0.6-0.1,0.7-0.4,0.6-1c0-0.3-0.1-0.4-0.1-0.8
				c0,0,0,0,0-0.1c0,0,0,0,0,0.1v-0.1c0-0.1,0-0.3,0-0.3c0-0.4,0-1,0-1.7c0-0.1-0.1-0.4-0.1-0.7c-0.1-0.1-0.3-0.3-0.7-0.1
				c-0.1,0-0.6,0-0.7,0.1C838.5,237.7,838.3,237.9,838.3,238.2L838.3,238.2z"/>
		</g>
	</g>
	<g>
		<g>
			<path class="st7" d="M837.8,230c0.9-0.7,1.7-1.3,2.4-2c0.1-0.1,0.1-0.3,0.1-0.7c0-0.1-0.1-0.4-0.1-0.7c-0.1-0.1-0.3-0.3-0.7-0.1
				c-0.1,0-0.3,0.1-0.7,0.1c-0.9,0.7-1.7,1.3-2.4,2c-0.1,0.1-0.1,0.3-0.1,0.7c0,0.1,0.1,0.4,0.1,0.7c0.1,0.1,0.3,0.3,0.7,0.1
				C837.3,230.2,837.6,230.2,837.8,230L837.8,230z"/>
		</g>
	</g>
	<g>
		<g>
			<path class="st7" d="M839.6,222.7L839.6,222.7L839.6,222.7c0.3,0,0.3,0,0.6,0s0.3,0,0.6,0.1c0.3,0,0.7,0.1,1,0.3
				c0.1,0,0.3,0.1,0.6,0.1c0,0,0.3,0.1,0.1,0c0,0,0.1,0,0.1,0.1c0.3,0.1,0.7,0.3,1,0.4c0.3,0.1,1,0.1,1.3-0.3
				c0.1-0.3,0.1-0.8-0.3-1.1c-1.6-0.8-3.3-1.3-5.1-1.4c-0.6,0-0.9,0.4-0.9,0.8C838.8,222.2,839.2,222.7,839.6,222.7L839.6,222.7z"/>
		</g>
	</g>
	<g>
		<g>
			<path class="st7" d="M843.4,222.8c-0.1,0.7-0.6,1.4-0.7,2.1c-0.1,0.3,0.1,1,0.6,1c0.6,0.1,0.9-0.1,1-0.4c0.1-0.7,0.6-1.4,0.7-2.1
				c0.1-0.3-0.1-1-0.6-1C844.2,222.1,843.7,222.2,843.4,222.8L843.4,222.8z"/>
		</g>
	</g>
	<g>
		<g>
			<path class="st7" d="M843,222.8c0.9-0.4,1.7-1.1,2.4-1.8c0.3-0.3,0.3-0.8,0-1.1s-0.9-0.3-1.3,0c-0.3,0.3-0.7,0.7-1.3,1l0.1-0.1
				c-0.3,0.3-0.7,0.4-1.3,0.7c-0.3,0.1-0.6,0.8-0.3,1.1C842.2,222.8,842.6,223,843,222.8L843,222.8z"/>
		</g>
	</g>
	<ellipse class="st8" cx="851.8" cy="236.9" rx="4.7" ry="4.4"/>
</g>
<g>
	
		<linearGradient id="SVGID_00000122704570764861711820000013472680353998580100_" gradientUnits="userSpaceOnUse" x1="1215.5951" y1="755.2533" x2="1267.1871" y2="755.2533" gradientTransform="matrix(-7.746182e-02 0.4194 1.391 0.2569 -21.725 -492.9122)">
		<stop  offset="0" style="stop-color:#662D91"/>
		<stop  offset="0.4387" style="stop-color:#EDC7B2"/>
	</linearGradient>
	<path style="fill:url(#SVGID_00000122704570764861711820000013472680353998580100_);stroke:#EDC7B2;stroke-miterlimit:10;" d="
		M934.8,210.8c10.7,2,18.3,8.2,17.3,14.3c-1.3,5.9-10.7,9.3-21.5,7.3c-10.7-2-18.3-8.2-17.3-14.3
		C914.5,212.4,924.1,208.8,934.8,210.8z"/>
	<ellipse class="st5" cx="924" cy="233.8" rx="22.2" ry="14.4"/>
	<ellipse class="st6" cx="923.4" cy="237.4" rx="9.2" ry="10.9"/>
	<g>
		<g>
			<path class="st7" d="M905.7,226.1c-0.3,1.3-0.7,2.4-1,3.8c-0.1,0.7,0.7,1.3,1.3,1s1.3-0.3,1.7,0.1c0.6,0.3,0.7,1,0.7,1.7
				c0,0.4,0.6,0.8,0.9,0.8c0.6,0,0.9-0.3,0.9-0.8c0.1-1.1-0.6-2.4-1.4-3.1c-1-0.7-2.4-0.7-3.7-0.1c0.3,0.3,0.9,0.7,1.3,1
				c0.3-1.3,0.7-2.4,1-3.8C907.5,225.4,906,225.1,905.7,226.1L905.7,226.1z"/>
		</g>
	</g>
	<g>
		<g>
			<path class="st7" d="M944.7,237.4c-2-1.1-3.8-2.4-5.8-3.7c-0.3-0.1-1,0-1.3,0.3c-0.1,0.3,0,0.8,0.3,1.1c2,1.1,3.8,2.4,5.8,3.7
				c0.3,0.1,1,0,1.3-0.3C945.3,238.1,945,237.7,944.7,237.4L944.7,237.4z"/>
		</g>
	</g>
	<g>
		<g>
			<path class="st7" d="M938.6,236c-0.1,1-0.1,2-0.3,3c0,0.1,0.1,0.4,0.1,0.7c0.1,0.1,0.3,0.3,0.7,0.1c0.1,0,0.6,0,0.7-0.1
				s0.1-0.3,0.1-0.7c0.1-1,0.1-2,0.3-3c0-0.1-0.1-0.4-0.1-0.7c-0.1-0.1-0.3-0.3-0.7-0.1c-0.1,0-0.6,0-0.7,0.1
				C938.8,235.4,938.8,235.5,938.6,236L938.6,236z"/>
		</g>
	</g>
	<g>
		<g>
			<path class="st7" d="M941.8,237.2c0.7,0,1.4-0.1,2-0.4c0.7-0.3,1-0.7,1.6-1.3c0.1-0.1,0.1-0.4,0.1-0.7c0-0.1-0.1-0.3-0.3-0.4
				c-0.1-0.1-0.6-0.1-0.7-0.1s-0.3,0.1-0.6,0.3l0,0l0.1-0.1c-0.1,0.1-0.3,0.3-0.6,0.4l0.1-0.1c-0.1,0.1-0.6,0.3-0.7,0.3
				c0,0,0.1,0,0.1-0.1c-0.3,0.1-0.6,0.1-0.9,0.1h0.1c-0.1,0-0.3,0-0.6,0c-0.6,0-0.9,0.3-0.9,0.8
				C940.9,236.9,941.2,237.2,941.8,237.2L941.8,237.2z"/>
		</g>
	</g>
	<g>
		<g>
			<path class="st7" d="M932.7,221.5c0,0.3-0.1,0.8-0.1,1.3c-0.1,0.4-0.1,0.8-0.3,1.3c-0.3,0.8-0.7,1.7-1.3,2.3
				c-0.1,0.3-0.1,0.8,0.3,1.1c0.3,0.1,0.9,0.1,1.3-0.3c1-1.8,1.7-3.8,2-5.8c0-0.4-0.6-0.8-0.9-0.8
				C933.1,220.8,932.7,221.1,932.7,221.5L932.7,221.5z"/>
		</g>
	</g>
	<g>
		<g>
			<path class="st7" d="M929.2,224.1c0.6,0.3,1,0.8,1.6,1.1c0,0,0.1,0.1,0.3,0.1c0.1,0,0.1,0,0.3,0c0.1,0,0.6-0.1,0.7-0.1
				c0.1-0.1,0.3-0.3,0.1-0.7c0-0.1,0-0.4-0.1-0.7c-0.6-0.3-1-0.8-1.6-1.1c0,0-0.1-0.1-0.3-0.1c-0.1,0-0.1,0-0.3,0
				c-0.1,0-0.6,0.1-0.7,0.1c-0.1,0.1-0.3,0.3-0.1,0.7C929,223.8,929,223.9,929.2,224.1L929.2,224.1z"/>
		</g>
	</g>
	<g>
		<g>
			<path class="st7" d="M931.8,225.9c0.6,1,1,2.1,1.6,3.1c0.1,0.3,0.9,0.4,1.3,0.3c0.3-0.3,0.6-0.7,0.3-1.1c-0.6-1-1-2.1-1.6-3.1
				c-0.1-0.3-0.9-0.4-1.3-0.3C931.8,224.9,931.7,225.4,931.8,225.9L931.8,225.9z"/>
		</g>
	</g>
	<g>
		<g>
			<path class="st7" d="M933.1,224.6c1,0.4,2.3,1,3.3,1.4c0.1,0.1,0.3,0.1,0.7,0.1c0.1,0,0.3-0.1,0.6-0.3c0.1-0.3,0.1-1-0.3-1.1
				c-1-0.4-2.3-1-3.3-1.4c-0.1-0.1-0.3-0.1-0.7-0.1c-0.1,0-0.3,0.1-0.6,0.3C932.5,223.9,932.5,224.4,933.1,224.6L933.1,224.6z"/>
		</g>
	</g>
	<g>
		<g>
			<path class="st7" d="M908.4,243.4c1.3-1.4,1.7-3.3,1.4-5.1c-0.3,0.3-0.9,0.7-1.3,1c0.7,0.4,1.7,0.7,2.6,0.4
				c0.3,0,0.7-0.4,0.7-0.8c0-0.7,0-1.4-0.1-2.1c0-0.4-0.3-0.8-0.9-0.8c-0.6,0-0.9,0.3-0.9,0.8c0,0.7,0,1.4,0.1,2.1
				c0.1-0.3,0.3-0.4,0.7-0.8c-0.3,0.1-0.9,0-1.3-0.3c-0.3-0.1-0.7-0.1-1,0s-0.3,0.4-0.3,0.8c0.3,1.1,0,2.7-0.9,3.7
				c-0.3,0.3-0.3,0.8,0,1.1C907.4,243.7,908.1,243.7,908.4,243.4L908.4,243.4z"/>
		</g>
	</g>
	<g>
		<g>
			<path class="st7" d="M908.9,239.3c-0.1,0-0.6-0.1-0.7-0.1c0,0,0.1,0,0.1,0.1c-0.3-0.1-0.7-0.3-1-0.7l0.1,0.1
				c-0.3-0.3-0.7-0.4-0.9-0.8c-0.1-0.1-0.3-0.1-0.7-0.1c-0.1,0-0.6,0.1-0.7,0.1c-0.1,0.1-0.3,0.3-0.1,0.7c0,0.1,0.1,0.3,0.1,0.7
				c0.7,1,2,1.7,3.1,2c0.6,0.1,1-0.1,1-0.4C909.6,239.8,909.5,239.5,908.9,239.3L908.9,239.3z"/>
		</g>
	</g>
	<g>
		<g>
			<path class="st7" d="M910.4,239.2c-0.1,1.1,0,2.3,0.1,3.4c0.1,0.4,0.7,0.7,1,0.4c0.6-0.1,0.7-0.4,0.6-1c0-0.3-0.1-0.4-0.1-0.8
				c0,0,0,0,0-0.1c0,0,0,0,0,0.1V241c0-0.1,0-0.3,0-0.3c0-0.4,0-1,0-1.7c0-0.1-0.1-0.4-0.1-0.7c-0.1-0.1-0.3-0.3-0.7-0.1
				c-0.1,0-0.6,0-0.7,0.1C910.5,238.6,910.4,238.8,910.4,239.2L910.4,239.2z"/>
		</g>
	</g>
	<g>
		<g>
			<path class="st7" d="M909.8,231c0.9-0.7,1.7-1.3,2.4-2c0.1-0.1,0.1-0.3,0.1-0.7c0-0.1-0.1-0.4-0.1-0.7c-0.1-0.1-0.3-0.3-0.7-0.1
				c-0.1,0-0.3,0.1-0.7,0.1c-0.9,0.7-1.7,1.3-2.4,2c-0.1,0.1-0.1,0.3-0.1,0.7c0,0.1,0.1,0.4,0.1,0.7c0.1,0.1,0.3,0.3,0.7,0.1
				C909.5,231.2,909.6,231.2,909.8,231L909.8,231z"/>
		</g>
	</g>
	<g>
		<g>
			<path class="st7" d="M911.8,223.7L911.8,223.7L911.8,223.7c0.3,0,0.3,0,0.6,0s0.3,0,0.6,0.1c0.3,0,0.7,0.1,1,0.3
				c0.1,0,0.3,0.1,0.6,0.1c0,0,0.3,0.1,0.1,0c0,0,0.1,0,0.1,0.1c0.3,0.1,0.7,0.3,1,0.4c0.3,0.1,1,0.1,1.3-0.3
				c0.1-0.3,0.1-0.8-0.3-1.1c-1.6-0.8-3.3-1.3-5.1-1.4c-0.6,0-0.9,0.4-0.9,0.8C910.9,223.2,911.2,223.7,911.8,223.7L911.8,223.7z"/>
		</g>
	</g>
	<g>
		<g>
			<path class="st7" d="M915.6,223.8c-0.1,0.7-0.6,1.4-0.7,2.1c-0.1,0.3,0.1,1,0.6,1c0.6,0.1,0.9-0.1,1-0.4c0.1-0.7,0.6-1.4,0.7-2.1
				c0.1-0.3-0.1-1-0.6-1C916.3,223.1,915.8,223.2,915.6,223.8L915.6,223.8z"/>
		</g>
	</g>
	<g>
		<g>
			<path class="st7" d="M915,223.8c0.9-0.4,1.7-1.1,2.4-1.8c0.3-0.3,0.3-0.8,0-1.1s-0.9-0.3-1.3,0c-0.3,0.3-0.7,0.7-1.3,1l0.1-0.1
				c-0.3,0.3-0.7,0.4-1.3,0.7c-0.3,0.1-0.6,0.8-0.3,1.1C914.2,223.8,914.8,223.9,915,223.8L915,223.8z"/>
		</g>
	</g>
	<ellipse class="st8" cx="924" cy="237.9" rx="4.7" ry="4.4"/>
</g>
<g>
	<rect x="856.7" y="299.7" class="st5" width="70" height="17.8"/>
</g>
<line class="st10" x1="856.7" y1="308.7" x2="926.6" y2="308.7"/>
<line class="st10" x1="865.9" y1="299.7" x2="865.9" y2="308.7"/>
<line class="st10" x1="874" y1="299.7" x2="874" y2="308.7"/>
<line class="st10" x1="865.9" y1="308.7" x2="865.9" y2="317.5"/>
<line class="st10" x1="874" y1="308.7" x2="874" y2="317.5"/>
<line class="st10" x1="881.4" y1="299.7" x2="881.4" y2="317.5"/>
<line class="st10" x1="889.6" y1="299.7" x2="889.6" y2="317.5"/>
<line class="st10" x1="896.7" y1="299.7" x2="896.7" y2="317.5"/>
<line class="st10" x1="904" y1="299.7" x2="904" y2="317.5"/>
<line class="st10" x1="911.2" y1="299.7" x2="911.2" y2="317.5"/>
<line class="st10" x1="918.3" y1="299.7" x2="918.3" y2="317.5"/>
<g>
	<path class="st11" d="M801.7,516c-0.6,0.3-1,0.8-1.6,1.1c-29,62.2-44,70,7,132.3l-0.9-137.1C804.8,513.7,803.2,514.8,801.7,516z"/>
	<path class="st11" d="M1036.9,441l-0.1,0.1c-18.9-28-32-34.8-61.4-52.4l8.7,7.8l-10.5-6.1l-1.4,2.4v-4.5l3.1,0.8
		c-1.7-1.8-3.6-3.4-4.8-4.9c-3.6-2-7-3.8-10.8-5.1c-5.5-1.7-10.9-2.4-16.8-2.8c-2.6,0.7-5.8,1.3-9.4,2.1l6.3,1.7H930v2.7l-2.4-2.7
		l-52.1,53h-0.9l0.3-0.3l-2.8-3.3l-34.2-52.3l-5.5,3.8l-1.3-2.1l0.3-0.1c0-0.1-0.1-0.1-0.1-0.3c-2-0.4-3.7-0.8-5.4-1.1
		c-4.1,0.3-8.5,0.8-12.5,2c-7.7,2.1-15.1,5.4-22.2,8.9c0,0,0,0-0.1,0.1c-0.3,0.3-0.6,0.7-0.9,0.8l0.9-0.1
		c-30.5,18.4-43.5,25.2-63.5,56l63.5-56l1.4-0.3l-65.4,57.5V444c-20.7,25.2-32.8,32.7-21.2,49c2.4,2.7,4.8,5.2,7.1,7.9
		c0.9,1,1.7,2,2.4,2.8c0.6,0.4,1,1,1.6,1.4c0.1,0.1,0.1,0.1,0.3,0.3c1.4,1,2.8,2,4.1,3c1,0.1,2.1,0.4,3,1.3c0.3,0.3,0.7,0.7,1.3,1
		l0.1-11.2h0.1V511c0.9,0.7,1.6,1.4,2.4,2.1h2.1l-0.7,0.7l3.7,3.7c2,1.7,3.8,3.3,6,4.9l9.1-9.2h2.1l-9.9,10
		c4.7,3.8,9.4,7.3,14.5,10.9c0.1,0.1,0.3,0.3,0.6,0.3c0.1,0,0.1-0.1,0.3-0.1c5.1-1.3,9.1-4.2,13.2-7.3l0.3-0.3l0,0
		c1.6-1.1,3.1-2.3,4.8-3.4c1.3-0.7,2.3-1.4,3.6-2.1l10.2-7.8l-0.1-0.1h1.7c0.1-0.1,0.6-0.3,0.7-0.4c0.6-0.3,0.9-0.8,1.4-1.1
		c0.3-0.3,0.7-0.7,1.3-1c0.6-0.4,1.3-0.8,2-1c0.3-0.1,0.7-0.4,1-0.7c2-1.4,4.7-3.1,6.3-5.2c1-1.4,2.6-2.3,4.1-2.1l0.3-0.1v0.3
		c0.3,0.1,0.9,0.3,1.3,0.4c1.7,1.1,3,4,1.6,5.9c-0.9,1.1-1.7,2.1-2.8,3v138.2h151.9V649c54-66.1,33.1-70.8,0.6-145.4l-0.6,87.1
		v-90.5l33,26.7c0.7,0.1,1.4,0.4,1.7,1.1c1,1.1,3,2,4.4,3.3l0.1,0.1l0.3-0.4l11.5,8.6l1-1.3l0,0l28.6-25.4l-1-1.1
		c0.9-0.1,1.6-0.3,2.3-0.1c4.7-3.1,9.2-6.4,14.3-9.3c4.8-2.8,9.7-5.9,14.2-9.2L1036.9,441z M727.1,457.9v-3l2.4,3H727.1z
		 M762.3,513.8L762.3,513.8l0.5-0.1L762.3,513.8z M764.6,514.1l-0.7-0.7h1.4L764.6,514.1z M805.7,457.9h-1.4l1.4-1.3V457.9z
		 M797.6,388.9l-1-1.1l9.4-2.3L797.6,388.9z M825.8,381.8l-0.6-1.3l5.1-1.3L825.8,381.8z M947.9,433.1H947l0.9-0.8V433.1z
		 M943.5,382.7V381l6.4,1.7H943.5z M958.7,496.5v-1h0.7L958.7,496.5z M965.5,386.5l2.4,0.7v13.1l-2.4,4.4V386.5z M965.5,407.3
		l2.4,1.4v5.5l-2.4,2.7V407.3z M965.5,433.1v-7.8l2.4,2.7v3.4h3.3l1.7,1.7L965.5,433.1L965.5,433.1z M1001.6,412.5l-5.1-5.2l5.4,4.8
		L1001.6,412.5z M1018.9,527.4l1.7-2.4l3.6-2.1L1018.9,527.4z M1034.9,442.3l-23-21.5l23.9,21.1L1034.9,442.3z"/>
</g>
<rect x="820.7" y="485.1" class="st12" width="125.7" height="30.7"/>
<text transform="matrix(1.3237 0 0 1 829.7627 497.1992)" class="st13 st14">207583 Jail </text>
<text transform="matrix(1.3237 0 0 1 829.7627 511.4658)" class="st13 st14 st15"> </text>
<text transform="matrix(1.3237 0 0 1 877.0869 511.4658)" class="st13 st14">    Bird</text>
<g>
	<polygon class="st16" points="883.4,408.3 884.6,407 886.6,404.9 883.4,404.9 	"/>
	<polygon class="st16" points="855.5,386.2 855.5,384.9 854.8,384.9 	"/>
	<polygon class="st16" points="904,384.9 904,386.8 905.7,384.9 	"/>
	<polygon class="st16" points="870,408.5 870,404.9 867.5,404.9 	"/>
	<polygon class="st16" points="892.6,396.9 892.6,384.9 891.7,384.9 891.7,399.8 894.2,397.1 894.2,397.1 894.3,396.9 	"/>
	<path class="st17" d="M903.4,404.4l23.6-24.6l-6.4-5.8v-16.1h-75.2v14.6L837,377l17.3,28.8h-0.1l8.4,12.4l0,0l6.3,9.3l0,0l0.1,0.3
		l0.3,0.4l0,0l2.3,3l0,0l1.3,1.7l0,0l0.6,0.7l1.7-1.4l0,0l6.7-6.4l6.1-5.8l4.7-4.5l0,0l0.6-0.7l0.1-0.1l0,0L903.4,404.4L903.4,404.4
		z M904,384.9h1.6l-1.6,1.8V384.9z M855.5,386.2l-0.7-1.1h0.7V386.2z M870,408.5l-2.6-3.8h2.6V408.5z M884.6,407l-1.4,1.3v-3.4h3.3
		L884.6,407z M894.2,397.1l-2.4,2.7v-14.7h1v12h1.6H894.2L894.2,397.1z"/>
</g>
<g>
	<path class="st17" d="M905.8,358.1c-24.4-3-26.1-3-50.6,0c-0.3-0.7-0.6-1.4-0.9-2.1c25.1-3,27-2.8,52.1,0
		C906.4,356.7,906.2,357.2,905.8,358.1z"/>
</g>
<g>
	<path class="st18" d="M747,639.1c-0.7,0-3.1,0-4,0.1c-2.3-3.7-4.1-5.5-7.4-9.2c-2.4-2.8-6.4-8.2-11.2-8.9c-0.1,0-2-0.1-2.6,0
		c-0.3,0.1-2.1,0.4-2.1-0.3c-4.1-16.4-9.1-63.9,4.1-73.9c13.1-10,12.8-7.5,23.9-14.6c-13.2-13.4-25.4-27.4-42.8-36.2
		c-10.8,6.4-25.7,26.4-29,34.9c-13.9,35.6-3.7,67.1,18,95.1c-1,0.4-3,1.3-3.8,2.4c-1.4,2-2.8,5.5-3.3,7.3c-0.6,2,0.1,4.9,0.3,5.8
		c1.3,5.8,1.6,10,2.6,15.4c-2.1,1.4-4.5,4.5-5.4,6.8c-1.4,3.7-3.1,10.6,1,12.4c4.1,1.8,7.4-5.9,8.5-8.6c0.1-0.3,0.6-1.4,0.7-1.8
		c2.1,2.3,4.1,3.8,7.1,4.9c-0.3,1.3-0.9,4.9-0.9,6.1c0,3.8-0.6,14,4.7,14.3c5.1,0.3,5.4-10,5.5-13.6c0-1.1,0-4.5-0.1-6.1
		c0.9,0,2.8-0.8,3.3-0.8c1.6-0.3,2.3-0.1,3.7-0.3c-0.6,1.8-1,6.4-1,7.8c0,4-0.9,15.4,4.5,15.5c5.3,0.1,5.4-11.3,5.8-15.4
		c0.1-1.7-0.1-6.8-0.7-8.6c1.4-0.3,2.8-0.3,4.1-0.4c0.1,0,0.3-0.3,0.6-0.3c0,0.7,0.3,3.4,0.6,4c0.7,3.4,1.7,17.4,7.1,16.4
		c5.4-1,3.6-13.6,3-18.1c-0.1-1.7-1.4-6.8-2.4-8.5c1-1.4,1.3-1.4,2.4-3.3c1.7-3,3.3-7.1,3.6-10.9c0.3,0,1.4,0.1,1.6,0.1
		c3.3,0,11.6,0.4,11.9-4.1C758.9,640.1,750.7,639.5,747,639.1z"/>
</g>
<g>
	<path class="st18" d="M1019,637.2c0.7,0,3.1,0.1,4,0.3c2.4-3.4,4.4-5.5,7.7-8.9c2.6-2.7,6.8-8.1,11.5-8.3c0.1,0,2,0,2.6,0.1
		c0.3,0.1,2.1,0.7,2.1-0.1c4.8-16.3,11.5-63.6-1.3-74.1s-12.4-8.1-23.2-15.4c13.8-13,26.6-26.4,44.2-34.6
		c10.5,6.8,24.6,27.3,27.7,35.9c12.5,36,1,67.1-21.6,94.4c1,0.4,3,1.4,3.7,2.7c1.4,2,2.6,5.5,3,7.5c0.6,2-0.3,4.9-0.7,5.8
		c-1.4,5.8-2,10-3.3,15.4c2,1.4,4.4,4.8,5.1,6.9c1.3,3.8,2.8,10.9-1.6,12.4c-4.4,1.7-7-6.2-8.2-9c-0.1-0.3-0.6-1.4-0.6-1.8
		c-2.1,2.1-4.4,3.7-7.4,4.5c0.3,1.4,0.7,4.9,0.7,6.1c-0.1,3.8-0.1,14-5.3,14.1c-5.1,0.1-4.8-10.2-5.1-13.7c0-1.1,0.1-4.5,0.6-6.1
		c-0.9,0-2.8-0.8-3.3-1c-1.6-0.3-2.3-0.3-3.7-0.3c0.6,1.8,0.9,6.4,0.7,7.8c-0.1,4,0.1,15.4-5.1,15.4s-5.1-11.4-5.1-15.5
		c0-1.7,0.3-6.8,1-8.6c-1.4-0.3-2.8-0.3-4.1-0.7c-0.1,0-0.3-0.3-0.6-0.3c-0.1,0.7-0.6,3.4-0.7,4c-0.9,3.4-2.3,17.2-7.8,16.1
		c-5.4-1.1-3-13.7-2.3-18.2c0.3-1.7,1.7-6.5,2.8-8.5c-1-1.7-1.3-1.4-2.3-3.3c-1.7-3-3.1-7.2-3.1-11c-0.3,0-1.4,0.1-1.6,0.1
		c-3.3-0.1-11.6,0-11.6-4.5C1007.2,637.8,1015.5,637.4,1019,637.2z"/>
</g>
<g>
	<g>
		<path class="st3" d="M878.5,371.5c1,0,1-1.7,0-1.7S877.5,371.5,878.5,371.5L878.5,371.5z"/>
	</g>
</g>
<g>
	<g>
		<path class="st3" d="M898.3,373.9c1,0,1-1.7,0-1.7C897.3,372.4,897.3,373.9,898.3,373.9L898.3,373.9z"/>
	</g>
</g>
<g>
	<g>
		<path class="st3" d="M891.2,363.2c1,0,1-1.7,0-1.7S890,363.2,891.2,363.2L891.2,363.2z"/>
	</g>
</g>
<g>
	<g>
		<path class="st3" d="M882.2,359.8c1,0,1-1.7,0-1.7C881.1,358.1,881.1,359.8,882.2,359.8L882.2,359.8z"/>
	</g>
</g>
<g>
	<g>
		<path class="st3" d="M864.5,362.9c1,0,1-1.7,0-1.7C863.2,361.2,863.2,362.9,864.5,362.9L864.5,362.9z"/>
	</g>
</g>
<g>
	<g>
		<path class="st3" d="M864.8,375.7c1,0,1-1.7,0-1.7C863.6,374.2,863.6,375.7,864.8,375.7L864.8,375.7z"/>
	</g>
</g>
<g>
	<g>
		<path class="st3" d="M856.9,368.4c1,0,1-1.7,0-1.7C855.9,366.7,855.9,368.4,856.9,368.4L856.9,368.4z"/>
	</g>
</g>
<g>
	<g>
		<path class="st3" d="M851.7,358.1c1,0,1-1.7,0-1.7S850.7,358.1,851.7,358.1L851.7,358.1z"/>
	</g>
</g>
<g>
	<g>
		<path class="st3" d="M857.9,360.1c1,0,1-1.7,0-1.7C856.8,358.4,856.8,360.1,857.9,360.1L857.9,360.1z"/>
	</g>
</g>
<g>
	<g>
		<path class="st3" d="M862.2,369.8c1,0,1-1.7,0-1.7C860.9,368.3,860.9,369.8,862.2,369.8L862.2,369.8z"/>
	</g>
</g>
<g>
	<g>
		<path class="st3" d="M877.7,367.4c1,0,1-1.7,0-1.7C876.5,365.7,876.5,367.4,877.7,367.4L877.7,367.4z"/>
	</g>
</g>
<g>
	<g>
		<path class="st3" d="M870.6,368.4c1,0,1-1.7,0-1.7C869.3,366.7,869.3,368.4,870.6,368.4L870.6,368.4z"/>
	</g>
</g>
<g>
	<g>
		<path class="st3" d="M870.9,361.2c1,0,1-1.7,0-1.7C869.7,359.5,869.7,361.2,870.9,361.2L870.9,361.2z"/>
	</g>
</g>
<g>
	<g>
		<path class="st3" d="M897.6,362.9c1,0,1-1.7,0-1.7S896.6,362.9,897.6,362.9L897.6,362.9z"/>
	</g>
</g>
<g>
	<g>
		<path class="st3" d="M910.6,367.4c1,0,1-1.7,0-1.7C909.5,365.7,909.5,367.4,910.6,367.4L910.6,367.4z"/>
	</g>
</g>
<g>
	<g>
		<path class="st3" d="M916.2,365.3c1,0,1-1.7,0-1.7C915,363.6,915,365.3,916.2,365.3L916.2,365.3z"/>
	</g>
</g>
<g>
	<g>
		<path class="st3" d="M915.8,375.3c1,0,1-1.7,0-1.7S914.8,375.3,915.8,375.3L915.8,375.3z"/>
	</g>
</g>
<g>
	<g>
		<path class="st3" d="M896.7,373.1c1,0,1-1.7,0-1.7C895.6,371.4,895.6,373.1,896.7,373.1L896.7,373.1z"/>
	</g>
</g>
<g>
	<g>
		<path class="st3" d="M887.3,370.8c1,0,1-1.7,0-1.7C886.2,369.2,886.2,370.8,887.3,370.8L887.3,370.8z"/>
	</g>
</g>
<g>
	<g>
		<path class="st3" d="M897.1,365.3c1,0,1-1.7,0-1.7C895.9,363.6,895.9,365.3,897.1,365.3L897.1,365.3z"/>
	</g>
</g>
<g>
	<g>
		<path class="st3" d="M902.8,363.6c1,0,1-1.7,0-1.7S901.8,363.6,902.8,363.6L902.8,363.6z"/>
	</g>
</g>
<g>
	<g>
		<path class="st3" d="M902,359.4c1,0,1-1.7,0-1.7C900.7,357.8,900.7,359.4,902,359.4L902,359.4z"/>
	</g>
</g>
<g>
	<g>
		<path class="st3" d="M872.4,356.7c1,0,1-1.7,0-1.7S871.4,356.7,872.4,356.7L872.4,356.7z"/>
	</g>
</g>
<g>
	<g>
		<path class="st3" d="M881.5,365.3c1,0,1-1.7,0-1.7C880.4,363.6,880.4,365.3,881.5,365.3L881.5,365.3z"/>
	</g>
</g>
<g>
	<g>
		<path class="st3" d="M857.6,369.5c1,0,1-1.7,0-1.7C856.4,368,856.4,369.5,857.6,369.5L857.6,369.5z"/>
	</g>
</g>
<g>
	<g>
		<path class="st3" d="M888.8,373.6c1,0,1-1.7,0-1.7C887.5,372.1,887.5,373.6,888.8,373.6L888.8,373.6z"/>
	</g>
</g>
<g>
	<g>
		<path class="st3" d="M851,370.8c1,0,1-1.7,0-1.7C849.8,369.2,849.8,370.8,851,370.8L851,370.8z"/>
	</g>
</g>
<g>
	<g>
		<path class="st3" d="M848,363.6c1,0,1-1.7,0-1.7C847,362,847,363.6,848,363.6L848,363.6z"/>
	</g>
</g>
<g>
	<g>
		<path class="st3" d="M919.6,370.2c1,0,1-1.7,0-1.7C918.3,368.5,918.3,370.2,919.6,370.2L919.6,370.2z"/>
	</g>
</g>
<g>
	<g>
		<path class="st3" d="M905.1,372.1c1,0,1-1.7,0-1.7S904.1,372.1,905.1,372.1L905.1,372.1z"/>
	</g>
</g>
<g>
	<path class="st19" d="M865,412.8c6.3,8.9-0.6,6.9-2.3,9.3"/>
</g>
<g>
	<path class="st19" d="M871.7,422.4c6.3,8.9-0.6,6.9-2.3,9.3"/>
</g>
<g>
	<path class="st19" d="M867.6,422.4c4.7,5.4-0.1,4.1-1.3,5.4"/>
</g>
<g>
	<path class="st19" d="M880.1,418.9c-6.3,8.9,0.6,6.9,2.3,9.3"/>
</g>
<g>
	<path class="st19" d="M885.6,415.2c-3.7,7.2,0.9,5.9,2.1,8.1"/>
</g>
<g>
	<path class="st19" d="M890.7,420c-1.7-6.4,1.6-5.1,2.8-6.9"/>
</g>
<g>
	<path class="st11" d="M959.2,706.5c-0.9-2.8-1.7-5.1-2.8-7.1v-49.9H805.1v60.8c-0.1,1-0.6,2.1-0.7,3.4
		c-11.9,72.4,0.7,104.7-26.4,179.8c-7.4,20.2,3.6,21.9,16.2,31.5c9.1,6.8,24.2,13,35.1,16.3c15.8,4.5,27.4,4.4,35.1-13
		c17.8-40.1,22.7-80.7,26.4-121.8c12.4,33.6,23.9,67.1,27.7,107.1c1.7,18.7,11.6,20.5,29,23.2c12.2,1.8,28.8,3.1,39.5,1
		c15.1-3.1,33.1-4,32.8-22.3C1018.3,847.1,978.4,772.1,959.2,706.5z"/>
</g>
<polygon class="st20" points="803,654.6 958.5,654.6 958.5,654.6 "/>
<ellipse transform="matrix(0.6932 -0.7208 0.7208 0.6932 -207.5807 833.4523)" class="st21" cx="875.1" cy="660.5" rx="7.1" ry="3.1"/>
<ellipse transform="matrix(0.7142 -0.6999 0.6999 0.7142 -208.2623 810.3829)" class="st22" cx="888.2" cy="660.2" rx="3.1" ry="7.1"/>
<g>
	<path class="st23" d="M880.1,660.3c4.1,18.2,6,8.2-3.6,22.6"/>
</g>
<g>
	<path class="st23" d="M889.9,672.9c-10.8-8.6-7.5-2.1-7.7-14.6"/>
</g>
<ellipse transform="matrix(6.376038e-02 -0.998 0.998 6.376038e-02 -218.3457 1674.8684)" class="st20" cx="783.5" cy="953.8" rx="34.3" ry="71.6"/>
<ellipse transform="matrix(0.1575 -0.9875 0.9875 0.1575 -109.0663 1788.0322)" class="st24" cx="993.4" cy="957.9" rx="33.2" ry="80"/>
<g>
	
		<ellipse transform="matrix(0.3325 -0.9431 0.9431 0.3325 322.0448 1018.6094)" class="st25" cx="880.6" cy="281.8" rx="2" ry="5.8"/>
	<ellipse transform="matrix(0.9527 -0.304 0.304 0.9527 -43.1583 285.9563)" class="st26" cx="896.8" cy="281.6" rx="6.2" ry="2"/>
	<path class="st27" d="M909.8,275.4c-9.8,11.3-27.6,12.6-39.6,3.1"/>
	<line class="st27" x1="870.1" y1="278.9" x2="878.4" y2="253.1"/>
	<line class="st27" x1="909.4" y1="276" x2="896.9" y2="253.1"/>
</g>
<g>
	<g class="st28">
		<path class="st10" d="M831.8,179.7c59,25.9,60.4,25.4,117.3-1.8"/>
	</g>
	<line class="st10" x1="888.5" y1="210.9" x2="888.5" y2="227.9"/>
	<line class="st27" x1="894.6" y1="211.5" x2="902.8" y2="203.6"/>
	<line class="st27" x1="881.4" y1="211.5" x2="874" y2="203.6"/>
	<g class="st28">
		<path class="st10" d="M853.4,178.1c39.5,20.4,37.6,18.5,76.6-0.7"/>
	</g>
	<g class="st28">
		<path class="st10" d="M865.3,173.5c24.2,16.4,24.7,13.1,49.4,0.7"/>
	</g>
</g>
<g>
	<path class="st3" d="M1005.5,172.6c-12.8-17.2-9.4-18.2-37.4-22.6H968c-2.6-0.8-6.7,1.7-9.1,5.4c-2.4,3.8-2.4,7.5,0.1,8.3
		c0.7,0.1,1.6,0.1,2.4,0c7.8,0.7,14.2,3.3,16.8,9c2.3,4.8,0,8.9-4,12.7c2.4,1.8,5.1,3.3,7.7,4.9c0-2.4,0-4.9,0.1-7.5
		c3,1.3,6.1,2.4,9.2,3.7c-3.1-12.6-2.3-19.6-18.3-27c5.5,0,10.5,0.7,14.6,3.7c5.1,3.8,5.8,8.3,4.4,13.3c3.6,0.7,7,1.3,10.5,1.8
		c-1.6-2.1-3.1-4.4-4.5-6.5C1000.4,172.1,1002.8,172.5,1005.5,172.6z M982.8,169.1c3.3,4.1,2.8,9.2-0.7,13.4
		c0.6-9.9,1.7-11.9-8.7-19.1C977.4,164.7,980.7,166.7,982.8,169.1z M970.7,155.4c6.7-1.4,13.9-0.7,18.9,2.7c3.8,2.4,6,6.1,5.8,9.9
		C990.6,160.3,989.1,158.5,970.7,155.4z"/>
</g>
<g>
	<path class="st3" d="M773.1,173.8c-1.4,2.3-3,4.4-4.5,6.5c3.6-0.4,7-1.1,10.5-1.8c-1.4-4.9-0.7-9.5,4.4-13.3c4-3,9.1-3.7,14.6-3.7
		c-16.1,7.3-15.2,14.3-18.3,27c3.1-1.1,6.3-2.3,9.2-3.7c0.1,2.4,0.1,4.9,0.1,7.5c2.6-1.7,5.3-3.1,7.7-4.9c-4-4-6.3-8.1-4-12.7
		c2.6-5.5,9-8.3,16.8-9c0.9,0.1,1.7,0.3,2.4,0c2.6-0.8,2.6-4.5,0.1-8.3c-2.4-3.8-6.4-6.2-9.1-5.4l0,0c-28,4.4-24.6,5.4-37.4,22.6
		C768.1,174.5,770.6,174,773.1,173.8z M797.6,165.7c-10.2,7.2-9.1,9.3-8.7,19.1c-3.7-4.2-4-9.3-0.7-13.4
		C790.3,168.7,793.6,166.7,797.6,165.7z M775.7,169.9c0-3.8,2-7.3,5.8-9.9c4.8-3.1,12.2-4.1,18.9-2.7
		C781.9,160.6,780.4,162.3,775.7,169.9z"/>
</g>
<g>
	<g>
		<path class="st3" d="M831.1,315.1c1,0,1-1.7,0-1.7C829.9,313.4,829.9,315.1,831.1,315.1L831.1,315.1z"/>
	</g>
</g>
<g>
	<g>
		<path class="st3" d="M833.1,327.7c1,0,1-1.7,0-1.7S831.9,327.7,833.1,327.7L833.1,327.7z"/>
	</g>
</g>
<g>
	<g>
		<path class="st3" d="M823.4,326.4c1,0,1-1.7,0-1.7C822.4,324.7,822.4,326.4,823.4,326.4L823.4,326.4z"/>
	</g>
</g>
<g>
	<g>
		<path class="st3" d="M838.6,323.2c1,0,1-1.7,0-1.7C837.3,321.5,837.3,323.2,838.6,323.2L838.6,323.2z"/>
	</g>
</g>
<g>
	<g>
		<path class="st3" d="M826.3,321.9c1,0,1-1.7,0-1.7C825.1,320.2,825.1,321.9,826.3,321.9L826.3,321.9z"/>
	</g>
</g>
<g>
	<g>
		<path class="st3" d="M814.6,307.2c1,0,1-1.7,0-1.7C813.5,305.6,813.5,307.2,814.6,307.2L814.6,307.2z"/>
	</g>
</g>
<g>
	<g>
		<path class="st3" d="M839.3,304.7c1,0,1-1.7,0-1.7C838,303,838,304.7,839.3,304.7L839.3,304.7z"/>
	</g>
</g>
<g>
	<g>
		<path class="st3" d="M827.7,304.7c1,0,1-1.7,0-1.7C826.5,303,826.5,304.7,827.7,304.7L827.7,304.7z"/>
	</g>
</g>
<g>
	<g>
		<path class="st3" d="M822.3,304.7c1,0,1-1.7,0-1.7C821,303,821,304.7,822.3,304.7L822.3,304.7z"/>
	</g>
</g>
<g>
	<g>
		<path class="st3" d="M833.1,309.9c1,0,1-1.7,0-1.7C832.1,308.2,831.9,309.9,833.1,309.9L833.1,309.9z"/>
	</g>
</g>
<g>
	<g>
		<path class="st3" d="M833.1,309.9c1,0,1-1.7,0-1.7C832.1,308.2,831.9,309.9,833.1,309.9L833.1,309.9z"/>
	</g>
</g>
<g>
	<g>
		<path class="st3" d="M840,317.9c1,0,1-1.7,0-1.7C838.8,316.2,838.8,317.9,840,317.9L840,317.9z"/>
	</g>
</g>
<g>
	<g>
		<path class="st3" d="M841.9,319.9c1,0,1-1.7,0-1.7C840.9,318.2,840.9,319.9,841.9,319.9L841.9,319.9z"/>
	</g>
</g>
<g>
	<g>
		<path class="st3" d="M835.2,335.6c1,0,1-1.7,0-1.7C834.1,333.9,834.1,335.6,835.2,335.6L835.2,335.6z"/>
	</g>
</g>
<g>
	<g>
		<path class="st3" d="M821.6,334.9c1,0,1-1.7,0-1.7C820.3,333.3,820.3,334.9,821.6,334.9L821.6,334.9z"/>
	</g>
</g>
<g>
	<g>
		<path class="st3" d="M815.9,319.9c1,0,1-1.7,0-1.7C814.9,318.2,814.9,319.9,815.9,319.9L815.9,319.9z"/>
	</g>
</g>
<g>
	<g>
		<path class="st3" d="M810.5,317.9c1,0,1-1.7,0-1.7C809.5,316.2,809.3,317.9,810.5,317.9L810.5,317.9z"/>
	</g>
</g>
<g>
	<g>
		<path class="st3" d="M835.8,342.1c1,0,1-1.7,0-1.7C834.8,340.6,834.8,342.1,835.8,342.1L835.8,342.1z"/>
	</g>
</g>
<g>
	<g>
		<path class="st3" d="M833.1,344.8c1,0,1-1.7,0-1.7C832.1,343.1,831.9,344.8,833.1,344.8L833.1,344.8z"/>
	</g>
</g>
<g>
	<g>
		<path class="st3" d="M831.8,352.1c1,0,1-1.7,0-1.7C830.7,350.6,830.7,352.1,831.8,352.1L831.8,352.1z"/>
	</g>
</g>
<g>
	<g>
		<path class="st3" d="M827.7,346.1c1,0,1-1.7,0-1.7C826.5,344.5,826.5,346.1,827.7,346.1L827.7,346.1z"/>
	</g>
</g>
<g>
	<g>
		<path class="st3" d="M823.4,346.1c1,0,1-1.7,0-1.7S822.4,346.1,823.4,346.1L823.4,346.1z"/>
	</g>
</g>
<g>
	<g>
		<path class="st3" d="M827,340.8c1,0,1-1.7,0-1.7C826,339.1,825.8,340.8,827,340.8L827,340.8z"/>
	</g>
</g>
<g>
	<g>
		<path class="st3" d="M827,334.9c1,0,1-1.7,0-1.7C826,333.2,825.8,334.9,827,334.9L827,334.9z"/>
	</g>
</g>
<g>
	<g>
		<path class="st3" d="M828.4,326.4c1,0,1-1.7,0-1.7C827.4,324.7,827.2,326.4,828.4,326.4L828.4,326.4z"/>
	</g>
</g>
<g>
	<g>
		<path class="st3" d="M822.3,317.2c1,0,1-1.7,0-1.7C821,315.5,821,317.2,822.3,317.2L822.3,317.2z"/>
	</g>
</g>
<g>
	<g>
		<path class="st3" d="M817.3,312.4c1,0,1-1.7,0-1.7C816.3,310.7,816.3,312.4,817.3,312.4L817.3,312.4z"/>
	</g>
</g>
<g>
	<g>
		<path class="st3" d="M827.7,312.4c1,0,1-1.7,0-1.7C826.5,310.9,826.5,312.4,827.7,312.4L827.7,312.4z"/>
	</g>
</g>
<g>
	<g>
		<path class="st3" d="M866,336.9c1,0,1-1.7,0-1.7C864.8,335.3,864.8,336.9,866,336.9L866,336.9z"/>
	</g>
</g>
<g>
	<g>
		<path class="st3" d="M859.2,327.1c1,0,1-1.7,0-1.7C857.9,325.4,857.9,327.1,859.2,327.1L859.2,327.1z"/>
	</g>
</g>
<g>
	<g>
		<path class="st3" d="M854.4,335.6c1,0,1-1.7,0-1.7S853.2,335.6,854.4,335.6L854.4,335.6z"/>
	</g>
</g>
<g>
	<g>
		<path class="st3" d="M852.2,335.6c1,0,1-1.7,0-1.7S851.3,335.6,852.2,335.6L852.2,335.6z"/>
	</g>
</g>
<g>
	<g>
		<path class="st3" d="M852.2,335.6c1,0,1-1.7,0-1.7S851.3,335.6,852.2,335.6L852.2,335.6z"/>
	</g>
</g>
<g>
	<g>
		<path class="st3" d="M855.1,346.8c1,0,1-1.7,0-1.7C854,345.1,854,346.8,855.1,346.8L855.1,346.8z"/>
	</g>
</g>
<g>
	<g>
		<path class="st3" d="M844.7,340.8c1,0,1-1.7,0-1.7C843.7,339.3,843.7,340.8,844.7,340.8L844.7,340.8z"/>
	</g>
</g>
<g>
	<g>
		<path class="st3" d="M840.7,333.6c1,0,1-1.7,0-1.7C839.5,331.9,839.5,333.6,840.7,333.6L840.7,333.6z"/>
	</g>
</g>
<g>
	<g>
		<path class="st3" d="M852.2,326.4c1,0,1-1.7,0-1.7S851.3,326.4,852.2,326.4L852.2,326.4z"/>
	</g>
</g>
<g>
	<g>
		<path class="st3" d="M847.6,329.7c1,0,1-1.7,0-1.7C846.3,328.1,846.3,329.7,847.6,329.7L847.6,329.7z"/>
	</g>
</g>
<g>
	<g>
		<path class="st3" d="M845.4,320.5c1,0,1-1.7,0-1.7C844.4,318.9,844.4,320.5,845.4,320.5L845.4,320.5z"/>
	</g>
</g>
<g>
	<g>
		<path class="st3" d="M845.4,308.6c1,0,1-1.7,0-1.7S844.4,308.6,845.4,308.6L845.4,308.6z"/>
	</g>
</g>
<g>
	<g>
		<path class="st3" d="M844,313.8c1,0,1-1.7,0-1.7S843,313.8,844,313.8L844,313.8z"/>
	</g>
</g>
<g>
	<g>
		<path class="st3" d="M861.8,344.8c1,0,1-1.7,0-1.7S860.8,344.8,861.8,344.8L861.8,344.8z"/>
	</g>
</g>
<g>
	<g>
		<path class="st3" d="M859.1,338.7c1,0,1-1.7,0-1.7C857.9,337,857.9,338.7,859.1,338.7L859.1,338.7z"/>
	</g>
</g>
<g>
	<g>
		<path class="st3" d="M865.2,329.4c1,0,1-1.7,0-1.7C864,327.7,864,329.4,865.2,329.4L865.2,329.4z"/>
	</g>
</g>
<g>
	<g>
		<path class="st3" d="M873.4,337.4c1,0,1-1.7,0-1.7C872.1,335.7,872.1,337.4,873.4,337.4L873.4,337.4z"/>
	</g>
</g>
<g>
	<g>
		<path class="st3" d="M886.6,335.2c1,0,1-1.7,0-1.7C885.4,333.5,885.4,335.2,886.6,335.2L886.6,335.2z"/>
	</g>
</g>
<g>
	<g>
		<path class="st3" d="M902.8,342.1c1,0,1-1.7,0-1.7C901.7,340.6,901.7,342.1,902.8,342.1L902.8,342.1z"/>
	</g>
</g>
<g>
	<g>
		<path class="st3" d="M886.9,342.5c1,0,1-1.7,0-1.7C885.8,340.8,885.8,342.5,886.9,342.5L886.9,342.5z"/>
	</g>
</g>
<g>
	<g>
		<path class="st3" d="M882.9,338.3c1,0,1-1.7,0-1.7C881.9,336.6,881.9,338.3,882.9,338.3L882.9,338.3z"/>
	</g>
</g>
<g>
	<g>
		<path class="st3" d="M882.4,340c1,0,1-1.7,0-1.7C881.2,338.4,881.2,340,882.4,340L882.4,340z"/>
	</g>
</g>
<g>
	<g>
		<path class="st3" d="M879.1,344.5c1,0,1-1.7,0-1.7S878.1,344.5,879.1,344.5L879.1,344.5z"/>
	</g>
</g>
<g>
	<g>
		<path class="st3" d="M872.7,342.8c1,0,1-1.7,0-1.7C871.6,341.1,871.6,342.8,872.7,342.8L872.7,342.8z"/>
	</g>
</g>
<g>
	<g>
		<path class="st3" d="M870.7,346.2c1,0,1-1.7,0-1.7C869.6,344.7,869.6,346.2,870.7,346.2L870.7,346.2z"/>
	</g>
</g>
<g>
	<g>
		<path class="st3" d="M866.9,347.6c1,0,1-1.7,0-1.7C865.6,345.9,865.6,347.6,866.9,347.6L866.9,347.6z"/>
	</g>
</g>
<g>
	<g>
		<path class="st3" d="M865.9,342.8c1,0,1-1.7,0-1.7C864.9,341.1,864.8,342.8,865.9,342.8L865.9,342.8z"/>
	</g>
</g>
<g>
	<g>
		<path class="st3" d="M847.7,350.7c1,0,1-1.7,0-1.7S846.7,350.7,847.7,350.7L847.7,350.7z"/>
	</g>
</g>
<g>
	<g>
		<path class="st3" d="M842.4,348.3c1,0,1-1.7,0-1.7C841.5,346.8,841.5,348.3,842.4,348.3L842.4,348.3z"/>
	</g>
</g>
<g>
	<g>
		<path class="st3" d="M847.4,343.5c1,0,1-1.7,0-1.7S846.3,343.5,847.4,343.5L847.4,343.5z"/>
	</g>
</g>
<g>
	<g>
		<path class="st3" d="M836.1,352.1c1,0,1-1.7,0-1.7S834.9,352.1,836.1,352.1L836.1,352.1z"/>
	</g>
</g>
<g>
	<g>
		<path class="st3" d="M835.6,356c1,0,1-1.7,0-1.7S834.6,356,835.6,356L835.6,356z"/>
	</g>
</g>
<g>
	<g>
		<path class="st3" d="M824.5,352.8c1,0,1-1.7,0-1.7C823.3,351.2,823.3,352.8,824.5,352.8L824.5,352.8z"/>
	</g>
</g>
<g>
	<g>
		<path class="st3" d="M892,349.7c1,0,1-1.7,0-1.7S891,349.7,892,349.7L892,349.7z"/>
	</g>
</g>
<g>
	<g>
		<path class="st3" d="M857.1,353.1c1,0,1-1.7,0-1.7S856.1,353.1,857.1,353.1L857.1,353.1z"/>
	</g>
</g>
<g>
	<g>
		<path class="st3" d="M847,355.7c1,0,1-1.7,0-1.7S846,355.7,847,355.7L847,355.7z"/>
	</g>
</g>
<g>
	<g>
		<path class="st3" d="M827,359.1c1,0,1-1.7,0-1.7S825.8,359.1,827,359.1L827,359.1z"/>
	</g>
</g>
<g>
	<g>
		<path class="st3" d="M895.3,332.8c1,0,1-1.7,0-1.7S894.3,332.8,895.3,332.8L895.3,332.8z"/>
	</g>
</g>
<g>
	<g>
		<path class="st3" d="M885.6,327.8c1,0,1-1.7,0-1.7S884.5,327.8,885.6,327.8L885.6,327.8z"/>
	</g>
</g>
<g>
	<g>
		<path class="st3" d="M876,325.7c1,0,1-1.7,0-1.7C874.7,324.2,874.7,325.7,876,325.7L876,325.7z"/>
	</g>
</g>
<g>
	<g>
		<path class="st3" d="M880.1,331.4c1,0,1-1.7,0-1.7C879,329.7,879,331.4,880.1,331.4L880.1,331.4z"/>
	</g>
</g>
<g>
	<g>
		<path class="st3" d="M907.1,330.4c1,0,1-1.7,0-1.7C905.8,328.7,905.8,330.4,907.1,330.4L907.1,330.4z"/>
	</g>
</g>
<g>
	<g>
		<path class="st3" d="M918.9,342.1c1,0,1-1.7,0-1.7S917.9,342.1,918.9,342.1L918.9,342.1z"/>
	</g>
</g>
<g>
	<g>
		<path class="st3" d="M918.9,342.1c1,0,1-1.7,0-1.7S917.9,342.1,918.9,342.1L918.9,342.1z"/>
	</g>
</g>
<g>
	<g>
		<path class="st3" d="M934.8,333.5c1,0,1-1.7,0-1.7S933.8,333.5,934.8,333.5L934.8,333.5z"/>
	</g>
</g>
<g>
	<g>
		<path class="st3" d="M919.3,328.8c1,0,1-1.7,0-1.7S918.2,328.8,919.3,328.8L919.3,328.8z"/>
	</g>
</g>
<g>
	<g>
		<path class="st3" d="M916.5,342.1c1,0,1-1.7,0-1.7C915.2,340.6,915.2,342.1,916.5,342.1L916.5,342.1z"/>
	</g>
</g>
<g>
	<g>
		<path class="st3" d="M911.2,349.3c1,0,1-1.7,0-1.7C910.1,347.8,910.1,349.3,911.2,349.3L911.2,349.3z"/>
	</g>
</g>
<g>
	<g>
		<path class="st3" d="M925.1,350c1,0,1-1.7,0-1.7C924,348.3,924,350,925.1,350L925.1,350z"/>
	</g>
</g>
<g>
	<g>
		<path class="st3" d="M913.5,340.7c1,0,1-1.7,0-1.7C912.2,339,912.2,340.7,913.5,340.7L913.5,340.7z"/>
	</g>
</g>
<g>
	<g>
		<path class="st3" d="M907.1,336.9c1,0,1-1.7,0-1.7C905.8,335.3,905.8,336.9,907.1,336.9L907.1,336.9z"/>
	</g>
</g>
<g>
	<g>
		<path class="st3" d="M898.8,336.9c1,0,1-1.7,0-1.7S897.9,336.9,898.8,336.9L898.8,336.9z"/>
	</g>
</g>
<g>
	<g>
		<path class="st3" d="M896.9,341.8c1,0,1-1.7,0-1.7S895.9,341.8,896.9,341.8L896.9,341.8z"/>
	</g>
</g>
<g>
	<g>
		<path class="st3" d="M888.2,338.6c1,0,1-1.7,0-1.7S887.2,338.6,888.2,338.6L888.2,338.6z"/>
	</g>
</g>
<g>
	<g>
		<path class="st3" d="M892.3,335.9c1,0,1-1.7,0-1.7C891.3,334.3,891.3,335.9,892.3,335.9L892.3,335.9z"/>
	</g>
</g>
<g>
	<g>
		<path class="st3" d="M894.6,341.7c1,0,1-1.7,0-1.7S893.6,341.7,894.6,341.7L894.6,341.7z"/>
	</g>
</g>
<g>
	<g>
		<path class="st3" d="M891.2,345.9c1,0,1-1.7,0-1.7C889.9,344.2,889.9,345.9,891.2,345.9L891.2,345.9z"/>
	</g>
</g>
<g>
	<g>
		<path class="st3" d="M900.6,344.5c1,0,1-1.7,0-1.7C899.4,342.8,899.4,344.5,900.6,344.5L900.6,344.5z"/>
	</g>
</g>
<g>
	<g>
		<path class="st3" d="M899.6,352.8c1,0,1-1.7,0-1.7C898.6,351.2,898.4,352.8,899.6,352.8L899.6,352.8z"/>
	</g>
</g>
<g>
	<g>
		<path class="st3" d="M895.7,347.6c1,0,1-1.7,0-1.7C894.4,345.9,894.4,347.6,895.7,347.6L895.7,347.6z"/>
	</g>
</g>
<g>
	<g>
		<path class="st3" d="M877.3,351.3c1,0,1-1.7,0-1.7S876.1,351.3,877.3,351.3L877.3,351.3z"/>
	</g>
</g>
<g>
	<g>
		<path class="st3" d="M868.4,351.3c1,0,1-1.7,0-1.7C867.3,349.7,867.3,351.3,868.4,351.3L868.4,351.3z"/>
	</g>
</g>
<g>
	<g>
		<path class="st3" d="M860.6,353.4c1,0,1-1.7,0-1.7C859.6,351.7,859.5,353.4,860.6,353.4L860.6,353.4z"/>
	</g>
</g>
<g>
	<g>
		<path class="st3" d="M862.3,349c1,0,1-1.7,0-1.7C861.2,347.5,861.2,349,862.3,349L862.3,349z"/>
	</g>
</g>
<g>
	<g>
		<path class="st3" d="M851.8,341.4c1,0,1-1.7,0-1.7S850.8,341.4,851.8,341.4L851.8,341.4z"/>
	</g>
</g>
<g>
	<g>
		<path class="st3" d="M931.2,349.3c1,0,1-1.7,0-1.7C930.2,347.6,930.2,349.3,931.2,349.3L931.2,349.3z"/>
	</g>
</g>
<g>
	<g>
		<path class="st3" d="M936.5,360.8c1,0,1-1.7,0-1.7C935.4,359.1,935.4,360.8,936.5,360.8L936.5,360.8z"/>
	</g>
</g>
<g>
	<g>
		<path class="st3" d="M941.5,350c1,0,1-1.7,0-1.7C940.2,348.3,940.2,350,941.5,350L941.5,350z"/>
	</g>
</g>
<g>
	<g>
		<path class="st3" d="M932.4,346.2c1,0,1-1.7,0-1.7C931.1,344.7,931.1,346.2,932.4,346.2L932.4,346.2z"/>
	</g>
</g>
<g>
	<g>
		<path class="st3" d="M942.6,343.8c1,0,1-1.7,0-1.7S941.5,343.8,942.6,343.8L942.6,343.8z"/>
	</g>
</g>
<g>
	<g>
		<path class="st3" d="M932.4,351.9c1,0,1-1.7,0-1.7C931.1,350.2,931.1,351.9,932.4,351.9L932.4,351.9z"/>
	</g>
</g>
<g>
	<g>
		<path class="st3" d="M943.3,358.1c1,0,1-1.7,0-1.7C942.2,356.4,942.2,358.1,943.3,358.1L943.3,358.1z"/>
	</g>
</g>
<g>
	<g>
		<path class="st3" d="M936.9,352.1c1,0,1-1.7,0-1.7C935.6,350.6,935.6,352.1,936.9,352.1L936.9,352.1z"/>
	</g>
</g>
<g>
	<g>
		<path class="st3" d="M937.1,344.1c1,0,1-1.7,0-1.7C936.1,342.5,936.1,344.1,937.1,344.1L937.1,344.1z"/>
	</g>
</g>
<g>
	<g>
		<path class="st3" d="M943,339c1,0,1-1.7,0-1.7C941.8,337.4,941.8,339,943,339L943,339z"/>
	</g>
</g>
<g>
	<g>
		<path class="st3" d="M947.6,346.2c1,0,1-1.7,0-1.7C946.3,344.7,946.3,346.2,947.6,346.2L947.6,346.2z"/>
	</g>
</g>
<g>
	<g>
		<path class="st3" d="M953.7,343.8c1,0,1-1.7,0-1.7C952.5,342.1,952.5,343.8,953.7,343.8L953.7,343.8z"/>
	</g>
</g>
<g>
	<g>
		<path class="st3" d="M920.3,340.7c1,0,1-1.7,0-1.7C919,339,919,340.7,920.3,340.7L920.3,340.7z"/>
	</g>
</g>
<g>
	<g>
		<path class="st3" d="M931.9,335.6c1,0,1-1.7,0-1.7C930.8,333.9,930.8,335.6,931.9,335.6L931.9,335.6z"/>
	</g>
</g>
<g>
	<g>
		<path class="st3" d="M925.7,334.2c1,0,1-1.7,0-1.7S924.7,334.2,925.7,334.2L925.7,334.2z"/>
	</g>
</g>
<g>
	<g>
		<path class="st3" d="M922.3,334.2c1,0,1-1.7,0-1.7C921.2,332.5,921.2,334.2,922.3,334.2L922.3,334.2z"/>
	</g>
</g>
<g>
	<g>
		<path class="st3" d="M929.7,329.4c1,0,1-1.7,0-1.7C928.5,327.7,928.5,329.4,929.7,329.4L929.7,329.4z"/>
	</g>
</g>
<g>
	<g>
		<path class="st3" d="M926.7,338.6c1,0,1-1.7,0-1.7S925.7,338.6,926.7,338.6L926.7,338.6z"/>
	</g>
</g>
<g>
	<g>
		<path class="st3" d="M926.1,342.8c1,0,1-1.7,0-1.7C925,341.1,925,342.8,926.1,342.8L926.1,342.8z"/>
	</g>
</g>
<g>
	<g>
		<path class="st3" d="M917,351.3c1,0,1-1.7,0-1.7C915.9,349.7,915.9,351.3,917,351.3L917,351.3z"/>
	</g>
</g>
<g>
	<g>
		<path class="st3" d="M913.5,346.2c1,0,1-1.7,0-1.7C912.2,344.7,912.2,346.2,913.5,346.2L913.5,346.2z"/>
	</g>
</g>
<g>
	<g>
		<path class="st3" d="M907.5,345.2c1,0,1-1.7,0-1.7S906.5,345.2,907.5,345.2L907.5,345.2z"/>
	</g>
</g>
<g>
	<g>
		<path class="st3" d="M909.4,340.4c1,0,1-1.7,0-1.7C908.1,338.7,908.1,340.4,909.4,340.4L909.4,340.4z"/>
	</g>
</g>
<g>
	<g>
		<path class="st3" d="M906,354.4c1,0,1-1.7,0-1.7S905,354.4,906,354.4L906,354.4z"/>
	</g>
</g>
<g>
	<g>
		<path class="st3" d="M903.3,349c1,0,1-1.7,0-1.7C902,347.5,902,349,903.3,349L903.3,349z"/>
	</g>
</g>
<g>
	<g>
		<path class="st3" d="M879.5,348.8c1,0,1-1.7,0-1.7C878.4,347.1,878.4,348.8,879.5,348.8L879.5,348.8z"/>
	</g>
</g>
<g>
	<g>
		<path class="st3" d="M887.5,349c1,0,1-1.7,0-1.7S886.5,349,887.5,349L887.5,349z"/>
	</g>
</g>
<g>
	<g>
		<path class="st3" d="M884.6,345.6c1,0,1-1.7,0-1.7C883.5,343.9,883.5,345.6,884.6,345.6L884.6,345.6z"/>
	</g>
</g>
<g>
	<g>
		<path class="st3" d="M884.6,350.3c1,0,1-1.7,0-1.7C883.5,348.8,883.5,350.3,884.6,350.3L884.6,350.3z"/>
	</g>
</g>
<g>
	<g>
		<path class="st3" d="M921.2,356.7c1,0,1-1.7,0-1.7S920.2,356.7,921.2,356.7L921.2,356.7z"/>
	</g>
</g>
<g>
	<g>
		<path class="st3" d="M926.7,360.9c1,0,1-1.7,0-1.7S925.7,360.9,926.7,360.9L926.7,360.9z"/>
	</g>
</g>
<g>
	<g>
		<path class="st3" d="M921.2,349c1,0,1-1.7,0-1.7S920.2,349,921.2,349L921.2,349z"/>
	</g>
</g>
<g>
	<g>
		<path class="st3" d="M938.1,363.2c1,0,1-1.7,0-1.7S937.1,363.2,938.1,363.2L938.1,363.2z"/>
	</g>
</g>
<g>
	<g>
		<path class="st3" d="M946,357.8c1,0,1-1.7,0-1.7C944.7,356.1,944.7,357.8,946,357.8L946,357.8z"/>
	</g>
</g>
<g>
	<g>
		<path class="st3" d="M948,353.8c1,0,1-1.7,0-1.7C947,352.1,947,353.8,948,353.8L948,353.8z"/>
	</g>
</g>
<g>
	<g>
		<path class="st3" d="M941.9,352.8c1,0,1-1.7,0-1.7C940.9,351.2,940.9,352.8,941.9,352.8L941.9,352.8z"/>
	</g>
</g>
<g>
	<g>
		<path class="st3" d="M950.1,337.9c1,0,1-1.7,0-1.7C948.9,336.3,948.9,337.9,950.1,337.9L950.1,337.9z"/>
	</g>
</g>
<g>
	<g>
		<path class="st3" d="M944.2,329.2c1,0,1-1.7,0-1.7S943.2,329.2,944.2,329.2L944.2,329.2z"/>
	</g>
</g>
<g>
	<g>
		<path class="st3" d="M937.1,325.1c1,0,1-1.7,0-1.7S936.1,325.1,937.1,325.1L937.1,325.1z"/>
	</g>
</g>
<g>
	<g>
		<path class="st3" d="M950.1,324.4c1,0,1-1.7,0-1.7C948.9,322.9,948.9,324.4,950.1,324.4L950.1,324.4z"/>
	</g>
</g>
<g>
	<g>
		<path class="st3" d="M954.4,331.6c1,0,1-1.7,0-1.7C953.1,330.1,953.1,331.6,954.4,331.6L954.4,331.6z"/>
	</g>
</g>
<g>
	<g>
		<path class="st3" d="M956.2,339c1,0,1-1.7,0-1.7C955,337.4,955,339,956.2,339L956.2,339z"/>
	</g>
</g>
<g>
	<g>
		<path class="st3" d="M948,334.2c1,0,1-1.7,0-1.7S947,334.2,948,334.2L948,334.2z"/>
	</g>
</g>
<g>
	<g>
		<path class="st3" d="M943.3,335.5c1,0,1-1.7,0-1.7C942.2,333.8,942.2,335.5,943.3,335.5L943.3,335.5z"/>
	</g>
</g>
<g>
	<g>
		<path class="st3" d="M935.8,338.6c1,0,1-1.7,0-1.7S934.8,338.6,935.8,338.6L935.8,338.6z"/>
	</g>
</g>
<g>
	<g>
		<path class="st3" d="M929,341.7c1,0,1-1.7,0-1.7S928,341.7,929,341.7L929,341.7z"/>
	</g>
</g>
<g>
	<g>
		<path class="st3" d="M931.2,316.9c1,0,1-1.7,0-1.7C930.2,315.3,930.2,316.9,931.2,316.9L931.2,316.9z"/>
	</g>
</g>
<g>
	<g>
		<path class="st3" d="M937.3,312.3c1,0,1-1.7,0-1.7S936.4,312.3,937.3,312.3L937.3,312.3z"/>
	</g>
</g>
<g>
	<g>
		<path class="st3" d="M943.9,313c1,0,1-1.7,0-1.7C942.7,311.3,942.7,313,943.9,313L943.9,313z"/>
	</g>
</g>
<g>
	<g>
		<path class="st3" d="M947.2,316.1c1,0,1-1.7,0-1.7C946,314.4,946,316.1,947.2,316.1L947.2,316.1z"/>
	</g>
</g>
<g>
	<g>
		<path class="st3" d="M952.5,318.9c1,0,1-1.7,0-1.7C951.6,317.2,951.6,318.9,952.5,318.9L952.5,318.9z"/>
	</g>
</g>
<g>
	<g>
		<path class="st3" d="M952.5,318.9c1,0,1-1.7,0-1.7C951.6,317.2,951.6,318.9,952.5,318.9L952.5,318.9z"/>
	</g>
</g>
<g>
	<g>
		<path class="st3" d="M958.9,318.2c1,0,1-1.7,0-1.7C957.7,316.5,957.7,318.2,958.9,318.2L958.9,318.2z"/>
	</g>
</g>
<g>
	<g>
		<path class="st3" d="M957.8,325.1c1,0,1-1.7,0-1.7S956.8,325.1,957.8,325.1L957.8,325.1z"/>
	</g>
</g>
<g>
	<g>
		<path class="st3" d="M954,328.3c1,0,1-1.7,0-1.7C952.8,326.6,952.8,328.3,954,328.3L954,328.3z"/>
	</g>
</g>
<g>
	<g>
		<path class="st3" d="M943.9,318.2c1,0,1-1.7,0-1.7C942.7,316.5,942.7,318.2,943.9,318.2L943.9,318.2z"/>
	</g>
</g>
<g>
	<g>
		<path class="st3" d="M941.9,321.3c1,0,1-1.7,0-1.7C940.9,319.6,940.9,321.3,941.9,321.3L941.9,321.3z"/>
	</g>
</g>
<g>
	<g>
		<path class="st3" d="M940.3,321.3c1,0,1-1.7,0-1.7S939.3,321.3,940.3,321.3L940.3,321.3z"/>
	</g>
</g>
<g>
	<g>
		<path class="st3" d="M926.1,323.7c1,0,1-1.7,0-1.7C925,322.2,925,323.7,926.1,323.7L926.1,323.7z"/>
	</g>
</g>
<g>
	<g>
		<path class="st3" d="M925.7,323.7c1,0,1-1.7,0-1.7C924.7,322.2,924.7,323.7,925.7,323.7L925.7,323.7z"/>
	</g>
</g>
<g>
	<g>
		<path class="st3" d="M922.9,325.4c1,0,1-1.7,0-1.7C921.7,323.7,921.7,325.4,922.9,325.4L922.9,325.4z"/>
	</g>
</g>
<g>
	<g>
		<path class="st3" d="M911.2,323.2c1,0,1-1.7,0-1.7C910.1,321.5,910.1,323.2,911.2,323.2L911.2,323.2z"/>
	</g>
</g>
<g>
	<g>
		<path class="st3" d="M909.4,325.4c1,0,1-1.7,0-1.7C908.1,323.7,908.1,325.4,909.4,325.4L909.4,325.4z"/>
	</g>
</g>
<g>
	<g>
		<path class="st3" d="M914.2,331.4c1,0,1-1.7,0-1.7C912.9,329.7,912.9,331.4,914.2,331.4L914.2,331.4z"/>
	</g>
</g>
<g>
	<g>
		<path class="st3" d="M914.2,336.9c1,0,1-1.7,0-1.7C912.9,335.3,912.9,336.9,914.2,336.9L914.2,336.9z"/>
	</g>
</g>
<g>
	<g>
		<path class="st3" d="M893.4,325.4c1,0,1-1.7,0-1.7C892.2,323.7,892.2,325.4,893.4,325.4L893.4,325.4z"/>
	</g>
</g>
<g>
	<g>
		<path class="st3" d="M905.1,322c1,0,1-1.7,0-1.7C904,320.3,904,322,905.1,322L905.1,322z"/>
	</g>
</g>
<g>
	<g>
		<path class="st3" d="M900.3,327.3c1,0,1-1.7,0-1.7C899,325.6,899,327.3,900.3,327.3L900.3,327.3z"/>
	</g>
</g>
<g>
	<g>
		<path class="st3" d="M880.5,324.2c1,0,1-1.7,0-1.7C879.2,322.5,879.2,324.2,880.5,324.2L880.5,324.2z"/>
	</g>
</g>
<g>
	<g>
		<path class="st3" d="M869.2,321.6c1,0,1-1.7,0-1.7C867.9,320.1,867.9,321.6,869.2,321.6L869.2,321.6z"/>
	</g>
</g>
<g>
	<g>
		<path class="st3" d="M859.1,323.4c1,0,1-1.7,0-1.7C857.9,321.9,857.9,323.4,859.1,323.4L859.1,323.4z"/>
	</g>
</g>
<g>
	<g>
		<path class="st3" d="M853,319.5c1,0,1-1.7,0-1.7C851.7,317.9,851.7,319.5,853,319.5L853,319.5z"/>
	</g>
</g>
<g>
	<g>
		<path class="st3" d="M845.7,324.2c1,0,1-1.7,0-1.7S844.7,324.2,845.7,324.2L845.7,324.2z"/>
	</g>
</g>
<g>
	<g>
		<path class="st3" d="M840,327.8c1,0,1-1.7,0-1.7C838.8,326.3,838.8,327.8,840,327.8L840,327.8z"/>
	</g>
</g>
<g>
	<g>
		<path class="st3" d="M851,313c1,0,1-1.7,0-1.7C849.8,311.3,849.8,313,851,313L851,313z"/>
	</g>
</g>
<g>
	<g>
		<path class="st3" d="M847.4,314.8c1,0,1-1.7,0-1.7C846.4,313.1,846.3,314.8,847.4,314.8L847.4,314.8z"/>
	</g>
</g>
<g>
	<g>
		<path class="st3" d="M851,303.9c1,0,1-1.7,0-1.7C849.8,302.2,849.8,303.9,851,303.9z"/>
	</g>
</g>
<g>
	<g>
		<path class="st3" d="M961.1,307.2c1,0,1-1.7,0-1.7C959.9,305.6,959.9,307.2,961.1,307.2L961.1,307.2z"/>
	</g>
</g>
<g>
	<g>
		<path class="st3" d="M945,307.2c1,0,1-1.7,0-1.7S944,307.2,945,307.2L945,307.2z"/>
	</g>
</g>
<g>
	<g>
		<path class="st3" d="M957.2,312.1c1,0,1-1.7,0-1.7C956.1,310.4,956.1,312.1,957.2,312.1L957.2,312.1z"/>
	</g>
</g>
<g>
	<g>
		<path class="st3" d="M964.5,295.7c1,0,1-1.7,0-1.7S963.3,295.7,964.5,295.7L964.5,295.7z"/>
	</g>
</g>
<g>
	<g>
		<path class="st3" d="M940.3,294.6c1,0,1-1.7,0-1.7S939.3,294.6,940.3,294.6L940.3,294.6z"/>
	</g>
</g>
<g>
	<g>
		<path class="st3" d="M955.4,304.7c1,0,1-1.7,0-1.7C954.1,303,954.1,304.7,955.4,304.7L955.4,304.7z"/>
	</g>
</g>
<g>
	<g>
		<path class="st3" d="M949.6,293.6c1,0,1-1.7,0-1.7C948.4,291.9,948.4,293.6,949.6,293.6L949.6,293.6z"/>
	</g>
</g>
<g>
	<g>
		<path class="st3" d="M965.6,290.2c1,0,1-1.7,0-1.7C964.5,288.5,964.5,290.2,965.6,290.2L965.6,290.2z"/>
	</g>
</g>
<g>
	<g>
		<path class="st3" d="M966.8,306.8c1,0,1-1.7,0-1.7C965.6,305.1,965.6,306.8,966.8,306.8L966.8,306.8z"/>
	</g>
</g>
<g>
	<g>
		<path class="st3" d="M951.8,299c1,0,1-1.7,0-1.7C950.7,297.4,950.7,299,951.8,299L951.8,299z"/>
	</g>
</g>
<g>
	<g>
		<path class="st3" d="M943.9,299c1,0,1-1.7,0-1.7C942.6,297.4,942.6,299,943.9,299L943.9,299z"/>
	</g>
</g>
<g>
	<g>
		<path class="st3" d="M933.5,305.8c1,0,1-1.7,0-1.7C932.4,304.1,932.4,305.8,933.5,305.8L933.5,305.8z"/>
	</g>
</g>
<g>
	<g>
		<path class="st3" d="M931.1,302.2c1,0,1-1.7,0-1.7C930.1,300.6,930.1,302.2,931.1,302.2L931.1,302.2z"/>
	</g>
</g>
<g>
	<g>
		<path class="st3" d="M804.9,300.1c1,0,1-1.7,0-1.7C803.7,298.6,803.7,300.1,804.9,300.1L804.9,300.1z"/>
	</g>
</g>
<g>
	<g>
		<path class="st3" d="M812.9,299c1,0,1-1.7,0-1.7C811.8,297.4,811.8,299,812.9,299L812.9,299z"/>
	</g>
</g>
<g>
	<g>
		<path class="st3" d="M807.2,283.6c1,0,1-1.7,0-1.7C805.9,282,805.9,283.6,807.2,283.6L807.2,283.6z"/>
	</g>
</g>
<g>
	<g>
		<path class="st3" d="M826.8,297.9c1,0,1-1.7,0-1.7C825.5,296.3,825.5,297.9,826.8,297.9L826.8,297.9z"/>
	</g>
</g>
<g>
	<g>
		<path class="st3" d="M815.2,288.1c1,0,1-1.7,0-1.7C814,286.4,814,288.1,815.2,288.1L815.2,288.1z"/>
	</g>
</g>
<g>
	<g>
		<path class="st3" d="M809.5,293.6c1,0,1-1.7,0-1.7S808.5,293.6,809.5,293.6L809.5,293.6z"/>
	</g>
</g>
<g>
	<g>
		<path class="st3" d="M830.1,293.6c1,0,1-1.7,0-1.7S829.1,293.6,830.1,293.6L830.1,293.6z"/>
	</g>
</g>
<g>
	<g>
		<path class="st3" d="M835.8,296.9c1,0,1-1.7,0-1.7C834.8,295.3,834.8,296.9,835.8,296.9L835.8,296.9z"/>
	</g>
</g>
<g>
	<g>
		<path class="st3" d="M841.6,299c1,0,1-1.7,0-1.7C840.6,297.4,840.6,299,841.6,299L841.6,299z"/>
	</g>
</g>
<g>
	<g>
		<path class="st3" d="M841.6,299c1,0,1-1.7,0-1.7C840.6,297.4,840.6,299,841.6,299L841.6,299z"/>
	</g>
</g>
<g>
	<g>
		<path class="st3" d="M954.5,293.6c1,0,1-1.7,0-1.7C953.4,291.9,953.4,293.6,954.5,293.6L954.5,293.6z"/>
	</g>
</g>
<g>
	<g>
		<path class="st3" d="M957.5,301c1,0,1-1.7,0-1.7C956.2,299.4,956.2,301,957.5,301L957.5,301z"/>
	</g>
</g>
<g>
	<g>
		<path class="st3" d="M968.5,300.6c1,0,1-1.7,0-1.7C967.2,298.9,967.2,300.6,968.5,300.6L968.5,300.6z"/>
	</g>
</g>
<g>
	<g>
		<path class="st3" d="M971.7,296.9c1,0,1-1.7,0-1.7S970.6,296.9,971.7,296.9L971.7,296.9z"/>
	</g>
</g>
<g>
	<g>
		<path class="st3" d="M970.4,308.9c1,0,1-1.7,0-1.7C969.2,307.2,969.2,308.9,970.4,308.9L970.4,308.9z"/>
	</g>
</g>
<g>
	<g>
		<path class="st3" d="M965.1,320.9c1,0,1-1.7,0-1.7C963.9,319.2,963.9,320.9,965.1,320.9L965.1,320.9z"/>
	</g>
</g>
<g>
	<g>
		<path class="st3" d="M963.6,315.3c1,0,1-1.7,0-1.7C962.5,313.7,962.5,315.3,963.6,315.3L963.6,315.3z"/>
	</g>
</g>
<g>
	<g>
		<path class="st3" d="M962.2,329.7c1,0,1-1.7,0-1.7S961.1,329.7,962.2,329.7L962.2,329.7z"/>
	</g>
</g>
<g>
	<g>
		<path class="st3" d="M958.4,336c1,0,1-1.7,0-1.7S957.2,336,958.4,336L958.4,336z"/>
	</g>
</g>
<g>
	<g>
		<path class="st3" d="M930.1,356.9c1,0,1-1.7,0-1.7C929,355.3,929,356.9,930.1,356.9L930.1,356.9z"/>
	</g>
</g>
<g>
	<g>
		<path class="st3" d="M916.2,356c1,0,1-1.7,0-1.7C915,354.3,915,356,916.2,356L916.2,356z"/>
	</g>
</g>
<g>
	<g>
		<path class="st3" d="M911.3,357.2c1,0,1-1.7,0-1.7C910.4,355.7,910.2,357.2,911.3,357.2L911.3,357.2z"/>
	</g>
</g>
<g>
	<g>
		<path class="st3" d="M891.7,353.7c1,0,1-1.7,0-1.7C890.6,352,890.6,353.7,891.7,353.7L891.7,353.7z"/>
	</g>
</g>
<g>
	<g>
		<path class="st3" d="M840.6,356.4c1,0,1-1.7,0-1.7C839.3,354.8,839.3,356.4,840.6,356.4L840.6,356.4z"/>
	</g>
</g>
<g>
	<g>
		<path class="st3" d="M815,327c1,0,1-1.7,0-1.7S814,327,815,327L815,327z"/>
	</g>
</g>
<g>
	<g>
		<path class="st3" d="M818.4,342.1c1,0,1-1.7,0-1.7C817.3,340.6,817.3,342.1,818.4,342.1L818.4,342.1z"/>
	</g>
</g>
<g>
	<g>
		<path class="st3" d="M819.7,327c1,0,1-1.7,0-1.7S818.7,327,819.7,327L819.7,327z"/>
	</g>
</g>
<g>
	<g>
		<path class="st3" d="M817,331.1c1,0,1-1.7,0-1.7S815.9,331.1,817,331.1L817,331.1z"/>
	</g>
</g>
<g>
	<g>
		<path class="st3" d="M809.3,307.6c1,0,1-1.7,0-1.7C808.2,305.9,808.2,307.6,809.3,307.6L809.3,307.6z"/>
	</g>
</g>
<g>
	<g>
		<path class="st3" d="M805.5,308.3c1,0,1-1.7,0-1.7S804.4,308.3,805.5,308.3L805.5,308.3z"/>
	</g>
</g>
<g>
	<g>
		<path class="st3" d="M809.8,312.7c1,0,1-1.7,0-1.7C808.6,311,808.6,312.7,809.8,312.7L809.8,312.7z"/>
	</g>
</g>
<g>
	<g>
		<path class="st3" d="M804.7,295c1,0,1-1.7,0-1.7C803.4,293.5,803.4,295,804.7,295L804.7,295z"/>
	</g>
</g>
<g>
	<g>
		<path class="st3" d="M821.7,296.9c1,0,1-1.7,0-1.7C820.7,295.3,820.7,296.9,821.7,296.9L821.7,296.9z"/>
	</g>
</g>
<g>
	<g>
		<path class="st3" d="M814.2,295.9c1,0,1-1.7,0-1.7C812.9,294.3,812.9,295.9,814.2,295.9L814.2,295.9z"/>
	</g>
</g>
<g>
	<g>
		<path class="st3" d="M937.8,303.2c1,0,1-1.7,0-1.7S936.6,303.2,937.8,303.2L937.8,303.2z"/>
	</g>
</g>
<g>
	<g>
		<path class="st3" d="M949.3,303.2c1,0,1-1.7,0-1.7C948,301.7,948,303.2,949.3,303.2L949.3,303.2z"/>
	</g>
</g>
<g>
	<g>
		<path class="st3" d="M951.1,313c1,0,1-1.7,0-1.7C950,311.3,950,313,951.1,313L951.1,313z"/>
	</g>
</g>
<g>
	<g>
		<path class="st3" d="M974.6,288.3c1,0,1-1.7,0-1.7C973.6,286.6,973.6,288.3,974.6,288.3L974.6,288.3z"/>
	</g>
</g>
<g>
	<g>
		<path class="st3" d="M971.3,292.4c1,0,1-1.7,0-1.7C970.2,290.7,970.2,292.4,971.3,292.4L971.3,292.4z"/>
	</g>
</g>
<g>
	<g>
		<path class="st3" d="M959.4,295.9c1,0,1-1.7,0-1.7C958.2,294.3,958.2,295.9,959.4,295.9L959.4,295.9z"/>
	</g>
</g>
<g>
	<g>
		<path class="st3" d="M976.6,285c1,0,1-1.7,0-1.7C975.4,283.3,975.4,285,976.6,285L976.6,285z"/>
	</g>
</g>
<g>
	<g>
		<path class="st3" d="M870,293.5c1,0,1-1.7,0-1.7C868.9,291.8,868.9,293.5,870,293.5L870,293.5z"/>
	</g>
</g>
<g>
	<g>
		<path class="st3" d="M883.9,296c1,0,1-1.7,0-1.7C882.8,294.5,882.8,296,883.9,296L883.9,296z"/>
	</g>
</g>
<g>
	<g>
		<path class="st3" d="M916.3,294.5c1,0,1-1.7,0-1.7C915,292.8,915,294.5,916.3,294.5L916.3,294.5z"/>
	</g>
</g>
<g>
	<g>
		<path class="st3" d="M903.3,294.5c1,0,1-1.7,0-1.7C902,292.8,902,294.5,903.3,294.5L903.3,294.5z"/>
	</g>
</g>
<g>
	<g>
		<path class="st3" d="M850,297.7c1,0,1-1.7,0-1.7S849,297.7,850,297.7L850,297.7z"/>
	</g>
</g>
<g>
	<g>
		<path class="st3" d="M860.5,297.7c1,0,1-1.7,0-1.7C859.2,296,859.2,297.7,860.5,297.7L860.5,297.7z"/>
	</g>
</g>
<g>
	<g>
		<path class="st3" d="M878.8,297.7c1,0,1-1.7,0-1.7C877.5,296,877.5,297.7,878.8,297.7L878.8,297.7z"/>
	</g>
</g>
<g>
	<g>
		<path class="st3" d="M903.3,297.7c1,0,1-1.7,0-1.7C902,296,902,297.7,903.3,297.7L903.3,297.7z"/>
	</g>
</g>
<g>
	<g>
		<path class="st3" d="M921.6,296c1,0,1-1.7,0-1.7C920.3,294.5,920.3,296,921.6,296L921.6,296z"/>
	</g>
</g>
<g>
	<g>
		<path class="st3" d="M892.7,297.7c1,0,1-1.7,0-1.7C891.5,296,891.5,297.7,892.7,297.7L892.7,297.7z"/>
	</g>
</g>
<g>
	<g>
		<path class="st3" d="M910.2,296.9c1,0,1-1.7,0-1.7C908.9,295.3,908.9,296.9,910.2,296.9L910.2,296.9z"/>
	</g>
</g>
<g>
	<g>
		<path class="st3" d="M929.4,295.3c1,0,1-1.7,0-1.7C928.1,293.6,928.1,295.3,929.4,295.3L929.4,295.3z"/>
	</g>
</g>
<g>
	<g>
		<path class="st3" d="M895.7,292.8c1,0,1-1.7,0-1.7C894.4,291.2,894.4,292.8,895.7,292.8L895.7,292.8z"/>
	</g>
</g>
<g>
	<g>
		<path class="st3" d="M819,292.2c1,0,1-1.7,0-1.7C817.9,290.5,817.9,292.2,819,292.2L819,292.2z"/>
	</g>
</g>
<g>
	<g>
		<path class="st3" d="M823.3,287.7c1,0,1-1.7,0-1.7C822.3,286.1,822.3,287.7,823.3,287.7L823.3,287.7z"/>
	</g>
</g>
<g>
	<g>
		<path class="st3" d="M805.8,287.4c1,0,1-1.7,0-1.7C804.8,285.7,804.8,287.4,805.8,287.4L805.8,287.4z"/>
	</g>
</g>
<g>
	<g>
		<path class="st3" d="M801,286.6c1,0,1-1.7,0-1.7C799.8,285,799.8,286.6,801,286.6L801,286.6z"/>
	</g>
</g>
<g>
	<g>
		<path class="st3" d="M800.7,291.6c1,0,1-1.7,0-1.7C799.5,290,799.5,291.6,800.7,291.6L800.7,291.6z"/>
	</g>
</g>
<g>
	<g>
		<path class="st3" d="M855.4,294.8c1,0,1-1.7,0-1.7C854.1,293.2,854.1,294.8,855.4,294.8L855.4,294.8z"/>
	</g>
</g>
<g>
	<g>
		<path class="st3" d="M872.4,296.3c1,0,1-1.7,0-1.7S871.4,296.3,872.4,296.3L872.4,296.3z"/>
	</g>
</g>
<g>
	<g>
		<path class="st3" d="M865.5,296.3c1,0,1-1.7,0-1.7S864.5,296.3,865.5,296.3L865.5,296.3z"/>
	</g>
</g>
<g>
	<g>
		<path class="st3" d="M836.5,311.9c1,0,1-1.7,0-1.7S835.5,311.9,836.5,311.9L836.5,311.9z"/>
	</g>
</g>
<g>
	<g>
		<path class="st3" d="M914.9,297.4c1,0,1-1.7,0-1.7C913.9,295.7,913.9,297.4,914.9,297.4L914.9,297.4z"/>
	</g>
</g>
<g>
	<g>
		<path class="st3" d="M928.4,297.4c1,0,1-1.7,0-1.7C927.3,295.7,927.3,297.4,928.4,297.4L928.4,297.4z"/>
	</g>
</g>
<g>
	<g>
		<path class="st3" d="M934.2,294.8c1,0,1-1.7,0-1.7C933.2,293.2,933.2,294.8,934.2,294.8L934.2,294.8z"/>
	</g>
</g>
<g>
	<g>
		<path class="st3" d="M967.6,283.4c1,0,1-1.7,0-1.7C966.3,281.8,966.3,283.4,967.6,283.4L967.6,283.4z"/>
	</g>
</g>
<g>
	<g>
		<path class="st3" d="M957.2,288.5c1,0,1-1.7,0-1.7S956.2,288.5,957.2,288.5L957.2,288.5z"/>
	</g>
</g>
<ellipse transform="matrix(0.4983 -0.867 0.867 0.4983 -230.7578 926.938)" class="st29" cx="685.6" cy="662.9" rx="4.8" ry="3"/>
<ellipse transform="matrix(7.412207e-02 -0.9972 0.9972 7.412207e-02 -33.4154 1340.4519)" class="st30" cx="705.2" cy="688.2" rx="4.9" ry="3.1"/>
<ellipse class="st31" cx="721.7" cy="690.2" rx="3.1" ry="4.9"/>
<ellipse transform="matrix(0.9984 -5.672569e-02 5.672569e-02 0.9984 -37.7253 42.9857)" class="st32" cx="738.3" cy="686" rx="3.1" ry="4.9"/>
<ellipse transform="matrix(0.3168 -0.9485 0.9485 0.3168 -94.7883 1158.2549)" class="st33" cx="756.6" cy="644.9" rx="3.3" ry="5.5"/>
<ellipse transform="matrix(0.9984 -5.672569e-02 5.672569e-02 0.9984 -37.4015 61.2004)" class="st32" cx="1059.3" cy="689.4" rx="3.1" ry="4.9"/>
<ellipse transform="matrix(0.9984 -5.672569e-02 5.672569e-02 0.9984 -37.4515 60.2309)" class="st32" cx="1042.2" cy="689.8" rx="3.1" ry="4.9"/>
<path class="st34" d="M1078,669c1.7-0.1,3.2,2,3.4,4.8c0.2,2.7-1.1,5-2.8,5.1c-1.7,0.1-3.2-2-3.4-4.8
	C1075,671.4,1076.2,669.1,1078,669z"/>
<ellipse transform="matrix(0.9984 -5.672569e-02 5.672569e-02 0.9984 -37.1945 59.2867)" class="st32" cx="1025.7" cy="684.8" rx="3.1" ry="4.9"/>
<ellipse transform="matrix(0.9318 -0.3629 0.3629 0.9318 -164.6911 409.7696)" class="st35" cx="1008.3" cy="643.2" rx="5.3" ry="3"/>
<g>
	<g>
		<g>
			<path class="st36" d="M852.4,201.5c0.1,2.4-0.1,4.8-0.7,7.2"/>
		</g>
		<g>
			<path class="st36" d="M853,201.8c0.1,2.4-0.1,4.8-0.7,7.2"/>
		</g>
		<g>
			<path class="st36" d="M850.7,201.6c0.7,2.4,0.9,4.5,0.7,7.2"/>
		</g>
		<g>
			<path class="st36" d="M850.1,201.2c0.3,2.4,0,4.5-0.7,7.1"/>
		</g>
		<g>
			<path class="st36" d="M849.8,201.3c0.3,2.4,0,4.5-0.7,7.1"/>
		</g>
		<g>
			<path class="st36" d="M848,201.2c0.9,2.3,1.3,4.5,1,7.1"/>
		</g>
		<g>
			<path class="st36" d="M846.9,201.2c1.3,2.3,1.7,4.4,2,6.9"/>
		</g>
		<g>
			<path class="st36" d="M845.6,201.2c1.4,2.1,2.3,4.1,3,6.5"/>
		</g>
	</g>
	<g>
		<g>
			<path class="st36" d="M845.6,201.5c0.3,2,0.3,3.8-0.1,5.8"/>
		</g>
		<g>
			<path class="st36" d="M846,201.8c0.3,2,0.3,3.8-0.1,5.8"/>
		</g>
		<g>
			<path class="st36" d="M844,201.6c0.9,2,1,3.8,1,5.8"/>
		</g>
		<g>
			<path class="st36" d="M843.4,201.3c0.3,2,0.3,3.8-0.1,5.9"/>
		</g>
		<g>
			<path class="st36" d="M843.2,201.5c0.3,2,0.3,3.8-0.1,5.9"/>
		</g>
		<g>
			<path class="st36" d="M841.6,201.5c0.9,1.8,1.4,3.7,1.4,5.8"/>
		</g>
		<g>
			<path class="st36" d="M840.6,201.6c1.3,1.8,1.7,3.4,2.1,5.5"/>
		</g>
		<g>
			<path class="st36" d="M839.5,201.8c1.4,1.7,2.3,3.3,3,5.2"/>
		</g>
	</g>
	<g>
		<g>
			<path class="st36" d="M837,202.3c1.3,2,2,3.8,2.1,6.1"/>
		</g>
		<g>
			<path class="st36" d="M837.6,202.5c1.3,2,2,3.8,2.1,6.1"/>
		</g>
		<g>
			<path class="st36" d="M835.6,203.2c1.7,1.7,2.6,3.3,3.6,5.4"/>
		</g>
		<g>
			<path class="st36" d="M834.9,203.2c1.3,2,2,3.8,2.3,6.1"/>
		</g>
		<g>
			<path class="st36" d="M834.5,203.3c1.3,2,2,3.8,2.3,6.1"/>
		</g>
		<g>
			<path class="st36" d="M832.9,204.2c1.7,1.4,3,3.1,3.8,5.2"/>
		</g>
		<g>
			<path class="st36" d="M831.8,204.6c2,1.3,3.3,2.8,4.5,4.8"/>
		</g>
		<g>
			<path class="st36" d="M830.7,205.3c2.3,1,3.8,2.3,5.4,4"/>
		</g>
	</g>
	<g>
		<g>
			<path class="st36" d="M829.2,206c1.6,1.3,2.8,3,3.7,4.8"/>
		</g>
		<g>
			<path class="st36" d="M829.7,206c1.6,1.3,2.8,3,3.7,4.8"/>
		</g>
		<g>
			<path class="st36" d="M828.4,207.3c2,1,3.1,2.3,4.5,4"/>
		</g>
		<g>
			<path class="st36" d="M827.8,207.3c1.6,1.3,2.8,3,3.7,4.8"/>
		</g>
		<g>
			<path class="st36" d="M827.4,207.5c1.6,1.3,2.8,3,3.7,4.8"/>
		</g>
		<g>
			<path class="st36" d="M826.5,208.5c2,1,3.3,2.1,4.7,3.7"/>
		</g>
		<g>
			<path class="st36" d="M825.8,209.4c2,0.7,3.6,1.7,5.1,3.1"/>
		</g>
		<g>
			<path class="st36" d="M825.1,210.1c2.1,0.4,3.8,1.1,5.5,2.3"/>
		</g>
	</g>
	<g>
		<g>
			<path class="st36" d="M825.1,208.7c1.7,0.8,3,1.7,4.1,3.1"/>
		</g>
		<g>
			<path class="st36" d="M825.7,208.7c1.7,0.7,3,1.7,4.1,3.1"/>
		</g>
		<g>
			<path class="st36" d="M824.3,209.8c2,0.4,3.6,1.1,4.8,2.3"/>
		</g>
		<g>
			<path class="st36" d="M823.8,210c1.7,0.7,3,1.7,4.1,3.1"/>
		</g>
		<g>
			<path class="st36" d="M823.4,210.1c1.7,0.7,3,1.7,4.1,3.1"/>
		</g>
		<g>
			<path class="st36" d="M822.4,211.4c2,0.3,3.6,1,5.3,2"/>
		</g>
		<g>
			<path class="st36" d="M821.7,211.9c2.1,0.1,3.7,0.7,5.5,1.4"/>
		</g>
		<g>
			<path class="st36" d="M821,212.8c2.1-0.1,4,0.1,6,0.7"/>
		</g>
	</g>
	<g>
		<g>
			<path class="st36" d="M873.8,208.3c-0.3,3.8-0.9,7.3-2.1,11"/>
		</g>
		<g>
			<path class="st36" d="M874.4,208.8c-0.1,3.8-0.9,7.3-2.1,11"/>
		</g>
		<g>
			<path class="st36" d="M871.6,207.3c0.3,4.1,0.3,7.9-0.1,12"/>
		</g>
		<g>
			<path class="st36" d="M870.9,206.3c-0.3,3.8-0.9,7.3-2.1,11"/>
		</g>
		<g>
			<path class="st36" d="M870.1,206c-0.3,3.8-0.9,7.3-2.1,11"/>
		</g>
		<g>
			<path class="st36" d="M867.9,204.6c0.6,4.1,0.7,8.2,0.3,12.4"/>
		</g>
		<g>
			<path class="st36" d="M866.2,203.6c1,4.2,1.4,8.5,1.6,13"/>
		</g>
		<g>
			<path class="st36" d="M864.3,202.7c1.4,4.2,2.3,8.6,3,13.1"/>
		</g>
	</g>
	<g>
		<path class="st37" d="M871.6,221.1c-20-12.4-23.6-18.2-45.6-6.2c-0.6-1.4-1-3-2-4.2c21.5-11,29.1-10,51,0.4
			C874.4,214.6,873.1,218,871.6,221.1z"/>
	</g>
	<g>
		<g>
			<path class="st36" d="M863.5,201.2c0.6,4,0.3,7.9,0,11.9"/>
		</g>
		<g>
			<path class="st36" d="M864,201.6c0.6,4.1,0.3,8.1,0.1,12.2"/>
		</g>
		<g>
			<path class="st36" d="M861.3,201.5c1.3,3.8,1.6,7.8,1.7,11.6"/>
		</g>
		<g>
			<path class="st36" d="M860.6,201.2c0.3,3.7,0,7.2-0.3,10.9"/>
		</g>
		<g>
			<path class="st36" d="M859.9,201.3c0.3,3.7,0.1,7.1-0.3,10.6"/>
		</g>
		<g>
			<path class="st36" d="M857.6,201.6c1.4,3.3,1.7,6.8,2.1,10.3"/>
		</g>
		<g>
			<path class="st36" d="M855.9,201.9c2,3.1,2.6,6.2,3.1,9.6"/>
		</g>
		<g>
			<path class="st36" d="M854.1,202.5c2.3,2.7,3.6,5.5,4.5,8.9"/>
		</g>
	</g>
</g>
<g>
	<g>
		<g>
			<path class="st36" d="M923.4,201.2c-0.1,2.4,0.1,4.8,0.7,7.2"/>
		</g>
		<g>
			<path class="st36" d="M923.1,201.6c-0.1,2.4,0.1,4.8,0.7,7.2"/>
		</g>
		<g>
			<path class="st36" d="M925.1,201.3c-0.7,2.4-0.9,4.5-0.7,7.2"/>
		</g>
		<g>
			<path class="st36" d="M925.8,200.9c-0.3,2.4,0,4.5,0.7,7.1"/>
		</g>
		<g>
			<path class="st36" d="M926.3,200.9c-0.3,2.4,0,4.5,0.7,7.1"/>
		</g>
		<g>
			<path class="st36" d="M928,200.8c-0.9,2.3-1.3,4.5-1,7.1"/>
		</g>
		<g>
			<path class="st36" d="M929.2,200.8c-1.3,2.3-1.7,4.4-2,6.9"/>
		</g>
		<g>
			<path class="st36" d="M930.4,200.9c-1.4,2.1-2.3,4.1-3,6.5"/>
		</g>
	</g>
	<g>
		<g>
			<path class="st36" d="M930.4,201.2c-0.3,2-0.3,3.8,0.1,5.8"/>
		</g>
		<g>
			<path class="st36" d="M930.1,201.5c-0.3,2-0.3,3.8,0.1,5.8"/>
		</g>
		<g>
			<path class="st36" d="M931.9,201.3c-0.9,2-1,3.8-1,5.8"/>
		</g>
		<g>
			<path class="st36" d="M932.5,201.2c-0.3,2-0.3,3.8,0.1,5.9"/>
		</g>
		<g>
			<path class="st36" d="M932.8,201.2c-0.3,2-0.3,3.8,0.1,5.9"/>
		</g>
		<g>
			<path class="st36" d="M934.5,201.2c-0.9,1.8-1.4,3.7-1.4,5.8"/>
		</g>
		<g>
			<path class="st36" d="M935.5,201.3c-1.3,1.8-1.7,3.4-2.1,5.5"/>
		</g>
		<g>
			<path class="st36" d="M936.5,201.5c-1.4,1.7-2.3,3.3-3,5.2"/>
		</g>
	</g>
	<g>
		<g>
			<path class="st36" d="M938.8,201.9c-1.3,2-2,3.8-2.1,6.1"/>
		</g>
		<g>
			<path class="st36" d="M938.3,202.2c-1.3,2-2,3.8-2.1,6.1"/>
		</g>
		<g>
			<path class="st36" d="M940.3,202.7c-1.7,1.7-2.6,3.3-3.6,5.4"/>
		</g>
		<g>
			<path class="st36" d="M941,202.7c-1.3,2-2,3.8-2.3,6.1"/>
		</g>
		<g>
			<path class="st36" d="M941.6,202.9c-1.3,2-2,3.8-2.3,6.1"/>
		</g>
		<g>
			<path class="st36" d="M943.2,203.7c-1.7,1.4-3,3.1-3.8,5.2"/>
		</g>
		<g>
			<path class="st36" d="M944.2,204.3c-2,1.3-3.3,2.8-4.5,4.8"/>
		</g>
		<g>
			<path class="st36" d="M945.4,204.9c-2.3,1-3.8,2.3-5.4,4"/>
		</g>
	</g>
	<g>
		<g>
			<path class="st36" d="M946.9,205.7c-1.6,1.3-2.8,3-3.7,4.8"/>
		</g>
		<g>
			<path class="st36" d="M946.3,205.7c-1.6,1.3-2.8,3-3.7,4.8"/>
		</g>
		<g>
			<path class="st36" d="M947.7,206.8c-2,1-3.1,2.3-4.5,4"/>
		</g>
		<g>
			<path class="st36" d="M948.3,207c-1.6,1.3-2.8,3-3.7,4.8"/>
		</g>
		<g>
			<path class="st36" d="M948.4,207.3c-1.6,1.3-2.8,3-3.7,4.8"/>
		</g>
		<g>
			<path class="st36" d="M949.4,208.4c-2,1-3.3,2.1-4.7,3.7"/>
		</g>
		<g>
			<path class="st36" d="M950.1,209c-2,0.7-3.6,1.7-5.1,3.1"/>
		</g>
		<g>
			<path class="st36" d="M950.8,209.8c-2.1,0.4-3.8,1.1-5.5,2.3"/>
		</g>
	</g>
	<g>
		<g>
			<path class="st36" d="M950.8,208.5c-1.7,0.8-3,1.7-4.1,3.1"/>
		</g>
		<g>
			<path class="st36" d="M950.3,208.4c-1.7,0.7-3,1.7-4.1,3.1"/>
		</g>
		<g>
			<path class="st36" d="M951.7,209.5c-2,0.4-3.6,1.1-4.8,2.3"/>
		</g>
		<g>
			<path class="st36" d="M952.3,209.7c-1.7,0.7-3,1.7-4.1,3.1"/>
		</g>
		<g>
			<path class="st36" d="M952.5,210c-1.7,0.7-3,1.7-4.1,3.1"/>
		</g>
		<g>
			<path class="st36" d="M953.4,210.9c-2,0.3-3.6,1-5.3,2"/>
		</g>
		<g>
			<path class="st36" d="M954.4,211.6c-2.1,0.1-3.7,0.7-5.5,1.4"/>
		</g>
		<g>
			<path class="st36" d="M954.8,212.5c-2.1-0.1-4,0.1-6,0.7"/>
		</g>
	</g>
	<g>
		<g>
			<path class="st36" d="M902.1,207.8c0.3,3.8,0.9,7.3,2.1,11"/>
		</g>
		<g>
			<path class="st36" d="M901.7,208.7c0.1,3.8,0.9,7.3,2.1,11"/>
		</g>
		<g>
			<path class="st36" d="M904.4,206.8c-0.3,4.1-0.3,7.9,0.1,12"/>
		</g>
		<g>
			<path class="st36" d="M905.1,206c0.3,3.8,0.9,7.3,2.1,11"/>
		</g>
		<g>
			<path class="st36" d="M905.8,205.7c0.3,3.8,0.9,7.3,2.1,11"/>
		</g>
		<g>
			<path class="st36" d="M908.1,204.3c-0.6,4.1-0.7,8.2-0.3,12.4"/>
		</g>
		<g>
			<path class="st36" d="M909.8,203.3c-1,4.2-1.4,8.5-1.6,13"/>
		</g>
		<g>
			<path class="st36" d="M911.8,202.5c-1.4,4.2-2.3,8.6-3,13.1"/>
		</g>
	</g>
	<g>
		<path class="st37" d="M904.4,220.8c20-12.4,23.6-18.2,45.6-6.2c0.6-1.4,1-3,2-4.2c-21.5-11-29.1-10-51,0.4
			C901.7,214.5,902.8,217.7,904.4,220.8z"/>
	</g>
	<g>
		<g>
			<path class="st36" d="M912.5,200.9c-0.6,4-0.3,7.9,0,11.9"/>
		</g>
		<g>
			<path class="st36" d="M911.9,201.3c-0.6,4.1-0.3,8.1-0.1,12.2"/>
		</g>
		<g>
			<path class="st36" d="M914.8,201.2c-1.3,3.8-1.6,7.8-1.7,11.6"/>
		</g>
		<g>
			<path class="st36" d="M915.5,200.8c-0.3,3.7,0,7.2,0.3,10.9"/>
		</g>
		<g>
			<path class="st36" d="M916.2,200.9c-0.3,3.7-0.1,7.1,0.3,10.6"/>
		</g>
		<g>
			<path class="st36" d="M918.3,201.3c-1.4,3.3-1.7,6.8-2.1,10.3"/>
		</g>
		<g>
			<path class="st36" d="M920.2,201.6c-2,3.1-2.6,6.2-3.1,9.6"/>
		</g>
		<g>
			<path class="st36" d="M921.9,202.2c-2.3,2.7-3.6,5.5-4.5,8.9"/>
		</g>
	</g>
</g>
</svg>
