<svg id="Layer_1" data-name="Layer 1" xmlns="http://www.w3.org/2000/svg" viewBox="0 0 222.1 137.48"><defs><style>.cls-1{fill:#1a4adc;}.cls-2{fill:#eb0005;}</style></defs><path class="cls-1" d="M178.87,22.2,91.65,20.87c-37.27-.58-67.88,29.5-68.33,67.06S52.59,156.43,89.86,157l87.32,1.32c37.27.58,67.89-29.41,68.23-67.05C246,53.71,216.14,22.78,178.87,22.2Z" transform="translate(-23.32 -20.86)"/><path class="cls-2" d="M106.56,75.66a15,15,0,0,1-.26,2.59,16.66,16.66,0,0,1-.46,2.52,4.9,4.9,0,0,1-.82,1.78,2.44,2.44,0,0,1-.19.44,1.24,1.24,0,0,1-.25.35c-.25.43-.5.86-.77,1.28a8.69,8.69,0,0,1-.88,1.21l-.18.18-.25.25-.51.5a6.86,6.86,0,0,0-.81.71,1,1,0,0,0-.22.28,1.94,1.94,0,0,0-.15.36l-.45,1c-.2.48-.38,1-.55,1.44A15,15,0,0,1,99.17,92l-.22.51a2.8,2.8,0,0,1-.44.64,1.52,1.52,0,0,1-.37.5,1.49,1.49,0,0,1-.37.14l-.12,1a7,7,0,0,1-.19,1.11,2.75,2.75,0,0,0-.15.36c0,.15-.12.22-.22.22s-.15,0-.17-.19a.81.81,0,0,0-.11-.33,3.71,3.71,0,0,1-.17-.94,1.17,1.17,0,0,0-.31-.79l-.22.22a3.09,3.09,0,0,0-.44.57,4.15,4.15,0,0,1-.73.78,10.7,10.7,0,0,0,0,2.77,4.51,4.51,0,0,1-.39,2.63c-.2.37-.3.29-.32-.26a18.17,18.17,0,0,1,.06-2.09,12.2,12.2,0,0,0,0-1.91,3.79,3.79,0,0,0-.12-1.16,7.48,7.48,0,0,1-.39-.65,6.16,6.16,0,0,1-.53-.8,2.5,2.5,0,0,0-.6-.73,5.44,5.44,0,0,1-.19.57,1.62,1.62,0,0,0-.11.65c-.07.53-.12,1.32-.15,2.38s-.07,2.17-.08,3.35,0,2.28-.08,3.34S92,105.77,92,106.3c-.07,1.2-.14,2.21-.22,3s-.16,1.59-.21,2.3a7.1,7.1,0,0,1-.25,1.52h-.1c-.09,0-.11-.1-.1-.14A6.42,6.42,0,0,1,91,111.8l-.14-1.3c-.08-.76-.07-1.54-.11-2.3s-.07-1.54-.11-2.31c0-1-.07-1.93-.11-2.91s-.07-2-.1-2.92-.06-2.1-.07-3.14,0-2.08-.13-3.13c0,.06,0,0-.11-.18a1,1,0,0,0-.32-.33,4.74,4.74,0,0,0-.31-.54l-.39-.55L88.91,92a1.44,1.44,0,0,1-.15.36,3.15,3.15,0,0,1-1.17,1,.23.23,0,0,0-.15.1c0,.1-.09.08-.14,0a1.7,1.7,0,0,1-.1-.37,1.47,1.47,0,0,1,0-.36.13.13,0,0,0-.15.11v0q-.08.5-.12,1.08a7.35,7.35,0,0,1-.2,1.14,4.1,4.1,0,0,1-.27.86,8.07,8.07,0,0,0-.33.94l-.92,3.11a4.93,4.93,0,0,1-.26.93l-.33.86-.23.43a1.15,1.15,0,0,1-.36.43c-.24.14-.45,0-.65-.37a8.62,8.62,0,0,0-.41-.8l-.18-.29a1.75,1.75,0,0,1-.18-.29c0-1,0-2-.06-3s-.06-2-.14-3.1c0,0,0-.07-.07-.08a.18.18,0,0,1-.15-.07l-.5-.43a4.61,4.61,0,0,1-.74-.85c-.21-.31-.43-.64-.66-.93l-.43-.59-.14.07-.16,11.23a11.36,11.36,0,0,1,.09,1.3,4.32,4.32,0,0,1-.13,1.29l0,.15a.18.18,0,0,0-.08.14,1.1,1.1,0,0,1-.29.5,3.71,3.71,0,0,1-.87.71l-.6.85-.33.32c-.16.17-.27.25-.32.25-.06.63-.1,1.26-.13,1.91a17.25,17.25,0,0,1-.21,1.9,9.91,9.91,0,0,0-.09,1.33,5.9,5.9,0,0,1-.16,1.33,1.27,1.27,0,0,0,0,.58c0,.24-.07.33-.27.28s-.2-.11-.17-.32a2.07,2.07,0,0,0-.06-.61,14.77,14.77,0,0,1-.22-2c0-.45,0-.9,0-1.36a9,9,0,0,0-.37-1.92l-.73.72h-.07a.48.48,0,0,1-.22.15.55.55,0,0,0-.08.29.21.21,0,0,1-.15.2s-.08,0-.1-.14a.33.33,0,0,0-.18-.22.69.69,0,0,0-.18.36.62.62,0,0,1-.18.35.27.27,0,0,0-.08.22.24.24,0,0,1-.15.22c-.18,0-.28-.1-.28-.36l-.07-.7a2,2,0,0,0-.17-.62v-.14a2.47,2.47,0,0,1-.5-.52l-.42-.57-.57-.8-.14-.15a.74.74,0,0,0-.14-.22,1.07,1.07,0,0,0-.22-.15l-.21.44c-.25.37-.57.81-1,1.31a2.2,2.2,0,0,1-1.38.88c-.58.14-.85-.06-.78-.59a8.34,8.34,0,0,0,0-1.58l-.43.43a.76.76,0,0,1-.22.22.41.41,0,0,1-.11.07.14.14,0,0,0-.11.06,1.15,1.15,0,0,0-.11.36.6.6,0,0,1-.19.36c-.19.19-.32.21-.36,0a.78.78,0,0,1-.13-.47,1.23,1.23,0,0,0-.14-.53c0-.06-.11-.11-.18-.19l-.25-.25-.42-.66a1.26,1.26,0,0,0-.08.47.59.59,0,0,1-.15.4.4.4,0,0,1-.29-.15,1.51,1.51,0,0,1-.28-.22l-.79-.67c-.28.09-.45,0-.5,0-.14-.29-.24-.42-.28-.4a.33.33,0,0,1-.22,0,4,4,0,0,1-.49-.29,1.9,1.9,0,0,1-.78-1.6L61.46,59a3.84,3.84,0,0,1,0-.76,1,1,0,0,1,.33-.68,1.41,1.41,0,0,1,.87-.64,2.9,2.9,0,0,1,.65-.14,1.78,1.78,0,0,1,.65-.06c.31,0,.62,0,.93,0l7.2.1,3,0,4.76,0c1.72,0,3.28,0,4.68.1h.64c.92,0,1.8.07,2.66.15l2.53.29a21.9,21.9,0,0,1,2.9.37,11.24,11.24,0,0,1,2.48.74,3.87,3.87,0,0,1,1.29.74l.29.15a.05.05,0,0,1,.06.05s0,0,0,0a18.42,18.42,0,0,1,3.5,2.07.58.58,0,0,1,.32.21,2.35,2.35,0,0,0,.33.37q.91.87,1.77,1.83c.14.19.28.37.43.54a3.5,3.5,0,0,1,.41.62,5.36,5.36,0,0,1,.71,1.31,15.12,15.12,0,0,1,1.38,4.08,22.67,22.67,0,0,1,.38,4.58Zm-27-5.27L79.47,77a11.57,11.57,0,0,1,3.82-1.89,16.68,16.68,0,0,1,4.32-.66,3.81,3.81,0,0,0-.53-2.75,1.93,1.93,0,0,0-.28-.36,2,2,0,0,0-.36-.3l-.36-.22a2.07,2.07,0,0,0-.89-.08l-.92.1-1,.11a4.26,4.26,0,0,1-1-.06,8.87,8.87,0,0,1-1-.18,9,9,0,0,0-1-.2A6.15,6.15,0,0,1,79.56,70.39Z" transform="translate(-23.32 -20.86)"/><path class="cls-2" d="M127.6,106a2.37,2.37,0,0,1-.16.79l-.15.29-.07.06a1.32,1.32,0,0,1-.48.54l-.47.39-.07.07v.14c-.09.23-.19.35-.28.35-.2.28-.38.57-.55.86a4.36,4.36,0,0,1-.64.78,3.74,3.74,0,0,1-.68.64,6.61,6.61,0,0,0-.77.63,3,3,0,0,0-.59.79,1.38,1.38,0,0,1-.18.39,3.37,3.37,0,0,0-.19.32,8.82,8.82,0,0,0-.67,1.58,6.9,6.9,0,0,1-.83,1.65,1.11,1.11,0,0,1-.51.56c-.1.24-.19.48-.27.73s-.33.53-.62.48c-.09,0-.2-.08-.32-.24a2.62,2.62,0,0,0-.24-.34,5.38,5.38,0,0,1-.38-.66,1.93,1.93,0,0,0-.43-.66,1,1,0,0,1-.21-.29,4,4,0,0,1-.64-.66,2.75,2.75,0,0,0-.17-.29.7.7,0,0,0-.26-.22,7.48,7.48,0,0,1-.84-1.42c-.23-.5-.46-.95-.7-1.48l-.14-.44a2.39,2.39,0,0,0-.2-.43l-.43-.87a7.88,7.88,0,0,0-1.06-1.46c0,.14,0,.22-.14.22s-.1-.06-.14-.18a1.08,1.08,0,0,0-.14-.26.22.22,0,0,0-.08-.14,10.72,10.72,0,0,0-.32,2.19c0,1-.08,2-.07,3s0,1.76,0,2.34,0,.7-.09.36a13.09,13.09,0,0,1-.23-4,17,17,0,0,0-.15-4.22,1.3,1.3,0,0,1-.26-.14,1.58,1.58,0,0,0-.24-.15,1.79,1.79,0,0,1-.77-1.45,7.7,7.7,0,0,1,0-1.44c0-.47,0-.94,0-1.37l.59-42.83c0-.49,0-1,0-1.52a2.07,2.07,0,0,1,.41-1.36l.36-.45a1.86,1.86,0,0,1,1.16-.34l12,.15a6.09,6.09,0,0,1,.75,0,1.64,1.64,0,0,1,.76.12l.39.18a1.92,1.92,0,0,1,.32.26,1.77,1.77,0,0,1,.28.43,1.63,1.63,0,0,1,.28,1l-.63,44.92a8.27,8.27,0,0,0,.11,1A4.75,4.75,0,0,1,127.6,106Z" transform="translate(-23.32 -20.86)"/><path class="cls-2" d="M172.74,106.1a1.05,1.05,0,0,1-.07.43,2.14,2.14,0,0,1-.38,1.36,1.3,1.3,0,0,1-.3.32l-.43.32c-.54.52-.79.94-.74,1.28a1.43,1.43,0,0,0,.42.87,1.52,1.52,0,0,1,.42.87c0,.34-.21.77-.74,1.29a3.43,3.43,0,0,0-.11.46.68.68,0,0,1-.19.4.77.77,0,0,1-.28-.37c-.14-.3-.05-.51-.13-.79a5,5,0,0,1-.09-.86,10.45,10.45,0,0,1,0-1.37,2.4,2.4,0,0,0-.31-1l-.29.29-.4.35a2.78,2.78,0,0,0-.41.43c-.19.28-.39.56-.58.86l-.59.85a1.65,1.65,0,0,0-.22.36.82.82,0,0,1-.29.35q-.36.15-.57-.36a2.32,2.32,0,0,0-.35-.66,3,3,0,0,1-.11-.43,1.06,1.06,0,0,0-.16-.43,2.61,2.61,0,0,1-.44-.37,1.94,1.94,0,0,1-.21-.29l-.7-.88-.36-.37a.47.47,0,0,1-.36-.07l-.36-.22a1.63,1.63,0,0,0-.37.43,4.43,4.43,0,0,0-1,1.17c-.27.45-.52.92-.78,1.4a2.8,2.8,0,0,1-.25.35,2,2,0,0,1-.41.35c-.1.1-.16.15-.21.15,0,.28-.09.58-.13.89a3.42,3.42,0,0,1-.18.9l-.18,0a.27.27,0,0,1-.1-.18,2.39,2.39,0,0,1-.09-.84,3.62,3.62,0,0,0-.24-1.12c-.05,0-.09,0-.14-.08a.6.6,0,0,0-.14-.21.4.4,0,0,0-.21-.29l-.63-1.09-.85-1.38a2.52,2.52,0,0,0-.21-.54c-.1-.17-.19-.33-.28-.47l-.07-.08a2.22,2.22,0,0,1-.57-.72.17.17,0,0,0,0-.12.14.14,0,0,1,0-.11,3.81,3.81,0,0,1-.09-.82c0-.31,0-.71,0-1.19v-.58a1.06,1.06,0,0,0-.22.29l-.22.21a9.74,9.74,0,0,1-1.45,1.42,6.4,6.4,0,0,0-.45,1.47,5.87,5.87,0,0,1-.53,1.47,2.73,2.73,0,0,1-.26.61,1.87,1.87,0,0,1-.47.54,1.17,1.17,0,0,1-.4.13l-.39,0a1.57,1.57,0,0,1,0-.48,1.17,1.17,0,0,1,0-.46,2,2,0,0,1-.19.39,1.59,1.59,0,0,1-.26.32.61.61,0,0,1-.21.24l-.3.26c-.15.77-.27,1.49-.35,2.18l-.28,2.2c-.05.19-.11.39-.16.61a3.41,3.41,0,0,1-.23.68.75.75,0,0,1-.22.57.34.34,0,0,1-.28-.14c-.15-.16-.1-.21-.14-.33a3.09,3.09,0,0,0-.14-.32,11.69,11.69,0,0,0-.27-1.19,6.17,6.17,0,0,0-.35-1.13,1.79,1.79,0,0,0-.14-.61c-.09-.21,0-.43-.13-.62a2.52,2.52,0,0,1-.1-.46,1.76,1.76,0,0,0-.17-.55l-.21-.22c-.15-.2-.29-.4-.43-.61s-.28-.43-.42-.62a1.39,1.39,0,0,0-.21-.4,2.31,2.31,0,0,1-.28-.48l-.14-.24a.57.57,0,0,0-.22-.19h-.58a15.81,15.81,0,0,1-8-2.34,11.09,11.09,0,0,1-4.59-5.39l-.14-.44a4.14,4.14,0,0,0-.13-.43.77.77,0,0,0,0-.15.22.22,0,0,1,0-.14,3.56,3.56,0,0,0-.14-.68,5.2,5.2,0,0,0-.13-.62,5.51,5.51,0,0,1-.1-.9,6.69,6.69,0,0,1,0-.9,2.89,2.89,0,0,1,0-.5,2.92,2.92,0,0,0,0-.51l.08-.5a8.89,8.89,0,0,1,.68-2.08,10.22,10.22,0,0,1,3.15-3.93q.44-.34.87-.63c.29-.18.6-.38.94-.56l1-.5a3.44,3.44,0,0,1,.36-.28,1.58,1.58,0,0,1,.44-.2.75.75,0,0,1,.36-.22l.44-.14a10,10,0,0,1,1.62-.55l1.7-.41c.67-.18,1.36-.34,2.06-.47l2.2-.41,1.73-.26q1-.1,2-.3c.64-.07,1.3-.21,2-.29a.68.68,0,0,0,.37,0l1.59-.27V83c0,.19,0,.14,0-.15l-.05-.49,0-.19c0-.19,0-.23,0-.18a.39.39,0,0,0,0-.15.33.33,0,0,1,0-.14,2.31,2.31,0,0,0-.57-.88H155l-.13,0a1.12,1.12,0,0,0-.33.28,1.83,1.83,0,0,0-.26.36l-.52.89a1.61,1.61,0,0,1-.73.75c-.33.19-.65.07-.93-.37a7.07,7.07,0,0,0-.7-.93.51.51,0,0,0-.21-.15l-.66.64-.44.28-.44.29a3.53,3.53,0,0,1-.9.3c-.31.08-.62.16-.91.25-.57.18-1.13.38-1.7.58a8.1,8.1,0,0,1-1.69.45,2.85,2.85,0,0,1-2.06-.49,3.14,3.14,0,0,0-2-.56c-.67,0-1.33,0-2-.11a10.19,10.19,0,0,1-2-.38,1.38,1.38,0,0,0-.36-.15.21.21,0,0,0-.15.07.09.09,0,0,1-.12,0h0a.72.72,0,0,1-.11-.15.38.38,0,0,0-.18-.15,2.44,2.44,0,0,0-.35-.43,1.53,1.53,0,0,1-.21-.37,2,2,0,0,1-.1-.9,5,5,0,0,1,.24-.9c0-.13.09-.28.14-.42a5,5,0,0,0,.15-.5,15,15,0,0,1,3.55-4.28,14.14,14.14,0,0,1,2.58-1.62,6.29,6.29,0,0,1,1.38-.84,8.08,8.08,0,0,1,1.56-.56,16.45,16.45,0,0,1,1.7-.33,29.51,29.51,0,0,1,3.6-.64,35.54,35.54,0,0,1,4.26-.19l1.44,0h.79a1.83,1.83,0,0,1,.57.08l.5.08.36,0a3,3,0,0,1,1.36.23,10.83,10.83,0,0,1,2.45.47c.57.1,1.14.22,1.69.37a6.68,6.68,0,0,1,1.47.6,7.91,7.91,0,0,1,1.82.9c.6.39,1.09.79,1.6,1.16,0,0,0,.08.07.08a3.09,3.09,0,0,1,.39.33c.12.13.22.24.32.33a12.8,12.8,0,0,1,4,8.33.29.29,0,0,1,0,.22,16.75,16.75,0,0,1,.13,3c0,1-.05,2-.07,3l-.2,14.9c0,.23,0,.5,0,.79A5.3,5.3,0,0,1,172.74,106.1Zm-17-12.28V93s0,0-.14,0l-.19,0a.37.37,0,0,1-.18,0,3.91,3.91,0,0,1-.65.24,3.28,3.28,0,0,0-.73.24,5.75,5.75,0,0,1-1.48.38,11.64,11.64,0,0,0-1.55.23,7.06,7.06,0,0,0-.79.21,4.37,4.37,0,0,0-.8.34,2,2,0,0,0-.44.43,2.2,2.2,0,0,0-.52,1.29,2.64,2.64,0,0,0,.48,1.3l.32.19.4.26.36.14a7.09,7.09,0,0,1,1,.12,3.62,3.62,0,0,0,.87,0,4.1,4.1,0,0,0,3.79-3.48,2.63,2.63,0,0,0,.15-.79.26.26,0,0,1,.07-.24Z" transform="translate(-23.32 -20.86)"/><path class="cls-2" d="M219.59,74.41a3.13,3.13,0,0,1-.19.51c-.07.13-.17.3-.26.5a.15.15,0,0,0-.07.14.22.22,0,0,1-.08.14l-.89,1.87-1.79,4c-.19.62-.42,1.23-.67,1.83l-.74,1.75a13.14,13.14,0,0,1-1,2l-.52,1.06q-1.2,3.21-2.37,6.09a12.23,12.23,0,0,1-2,3.71l-.22.57c-.36,1.15-.77,2.22-1.09,3.19a7.88,7.88,0,0,1-1.14,2.19,1.58,1.58,0,0,0-.16.35c-.19.53-.39,1-.59,1.54s-.43,1-.67,1.47c-.3.77-.6,1.52-.89,2.29a17.47,17.47,0,0,1-1,2.11,1.89,1.89,0,0,0-.16.36l-.44.86c-.5,1.19-1,2.21-1.41,3a16.35,16.35,0,0,1-1,1.75,8.65,8.65,0,0,0-.52,1.21.22.22,0,0,0-.08.15.16.16,0,0,1-.06.13,3,3,0,0,1-.31.65c-.05.2-.1.36-.15.5a1.75,1.75,0,0,1-.22.43,5.26,5.26,0,0,1-.59,1,5,5,0,0,1-.65.57,3.56,3.56,0,0,0-.34.89q-.12.47-.27.9l-.83,2.48a1.78,1.78,0,0,0-.16.51c-.05.23-.1.3-.15.2a10.69,10.69,0,0,1-.11-1.79,13.64,13.64,0,0,0-.12-1.81l-1.42.84a3.76,3.76,0,0,1-1.48.56,1,1,0,0,1-.83-.22c-.21-.2-.41-.39-.6-.59a3.06,3.06,0,0,1-.57-.8l-.14-.21h-.14a3.29,3.29,0,0,0-.12,1.08,2.85,2.85,0,0,1-.2,1.15c-.05.09-.1,0-.14-.18a1.59,1.59,0,0,0-.14-.47l-.15-1.45a1.75,1.75,0,0,1-.67.93.39.39,0,0,1-.29.14q-.07.38-.12.75a2.48,2.48,0,0,1-.18.76c-.06,0-.11,0-.18-.11a.76.76,0,0,1-.11-.32,6,6,0,0,1-.07-.73,2.14,2.14,0,0,0-.17-.66l-.33-.32a3.9,3.9,0,0,1-.31-.4l-.36-.37a.33.33,0,0,1-.15.36c-.09,0-.19-.12-.56-.51,0,0,0,.07,0,.07s0,0,0,.06c-.06.72-.09,1.43-.1,2.13a16.68,16.68,0,0,1-.17,2.12,2.58,2.58,0,0,0-.09.62.7.7,0,0,1-.21.53c-.06,0-.11,0-.19-.15s-.13-.26-.17-.36l-.12-1.12-.11-1a5,5,0,0,1,.09-1.44,2.2,2.2,0,0,0-.16-1.51l-.15-.15-.13-.14a.44.44,0,0,1-.15-.05.51.51,0,0,0-.21,0,1.21,1.21,0,0,1-.58-.22,1.24,1.24,0,0,1-.35-.37,1.55,1.55,0,0,1-.29-.43.26.26,0,0,0,0-.15.39.39,0,0,1,0-.15l0-.43a.89.89,0,0,1,.07-.43.47.47,0,0,1,.07-.29,6.71,6.71,0,0,1,.34-.82l.34-.75.14-.36.12-.21a.33.33,0,0,1,.11-.15l1.34-3.22c.25-.67.51-1.32.8-1.94s.53-1.19.82-1.72a6.63,6.63,0,0,1,.34-.72q.18-.36.33-.63l.15-.43.74-1.8s0-.07,0-.06,0,0,.05-.08l.29-.64-.2-.51-.14-.29a13,13,0,0,1-1.42-2.68c-.6-1.4-1.25-3-1.93-4.83-.19-.38-.38-.79-.57-1.22s-.39-.92-.62-1.46a9.5,9.5,0,0,1-.94-2.31c-.31-1-.61-2.07-.93-3.18l-3.91-9.56c-.13-.38-.27-.75-.41-1.08s-.28-.68-.42-1c-.65-1.55-1.26-3-1.81-4.41a.94.94,0,0,1-.13-.44,1.46,1.46,0,0,1-.06-.51.37.37,0,0,1,.08-.22,1,1,0,0,1,.22-.63,1.58,1.58,0,0,1,.37-.36,1.64,1.64,0,0,1,1-.49,3.82,3.82,0,0,1,1.26-.06,9.3,9.3,0,0,0,1.19.09l9.5.13a3.08,3.08,0,0,1,.65,0l.44,0,.43.22a1,1,0,0,1,.57.37,3.14,3.14,0,0,1,.77,1.38c.13.53.25,1,.34,1.37s.36.89.52,1.38.33,1,.52,1.52c.09.24.2.51.31.83s.22.64.32,1l.55,1.67v.07l.28.72a1.66,1.66,0,0,0,.14.37c.23.72.48,1.45.73,2.16s.52,1.46.8,2.18l.62,1.88v.14a.49.49,0,0,1,.13.36c.09,0,.12.1.08.15s0,.1.21.14a.25.25,0,0,0,.08-.14l.21-.43.23-.72a.66.66,0,0,0,.08-.21.15.15,0,0,1,.07-.14l.22-.58v-.07l1.11-2.86a1.38,1.38,0,0,0,.15-.36c.26-.76.53-1.51.83-2.22l.79-2a.17.17,0,0,0,.07-.13.26.26,0,0,1,.07-.15l.37-.93c.15-.48.32-.93.49-1.36s.34-.89.49-1.36l.22-.5c.06-.15.1-.29.16-.43l.14-.44c.15-.37.32-.76.52-1.18a3.11,3.11,0,0,1,.81-1,3.42,3.42,0,0,1,2.09-.54,4.51,4.51,0,0,1,.8,0c.3,0,.55,0,.79,0l9.93.14a1.41,1.41,0,0,1,.87.23.51.51,0,0,1,.21.15s.1.09.14.14a1.42,1.42,0,0,1,.42,1V74a.17.17,0,0,0-.07.14v.07Z" transform="translate(-23.32 -20.86)"/></svg>