<svg id="Layer_1" data-name="Layer 1" xmlns="http://www.w3.org/2000/svg" viewBox="0 0 221.5 146.69"><defs><style>.cls-1{fill:#1a4adc;}.cls-2{isolation:isolate;}.cls-3{fill:#eb0005;}</style></defs><path class="cls-1" d="M212,85.3,125.4,74.8c-37-4.5-70.6,22.2-75,59.5s21.9,71.2,58.9,75.7L196,220.5c37,4.5,70.6-22.1,74.9-59.5C275.4,123.7,249,89.8,212,85.3Z" transform="translate(-49.9 -74.31)"/><g class="cls-2"><path class="cls-3" d="M134.47,130.86a16,16,0,0,1-.53,2.55,16.88,16.88,0,0,1-.73,2.45,4.72,4.72,0,0,1-1,1.69,2.82,2.82,0,0,1-.23.41,1.32,1.32,0,0,1-.29.33c-.29.4-.59.8-.9,1.19a9.11,9.11,0,0,1-1,1.11l-.2.16-.28.22-.56.44a9.16,9.16,0,0,0-.88.62,1,1,0,0,0-.24.26,1.4,1.4,0,0,0-.19.34l-.56,1c-.25.46-.48.91-.7,1.37a14.24,14.24,0,0,1-.78,1.35l-.28.48a2.63,2.63,0,0,1-.5.59,1.54,1.54,0,0,1-.42.46,1.58,1.58,0,0,1-.38.1c-.08.33-.16.67-.23,1a6.64,6.64,0,0,1-.31,1.09,2.1,2.1,0,0,0-.18.34c-.07.14-.15.2-.25.19s-.15,0-.15-.2a.75.75,0,0,0-.07-.34,3.64,3.64,0,0,1-.07-.95,1.16,1.16,0,0,0-.23-.82l-.24.19a3.76,3.76,0,0,0-.49.52,4.25,4.25,0,0,1-.81.7,10.52,10.52,0,0,0-.26,2.76,4.48,4.48,0,0,1-.67,2.57c-.24.35-.33.26-.29-.29a20.14,20.14,0,0,1,.28-2.07,12.94,12.94,0,0,0,.23-1.9,3.58,3.58,0,0,0,0-1.16c-.06-.11-.17-.34-.32-.69a6.79,6.79,0,0,1-.44-.85,2.58,2.58,0,0,0-.52-.79c-.07.18-.16.37-.25.55a1.72,1.72,0,0,0-.18.63c-.12.52-.25,1.3-.39,2.35s-.3,2.15-.44,3.32-.28,2.27-.43,3.32-.28,1.82-.39,2.34c-.19,1.19-.37,2.18-.54,3s-.32,1.56-.45,2.27a7.34,7.34,0,0,1-.4,1.48s0,0-.1,0-.1-.11-.09-.15a6.35,6.35,0,0,1,0-1.24c0-.43,0-.87,0-1.3,0-.77.09-1.54.13-2.3s.09-1.54.13-2.31c.07-1,.14-1.93.2-2.91s.14-2,.21-2.91.16-2.1.26-3.13.17-2.07.2-3.13c0,.06,0,0-.09-.19a1,1,0,0,0-.28-.36,4.94,4.94,0,0,0-.26-.57l-.33-.59-.12-.16a1.4,1.4,0,0,1-.19.34,3.11,3.11,0,0,1-1.26.87s-.1,0-.16.09-.1.07-.15,0a1.89,1.89,0,0,1-.06-.38,1.39,1.39,0,0,1,0-.36.13.13,0,0,0-.16.13c-.09.33-.17.68-.24,1.06a6.47,6.47,0,0,1-.32,1.12,4,4,0,0,1-.35.83,8.19,8.19,0,0,0-.43.89l-1.24,3a5.27,5.27,0,0,1-.36.9c-.16.32-.3.6-.42.82l-.27.4a1.08,1.08,0,0,1-.41.39c-.25.12-.45,0-.6-.43a6.6,6.6,0,0,0-.33-.84,2.89,2.89,0,0,0-.15-.31,1.73,1.73,0,0,1-.14-.31c.07-1,.16-2,.25-3s.16-2,.19-3.1c0,0,0-.07-.06-.08a.17.17,0,0,1-.14-.09l-.45-.48a4.62,4.62,0,0,1-.65-.92c-.18-.33-.36-.68-.56-1l-.36-.63-.15.06-1.34,11.15c0,.43,0,.87-.05,1.3a4.29,4.29,0,0,1-.26,1.27v.15a.17.17,0,0,0-.09.13,1.08,1.08,0,0,1-.35.47,3.47,3.47,0,0,1-.94.61l-.68.79-.36.28c-.18.15-.3.22-.35.21q-.18.93-.33,1.89a16.35,16.35,0,0,1-.41,1.87,13.23,13.23,0,0,0-.23,1.31,5.68,5.68,0,0,1-.3,1.31,1.42,1.42,0,0,0-.1.57c0,.24-.1.32-.29.25s-.19-.13-.14-.34a1.83,1.83,0,0,0,0-.61,13.83,13.83,0,0,1,0-2c0-.45.1-.9.13-1.36a9.14,9.14,0,0,0-.17-1.94l-.8.63h-.07a.44.44,0,0,1-.23.12.61.61,0,0,0-.11.28.22.22,0,0,1-.17.19q-.08,0-.09-.15a.32.32,0,0,0-.15-.24.65.65,0,0,0-.22.34.65.65,0,0,1-.22.33.28.28,0,0,0-.1.21.23.23,0,0,1-.17.2q-.28,0-.24-.39c0-.25,0-.48,0-.7a2,2,0,0,0-.1-.63s0-.07,0-.07,0,0,0-.08a2.42,2.42,0,0,1-.44-.56l-.36-.62-.48-.85-.12-.16a1.06,1.06,0,0,0-.12-.24.92.92,0,0,0-.2-.17l-.26.41c-.29.35-.65.75-1.09,1.21a2.21,2.21,0,0,1-1.47.73c-.59.07-.83-.15-.71-.67a8.3,8.3,0,0,0,.18-1.57l-.48.38s-.08.11-.24.19a.24.24,0,0,1-.11.06s-.07,0-.12.05a1.27,1.27,0,0,0-.15.35.65.65,0,0,1-.22.34c-.21.16-.34.17-.37,0a.87.87,0,0,1-.08-.48,1.23,1.23,0,0,0-.08-.55c0-.06-.1-.12-.16-.2l-.22-.28-.35-.7a1.36,1.36,0,0,0-.13.46.54.54,0,0,1-.19.38s-.14,0-.27-.18a1.2,1.2,0,0,1-.26-.25l-.71-.74c-.29.06-.46,0-.5-.06-.11-.3-.19-.44-.24-.43s-.12,0-.21-.06a3.67,3.67,0,0,1-.46-.34,1.86,1.86,0,0,1-.6-1.67l5.5-45.89a5.3,5.3,0,0,1,.12-.75,1.12,1.12,0,0,1,.4-.64,1.39,1.39,0,0,1,.94-.54,2.27,2.27,0,0,1,.66-.07,1.75,1.75,0,0,1,.65,0,9.2,9.2,0,0,0,.92.15l7.15.86,3,.36,4.73.53c1.71.18,3.26.38,4.64.59l.64.07c.91.11,1.78.25,2.63.43s1.68.36,2.48.55a23,23,0,0,1,2.85.67,11.37,11.37,0,0,1,2.39,1,3.93,3.93,0,0,1,1.2.87l.27.18a.06.06,0,0,1,.06.08,18.52,18.52,0,0,1,3.26,2.42.63.63,0,0,1,.3.25,2.73,2.73,0,0,0,.28.4c.55.64,1.07,1.31,1.57,2,.12.21.24.4.37.59a4,4,0,0,1,.35.66,5.47,5.47,0,0,1,.56,1.37,15.3,15.3,0,0,1,.95,4.21,23,23,0,0,1-.11,4.59Zm-26.3-8.08-.79,6.58a11.47,11.47,0,0,1,4-1.48,17,17,0,0,1,4.37-.2,3.83,3.83,0,0,0-.24-2.79,1.87,1.87,0,0,0-.24-.39,1.68,1.68,0,0,0-.33-.33l-.33-.26a2,2,0,0,0-.88-.17l-.92,0c-.33,0-.66,0-1,0a4.59,4.59,0,0,1-1-.16,8.79,8.79,0,0,1-1-.29c-.3-.11-.61-.21-.94-.3S108.4,122.86,108.17,122.78Z" transform="translate(-49.9 -74.31)"/><path class="cls-3" d="M152.2,163.22a2.51,2.51,0,0,1-.24.77l-.18.27-.08.06a1.33,1.33,0,0,1-.53.48l-.51.34-.08.06c0,.05,0,.07,0,.07s0,0,0,.07c-.12.22-.23.33-.32.32-.23.26-.44.53-.64.8a4.34,4.34,0,0,1-.71.71,3.58,3.58,0,0,1-.75.56,6.28,6.28,0,0,0-.83.55,3,3,0,0,0-.67.72,1.51,1.51,0,0,1-.22.37,3.72,3.72,0,0,0-.22.3,8.68,8.68,0,0,0-.83,1.5,7.13,7.13,0,0,1-1,1.55,1.12,1.12,0,0,1-.57.51,7.19,7.19,0,0,0-.34.69c-.16.36-.39.5-.67.42-.09,0-.19-.1-.29-.28a4,4,0,0,0-.21-.36A6.19,6.19,0,0,1,142,173a2,2,0,0,0-.35-.7.92.92,0,0,1-.18-.31,3.92,3.92,0,0,1-.57-.72,2.12,2.12,0,0,0-.14-.31.66.66,0,0,0-.23-.24,7.86,7.86,0,0,1-.69-1.5c-.18-.53-.36-1-.54-1.55l-.09-.45a2,2,0,0,0-.16-.45l-.33-.91a7.62,7.62,0,0,0-.9-1.56c0,.14-.07.21-.17.2s-.09-.07-.12-.2a.88.88,0,0,0-.11-.27.29.29,0,0,0-.06-.15,10.31,10.31,0,0,0-.55,2.15c-.16,1-.29,2-.38,2.93s-.18,1.75-.24,2.32-.11.69-.12.35a13,13,0,0,1,.19-4,17,17,0,0,0,.29-4.21,1.46,1.46,0,0,1-.24-.17,1.53,1.53,0,0,0-.23-.17,1.84,1.84,0,0,1-.61-1.53,8.54,8.54,0,0,1,.13-1.43c.08-.47.15-.93.2-1.36l5.09-42.53c.06-.48.11-1,.15-1.51a2.08,2.08,0,0,1,.55-1.31L142,113a1.87,1.87,0,0,1,1.19-.22l11.94,1.42q.36,0,.75.06a1.57,1.57,0,0,1,.74.2,1.9,1.9,0,0,1,.37.22,1.59,1.59,0,0,1,.29.29,1.51,1.51,0,0,1,.24.46,1.62,1.62,0,0,1,.17,1l-5.35,44.61a8.73,8.73,0,0,0,0,1A4.67,4.67,0,0,1,152.2,163.22Z" transform="translate(-49.9 -74.31)"/><path class="cls-3" d="M197.08,168.09a1,1,0,0,1-.12.42,2.13,2.13,0,0,1-.52,1.31,1.09,1.09,0,0,1-.33.29c-.15.1-.31.19-.46.27q-.89.69-.87,1.2a1.44,1.44,0,0,0,.32.91,1.51,1.51,0,0,1,.33.91q0,.51-.87,1.2a3,3,0,0,0-.16.45.72.72,0,0,1-.23.38s-.13-.09-.24-.4,0-.51-.05-.8,0-.58,0-.87A10.16,10.16,0,0,1,194,172a2.51,2.51,0,0,0-.21-1l-.32.26-.43.31a2.26,2.26,0,0,0-.45.38c-.22.26-.45.52-.67.79l-.68.79a1.84,1.84,0,0,0-.25.33.8.8,0,0,1-.33.32c-.25.07-.43-.07-.53-.42a2.2,2.2,0,0,0-.28-.69,3.56,3.56,0,0,1-.06-.44,1.08,1.08,0,0,0-.12-.45,2.25,2.25,0,0,1-.39-.41,1.45,1.45,0,0,1-.18-.31l-.61-.95-.32-.4c-.1,0-.21,0-.35-.11a4,4,0,0,0-.33-.26c-.26.21-.4.34-.41.39a4.42,4.42,0,0,0-1.1,1.06c-.32.42-.62.86-.92,1.31a2.45,2.45,0,0,1-.29.32,1.85,1.85,0,0,1-.44.31c-.11.09-.18.13-.23.12-.08.28-.15.57-.22.88a3.54,3.54,0,0,1-.28.87c-.06,0-.11,0-.18,0a.28.28,0,0,1-.08-.19,2.33,2.33,0,0,1,0-.84,3.56,3.56,0,0,0-.12-1.14c-.05,0-.09,0-.13-.09a.54.54,0,0,0-.12-.23.4.4,0,0,0-.18-.31l-.51-1.15-.7-1.46a2.56,2.56,0,0,0-.15-.56c-.08-.18-.15-.35-.23-.5l-.06-.08a2.33,2.33,0,0,1-.49-.78.16.16,0,0,0,0-.12.16.16,0,0,1,0-.11,4,4,0,0,1,0-.83c0-.31.09-.7.14-1.18l.07-.57a1,1,0,0,0-.25.26l-.24.19a10.32,10.32,0,0,1-1.6,1.26,7.29,7.29,0,0,0-.6,1.41,5.72,5.72,0,0,1-.68,1.41,2.83,2.83,0,0,1-.32.58,1.73,1.73,0,0,1-.53.48,1,1,0,0,1-.41.09c-.22,0-.35,0-.39,0a1.52,1.52,0,0,1,0-.48c0-.17,0-.32.06-.46a2.3,2.3,0,0,1-.23.37,1.59,1.59,0,0,1-.29.29.64.64,0,0,1-.24.22l-.32.22c-.23.75-.43,1.46-.58,2.14l-.51,2.15c-.07.19-.15.38-.22.59a3.78,3.78,0,0,1-.3.66.74.74,0,0,1-.28.54s-.14,0-.27-.17-.07-.22-.1-.34a2.27,2.27,0,0,0-.11-.34c0-.25-.06-.65-.14-1.21a6.15,6.15,0,0,0-.23-1.16c0-.19,0-.4-.07-.62s0-.43-.07-.63a3.23,3.23,0,0,1-.05-.47,1.73,1.73,0,0,0-.11-.56l-.19-.24q-.18-.32-.36-.66c-.11-.23-.23-.45-.35-.66a1.28,1.28,0,0,0-.17-.42,2.62,2.62,0,0,1-.23-.5l-.11-.26a.57.57,0,0,0-.2-.21l-.57-.07a15.7,15.7,0,0,1-7.7-3.17,11.08,11.08,0,0,1-4-5.84l-.09-.45c0-.14-.07-.29-.09-.44a.77.77,0,0,0,0-.15.26.26,0,0,1,0-.15q0-.36-.06-.69c0-.22-.05-.43-.07-.63a4.57,4.57,0,0,1,0-.9c0-.31.07-.61.11-.89a3,3,0,0,1,.09-.5,2.75,2.75,0,0,0,.1-.5l.13-.49a9.08,9.08,0,0,1,.89-2,10.19,10.19,0,0,1,3.55-3.57q.47-.3.93-.54c.31-.15.64-.31,1-.46l1-.39a3.33,3.33,0,0,1,.39-.24,1.8,1.8,0,0,1,.46-.16.9.9,0,0,1,.38-.18l.45-.09a10.88,10.88,0,0,1,1.67-.38l1.73-.22c.69-.11,1.39-.2,2.1-.26l2.23-.17,1.75-.08q1,0,2-.09c.65,0,1.32-.07,2-.08a.63.63,0,0,0,.37,0l1.61-.1.13-1.14c0,.19,0,.14,0-.15s0-.45,0-.5,0,0,0-.19,0-.23,0-.18a.39.39,0,0,0,0-.15.36.36,0,0,1,0-.14,2.27,2.27,0,0,0-.47-.93c-.05,0-.07,0-.07,0s0,0-.13-.05a1.12,1.12,0,0,0-.36.25,1.88,1.88,0,0,0-.29.33c-.17.22-.38.5-.61.83a1.65,1.65,0,0,1-.81.67c-.35.15-.65,0-.88-.47a8.65,8.65,0,0,0-.6-1,.59.59,0,0,0-.2-.17l-.72.57-.47.23-.46.24a3.69,3.69,0,0,1-.93.21q-.48.06-.93.15c-.59.12-1.17.26-1.75.4a8.53,8.53,0,0,1-1.73.27,2.88,2.88,0,0,1-2-.71,3.21,3.21,0,0,0-1.94-.77c-.66-.08-1.32-.18-1.95-.31a9.68,9.68,0,0,1-1.93-.59,1.4,1.4,0,0,0-.34-.19.19.19,0,0,0-.15.06.09.09,0,0,1-.14,0,.65.65,0,0,1-.09-.16.4.4,0,0,0-.16-.16,2.11,2.11,0,0,0-.31-.47,1.74,1.74,0,0,1-.17-.39,2,2,0,0,1,0-.9,5.37,5.37,0,0,1,.33-.87c.06-.13.12-.27.19-.41s.13-.3.2-.48a13.09,13.09,0,0,1,1.86-2.17,13.29,13.29,0,0,1,2.12-1.71,13.68,13.68,0,0,1,2.74-1.34,6,6,0,0,1,1.46-.69,8.07,8.07,0,0,1,1.61-.39,15.94,15.94,0,0,1,1.72-.15,29.41,29.41,0,0,1,3.65-.26,34.27,34.27,0,0,1,4.25.26l1.43.17.79.09a2.06,2.06,0,0,1,.56.14l.49.14.36,0a3.11,3.11,0,0,1,1.33.38,10.34,10.34,0,0,1,2.38.72c.56.16,1.11.34,1.64.55a6.63,6.63,0,0,1,1.4.75,7.94,7.94,0,0,1,1.72,1.08c.55.45,1,.9,1.47,1.33,0,0,0,.08.06.08a3,3,0,0,1,.35.37c.11.14.2.26.29.36a12.86,12.86,0,0,1,3.09,8.71.27.27,0,0,1,0,.22,17,17,0,0,1-.18,3q-.21,1.5-.39,3l-1.77,14.8c0,.23-.05.5-.06.79A8.54,8.54,0,0,1,197.08,168.09Zm-15.58-14,.1-.86s0-.05-.14,0a.65.65,0,0,0-.19,0,.62.62,0,0,1-.18,0,4.1,4.1,0,0,1-.67.17c-.25,0-.5.1-.75.16a6,6,0,0,1-1.51.22c-.51,0-1,0-1.57.07a7.24,7.24,0,0,0-.81.12,4.24,4.24,0,0,0-.83.26,1.79,1.79,0,0,0-.48.38,2.13,2.13,0,0,0-.65,1.23,2.59,2.59,0,0,0,.34,1.34l.3.22.37.3.34.18a6.48,6.48,0,0,1,1,.23,4.37,4.37,0,0,0,.87.07,4.1,4.1,0,0,0,4.13-3.06,2.6,2.6,0,0,0,.24-.77C181.41,154.25,181.44,154.15,181.5,154.11Z" transform="translate(-49.9 -74.31)"/><path class="cls-3" d="M247,141.51a2.68,2.68,0,0,1-.24.48c-.09.13-.2.29-.31.47a.17.17,0,0,0-.09.14.26.26,0,0,1-.09.13l-1.08,1.76-2.2,3.79c-.26.6-.55,1.18-.86,1.75s-.62,1.12-.92,1.66a13.41,13.41,0,0,1-1.24,1.89l-.63,1q-1.53,3.07-3,5.81a12.21,12.21,0,0,1-2.41,3.48l-.28.54c-.48,1.11-1,2.13-1.42,3.06a8,8,0,0,1-1.37,2.05,1.4,1.4,0,0,0-.19.34q-.37.75-.75,1.47c-.25.48-.53.94-.82,1.39-.38.73-.76,1.45-1.13,2.18a16.92,16.92,0,0,1-1.18,2,1.62,1.62,0,0,0-.19.34l-.53.81c-.62,1.13-1.19,2.09-1.72,2.88a16.66,16.66,0,0,1-1.21,1.63,9,9,0,0,0-.65,1.15.24.24,0,0,0-.09.14.17.17,0,0,1-.08.13,3.19,3.19,0,0,1-.37.61c-.07.19-.14.35-.2.48a1.71,1.71,0,0,1-.27.41,5.57,5.57,0,0,1-.69.93,5.87,5.87,0,0,1-.71.5,3.77,3.77,0,0,0-.43.85c-.11.3-.23.59-.36.86L218.2,191a2.24,2.24,0,0,0-.21.49c-.07.23-.13.29-.17.19a11,11,0,0,1,.08-1.8,12.33,12.33,0,0,0,.07-1.81l-1.5.69a4,4,0,0,1-1.53.4,1,1,0,0,1-.8-.31c-.19-.22-.37-.43-.54-.65a3,3,0,0,1-.48-.85l-.12-.23-.14,0a3.28,3.28,0,0,0-.23,1.06,2.87,2.87,0,0,1-.32,1.12c-.06.09-.1,0-.12-.19a1.85,1.85,0,0,0-.09-.48l0-1.46a1.74,1.74,0,0,1-.76.85.38.38,0,0,1-.3.11,7.22,7.22,0,0,0-.2.74,2.65,2.65,0,0,1-.26.73c-.06,0-.11,0-.17-.13a.63.63,0,0,1-.07-.33,6,6,0,0,1,0-.73,2,2,0,0,0-.1-.67l-.29-.36a3.12,3.12,0,0,1-.27-.43l-.32-.4c0,.19-.08.3-.18.34s-.18-.14-.51-.57c0,.05,0,.07-.05.07s0,0,0,.06c-.14.71-.24,1.41-.33,2.11a15.64,15.64,0,0,1-.39,2.09,2.63,2.63,0,0,0-.15.6.72.72,0,0,1-.27.51c-.06,0-.11,0-.17-.17s-.1-.27-.13-.38c0-.38,0-.76,0-1.12s0-.72,0-1.06a5.18,5.18,0,0,1,.24-1.42,2.17,2.17,0,0,0,0-1.52l-.13-.16-.12-.16a.35.35,0,0,1-.14-.06.53.53,0,0,0-.21-.06,1.06,1.06,0,0,1-.55-.28,1.2,1.2,0,0,1-.31-.4,1.51,1.51,0,0,1-.24-.46.26.26,0,0,0,0-.15.39.39,0,0,1,0-.15l.06-.43a1,1,0,0,1,.12-.42.5.5,0,0,1,.1-.28q.19-.41.42-.78c.15-.25.29-.48.42-.71l.18-.34a1.58,1.58,0,0,1,.14-.2.37.37,0,0,1,.12-.13l1.67-3.06c.32-.64.65-1.26,1-1.85s.66-1.13,1-1.62c.12-.23.26-.45.41-.68s.28-.43.4-.6l.19-.41.93-1.71s0-.07,0-.06,0,0,.05-.07l.36-.61-.15-.53-.11-.3a12.75,12.75,0,0,1-1.12-2.82c-.45-1.45-.93-3.13-1.42-5-.15-.4-.29-.83-.43-1.28s-.3-.95-.47-1.51a9.79,9.79,0,0,1-.69-2.4c-.2-1-.39-2.12-.59-3.26l-2.88-9.92c-.09-.39-.19-.77-.3-1.12s-.2-.7-.31-1.05c-.48-1.61-.93-3.13-1.33-4.58a1,1,0,0,1-.09-.45,1.42,1.42,0,0,1,0-.51.38.38,0,0,1,.1-.21,1.09,1.09,0,0,1,.29-.61,1.52,1.52,0,0,1,.4-.32,1.7,1.7,0,0,1,1.06-.38,3.64,3.64,0,0,1,1.26.08q.67.15,1.17.21l9.44,1.13c.19,0,.4.06.64.12l.43.08.4.27a.93.93,0,0,1,.53.42,3.12,3.12,0,0,1,.62,1.46c.08.54.15,1,.2,1.4s.26.92.37,1.42.23,1,.36,1.57c.06.25.14.53.22.86s.15.66.21,1l.37,1.71v.07l.2.75a1.58,1.58,0,0,0,.1.38c.15.74.32,1.49.5,2.23s.36,1.5.56,2.25l.42,1.93v.14a.51.51,0,0,1,.09.38q.13.09.06.15c-.06,0,0,.1.2.17a.24.24,0,0,0,.09-.14l.26-.4.3-.69a.71.71,0,0,0,.1-.2.17.17,0,0,1,.09-.14l.28-.55v-.07l1.41-2.73a1.4,1.4,0,0,0,.19-.34c.33-.73.68-1.44,1.05-2.12l1-1.91a.22.22,0,0,0,.09-.13.21.21,0,0,1,.08-.14l.47-.88c.2-.46.41-.9.63-1.3s.43-.85.63-1.31l.27-.47c.07-.14.13-.28.2-.41l.19-.42c.19-.36.4-.73.64-1.12a3.14,3.14,0,0,1,.91-.94,3.48,3.48,0,0,1,2.14-.32c.24,0,.5.07.79.13s.54.1.78.13l9.86,1.18a1.42,1.42,0,0,1,.84.32.65.65,0,0,1,.19.17c0,.05.09.1.13.16a1.41,1.41,0,0,1,.31,1.05l-.06.5a.21.21,0,0,0-.09.13v.07Z" transform="translate(-49.9 -74.31)"/></g></svg>