<?xml version="1.0" encoding="utf-8"?>
<!-- Generator: Adobe Illustrator 26.0.3, SVG Export Plug-In . SVG Version: 6.00 Build 0)  -->
<svg version="1.1" id="Layer_1" xmlns="http://www.w3.org/2000/svg" xmlns:xlink="http://www.w3.org/1999/xlink" x="0px" y="0px"
	 viewBox="0 0 1920 1080" style="enable-background:new 0 0 1920 1080;" xml:space="preserve">
<style type="text/css">
	.st0{fill:#464636;stroke:#464636;stroke-miterlimit:10;}
	.st1{fill:#A67C52;stroke:#464636;stroke-miterlimit:10;}
	.st2{fill:#A67C52;stroke:#A67C52;stroke-miterlimit:10;}
	.st3{fill:#FFFFFF;stroke:#FFFFFF;stroke-miterlimit:10;}
	.st4{fill:#0000FF;stroke:#0000FF;stroke-miterlimit:10;}
	.st5{fill:#FF0000;}
	.st6{font-family:'RubikWetPaint-Regular';}
	.st7{font-size:46.5564px;}
	.st8{fill:#0000FF;}
	.st9{fill:#ED1C24;}
</style>
<rect y="0" class="st0" width="1920" height="1080"/>
<rect x="933.8" y="-0.5" class="st1" width="9.1" height="272.2"/>
<g>
	<path class="st2" d="M952.8,283.5c6.6,15.4-36.3,19.7-29.9-0.1c1.4-0.3,2.3-0.6,3.5,0.1c-10.2,17.7,34.6,10.6,23,0.7
		C949.7,282.6,951.1,283,952.8,283.5z"/>
</g>
<g>
	<path class="st2" d="M923,284.4c-6.6-16.5,36.1-21.2,29.8,0.1c-1.4,0.4-2.3,0.7-3.5-0.1c10.2-19-34.5-11.3-22.9-0.7
		C926,285.5,924.6,285,923,284.4z"/>
</g>
<path class="st3" d="M1368.4,899.5h-851c-120.3,0-217.8-97.5-217.8-217.8V514.1c0-120.3,97.5-217.8,217.8-217.8h851
	c120.3,0,217.8,97.5,217.8,217.8v167.6C1586.2,802,1488.7,899.5,1368.4,899.5z"/>
<ellipse class="st4" cx="933.8" cy="351.7" rx="210.8" ry="56.4"/>
<ellipse class="st4" cx="775" cy="364.4" rx="63" ry="45.6"/>
<ellipse class="st4" cx="870.8" cy="388" rx="63" ry="45.6"/>
<ellipse class="st4" cx="962.5" cy="392.9" rx="63" ry="45.6"/>
<ellipse transform="matrix(0.9714 -0.2374 0.2374 0.9714 -58.8777 259.5882)" class="st4" cx="1048.2" cy="374.2" rx="62.9" ry="45.7"/>
<ellipse transform="matrix(0.9907 -0.1363 0.1363 0.9907 -40.7183 154.1297)" class="st4" cx="1105.4" cy="374.5" rx="57.8" ry="45.6"/>
<text transform="matrix(0.9877 0 0 1 825.3491 374.1831)" class="st5 st6 st7">Settings</text>
<ellipse class="st8" cx="602" cy="529.7" rx="53.9" ry="52.5"/>
<rect x="580.6" y="506.6" class="st9" width="8.4" height="40.6"/>
<rect x="599.9" y="491.2" transform="matrix(6.123234e-17 -1 1 6.123234e-17 93.205 1115.097)" class="st9" width="8.6" height="39.5"/>
<rect x="615.5" y="506.6" class="st9" width="8.4" height="40.6"/>
<ellipse class="st9" cx="588.4" cy="549.1" rx="10.1" ry="6.6"/>
<ellipse class="st9" cx="623.9" cy="549.1" rx="9.9" ry="6.6"/>
<ellipse class="st8" cx="942.9" cy="531.7" rx="53.9" ry="52.5"/>
<rect x="908.1" y="514" class="st9" width="19.1" height="33.1"/>
<g>
	<path class="st9" d="M942.7,557.3c-7.6-2.4-14.3-7.3-21.5-10.9c5.1-15.7,6.1-15.7,1.3-32c6.8-4,12.1-10.6,19.4-13.7
		C946.1,519.7,945.5,538.1,942.7,557.3z"/>
</g>
<g>
	<path class="st9" d="M955.8,549.3c-2.9-0.5-3.3-1.9-4.8-3.6c5.3-4,6.6-28.8,0.1-30.9c1.8-1.1,3.2-2.7,5.2-3.7
		C965,519.8,963.2,540.2,955.8,549.3z"/>
</g>
<g>
	<path class="st9" d="M968.3,559.5c-2.6-1.4-2.6-3.4-3.4-5.9c7.7-10.2,9.9-34.2,0-43.6c1.8-2,3.3-4.3,5.3-6.1
		C980.4,520.9,979.9,543.3,968.3,559.5z"/>
</g>
<ellipse class="st8" cx="1259.5" cy="531.7" rx="53.9" ry="52.5"/>
<g>
	<path class="st9" d="M1241,514c3.9-7.2,12.1-9.3,22.9-6.4c0.2-1.5,0.3-3,0.5-4.5c-13.9-3.7-20.7,0.2-26.2,9.9
		C1237.8,516,1240.3,514.7,1241,514z"/>
</g>
<g>
	<path class="st9" d="M1267.3,521.4c2.4,0.7,3.5,1,6.4,0.8c4.1-5.2-1.2-16.4-9.3-19c-1.6,0.4-2.6,3.5-2.8,4.4
		C1267.6,507.3,1269,517.9,1267.3,521.4z"/>
</g>
<g>
	<path class="st9" d="M1256.7,536.1c7.8-4.8,17.2-9.8,18.2-15.9c-4.1-0.7-4.8-0.1-7.5,1.2c1.7,4-10.6,9.7-15.7,12.8
		C1253.3,534.9,1255.1,535.4,1256.7,536.1z"/>
</g>
<rect x="1252.4" y="533.9" transform="matrix(-1 -4.317359e-11 4.317359e-11 -1 2509.6624 1083.0242)" class="st9" width="4.8" height="15.2"/>
<ellipse class="st9" cx="1254.2" cy="554.6" rx="6.7" ry="3"/>
<path class="st8" d="M1094.5,763.7h-278c-19.6,0-35.4-15.9-35.4-35.4v-10.6c0-19.6,15.9-35.4,35.4-35.4h278
	c19.6,0,35.4,15.9,35.4,35.4v10.6C1129.9,747.8,1114.1,763.7,1094.5,763.7z"/>
<text transform="matrix(0.9877 0 0 1 814.5762 733.8506)" class="st9 st6 st7">My Account </text>
<ellipse class="st8" cx="409.4" cy="318.8" rx="24.7" ry="24"/>
<polygon class="st9" points="421.8,328.2 419,330.9 396.3,308.8 399.1,306.1 "/>
<polygon class="st9" points="399.6,331.3 396.8,328.7 418.6,305.9 421.5,308.4 "/>
</svg>
