<svg id="Layer_1" data-name="Layer 1" xmlns="http://www.w3.org/2000/svg" viewBox="0 0 405.4 168.3"><defs><style>.cls-1{fill:#1a4adc;}.cls-2{isolation:isolate;}.cls-3{fill:#eb0005;}</style></defs><path class="cls-1" d="M1032.23,623.82l-159.3-.1c-68-.1-123.1-37.8-123.2-84.2h0c-.1-46.5,55-84.1,122.9-84l159.3.1c68,.1,123.1,37.8,123.2,84.2h0C1155.23,586.22,1100.23,623.82,1032.23,623.82Z" transform="translate(-749.73 -455.52)"/><g class="cls-2"><path class="cls-3" d="M822.51,521.88a11.82,11.82,0,0,0,.08,1.25,4.21,4.21,0,0,1-.08,1.33c0-.11,0-.07-.07.12s-.05.26,0,.2a.27.27,0,0,0-.08.16.25.25,0,0,1-.07.17l-.37.48-.22.24c-.05,0-.11.06-.18.16l-.19.25a3,3,0,0,0-.51.84,10.71,10.71,0,0,1-.59,1.17l-.59,1.46c-.2.48-.42,1-.66,1.45-.34.86-.7,1.74-1.07,2.62a22.14,22.14,0,0,1-1.36,2.71,4,4,0,0,1-1,1.13,1.76,1.76,0,0,0-.11.4.7.7,0,0,1-.18.41l-.3-.24a.84.84,0,0,1-.11-.25,2.18,2.18,0,0,0-.47-.64l-.15-.16c-.15-.27-.28-.53-.41-.77s-.23-.47-.33-.69l-.22-.48-.07-.08-.66-1.38c-.45-.86-.9-1.7-1.37-2.54s-.94-1.68-1.43-2.54c-.2-.32-.37-.62-.52-.89l-.51-.81-.44-.48V561.6a6.21,6.21,0,0,1,0,1.21q0,.57,0,.81v.16a.24.24,0,0,0-.08.16,1.68,1.68,0,0,1-.22.4.25.25,0,0,1-.07.17,2.17,2.17,0,0,1-.74.64l-.14.16-.15.16a2.22,2.22,0,0,1-.22.37l-.3.36a.63.63,0,0,1-.66.24.85.85,0,0,1-.29-.28.41.41,0,0,0-.3-.2c-.1-.06-.19,0-.29.12a.41.41,0,0,1-.3.2c-.39-.16-.55-.32-.47-.48s-.12-.14-.56.08c-.14.27-.32.63-.51,1.09s-.47.55-.81.28a1.42,1.42,0,0,1-.26-.44.59.59,0,0,0-.33-.37l-.07.08a.27.27,0,0,1-.08.17L801,567l-.29.32s-.05.38-.15,1-.25,1.48-.44,2.66a4.89,4.89,0,0,0-.11.73,2.37,2.37,0,0,1-.19.73.57.57,0,0,1-.18.12c-.07,0-.11,0-.11,0a17.27,17.27,0,0,1-.15-2.26,17,17,0,0,0-.15-2.26,2.11,2.11,0,0,0-.22-.89c-.1-.11-.25-.31-.47-.61s-.41-.52-.56-.68h-.22a1.19,1.19,0,0,1-.51-.08,1,1,0,0,1-.22.28c-.1.08-.15.15-.15.2l-.07.08c-.25.32-.48.65-.7,1s-.46.7-.7,1.13a1.15,1.15,0,0,0-.22.32l-.15.17-.22.24a1.26,1.26,0,0,1-.3.24c0,.59-.07,1.47-.07,2.62s0,2.39,0,3.68,0,2.51-.07,3.67-.06,2-.11,2.63q0,.07-.15-.09a.41.41,0,0,1-.14-.24,5,5,0,0,1-.34-2.54c.08-1.11.19-2.32.34-3.63a30.4,30.4,0,0,0,.18-3.72,5.4,5.4,0,0,0-.7-2.78.43.43,0,0,0-.22-.33c-.2-.43-.39-.83-.59-1.21s-.39-.75-.59-1.13a.16.16,0,0,0,0-.12.21.21,0,0,1,0-.12,1.55,1.55,0,0,1-.22-.4.67.67,0,0,0-.52-.25.14.14,0,0,1-.11,0,.29.29,0,0,0-.18,0,2.07,2.07,0,0,1-1-.8,1.73,1.73,0,0,1-.29-.65,5.33,5.33,0,0,1-.15-1.21,4.58,4.58,0,0,1,0-.69,5.74,5.74,0,0,0,0-.6V526.88l-.29-.64-.15.32a.33.33,0,0,0-.07.24l-.15.65a1.87,1.87,0,0,1-.22.56l-.44,1a4.3,4.3,0,0,1-.37.65,5.84,5.84,0,0,1-.52.64l-.14.16a1.33,1.33,0,0,0-.3.25,1.36,1.36,0,0,0-.22.4,2.81,2.81,0,0,1-.59.65h-.29a1.37,1.37,0,0,0-.07.8.54.54,0,0,1-.3.65c-.15.05-.22-.07-.22-.36a2.92,2.92,0,0,0-.07-.69L785,531a2.64,2.64,0,0,1-.45-.44c-.14-.19-.27-.34-.36-.45,0,.06,0,0-.15-.12l-.3-.28-.14-.16a.47.47,0,0,0-.22.32,2.86,2.86,0,0,1-.15.4,6,6,0,0,1-.18.73,1.66,1.66,0,0,0-.12.56,6.59,6.59,0,0,0-.29-1.77c0,.05,0,.08,0,.08s0,0,0,.08a.07.07,0,0,0-.08.08l-.14.16a4.11,4.11,0,0,0-.3.49,2.4,2.4,0,0,1-.29.48.19.19,0,0,1-.15.08.19.19,0,0,1-.15.08,10,10,0,0,0,0,1.54c0,.48.06,1,.11,1.53-.1-.7-.32-1-.67-1a.72.72,0,0,0-.51.49c0-.49,0-1,0-1.5a10.47,10.47,0,0,0,0-1.49,2.29,2.29,0,0,1-.44-.44l-.44-.53-.59-.65-.59-.72c-.2-.22-.66-.76-1.4-1.62,0,.11,0,.16-.15.16s-.08-.08-.11-.24a1.36,1.36,0,0,0-.11-.4s0,0-.11-.28a2.4,2.4,0,0,0-.26-.45,2.13,2.13,0,0,1-.73-1.69V513.64c0-.27,0-.74,0-1.41a7.71,7.71,0,0,1,.11-1.74.64.64,0,0,0,.07-.28.28.28,0,0,1,.08-.2,1.68,1.68,0,0,1,.59-.73s.07,0,.07,0,0,0,.07,0l.08-.08a1.69,1.69,0,0,1,.81-.24,4.88,4.88,0,0,1,1.14,0c.37,0,.72,0,1.07,0h38.42c.53,0,1.1,0,1.69-.08a3.9,3.9,0,0,1,1.62.16,1.87,1.87,0,0,1,.4.2.76.76,0,0,1,.26.28,1.45,1.45,0,0,1,.59.89,6.85,6.85,0,0,1,.07,1.05c0,.86.06,1.76,0,2.7s0,1.88,0,2.79Zm-42,16.87c.1.48.07.43-.07-.16a15.11,15.11,0,0,1-.34-2.38,5.71,5.71,0,0,1,.19-2.3c-.05.86-.06,1.69,0,2.5A14.7,14.7,0,0,0,780.56,538.75Zm.59-.08c-.1.32-.11.31,0,0s.16-.87.26-1.57a13.82,13.82,0,0,0,.15-1.94c0,.59,0,1.18,0,1.77A6.89,6.89,0,0,1,781.15,538.67Z" transform="translate(-749.73 -455.52)"/><path class="cls-3" d="M858.94,535.6c0,.32,0,.65,0,1s0,.67,0,1v.65a1.5,1.5,0,0,1-.15.64,2.25,2.25,0,0,1-.73,1.05.07.07,0,0,0-.08.08.18.18,0,0,0-.11,0,.12.12,0,0,1-.11,0,12.21,12.21,0,0,0-.66,1.13,7.8,7.8,0,0,1-.66,1,1.73,1.73,0,0,0-.15.2.64.64,0,0,1-.22.21.19.19,0,0,0-.15.08.22.22,0,0,1-.15.08,4.85,4.85,0,0,0-.22,1.13,3.63,3.63,0,0,1-.37,1.37s-.14,0-.29-.08a2.44,2.44,0,0,1-.22-1,7.46,7.46,0,0,1-.11-.89,5.68,5.68,0,0,0-.18-1l-.45-.48c-.1-.11-.25-.3-.47-.57a6.86,6.86,0,0,0-.7-.72l-.08-.08s-.07,0-.07,0,0,0-.07,0a4,4,0,0,0-.34.44.79.79,0,0,1-.47.36.5.5,0,0,1-.59-.32c-.05.06-.18.08-.37.08a.84.84,0,0,1-.44-.08l-.37,1a5.84,5.84,0,0,1-.48,1,6.24,6.24,0,0,1-.62.81c-.15.16-.3.33-.45.52a2.1,2.1,0,0,1-.44.45c-.19.21-.29.27-.29.16a7.32,7.32,0,0,1-.11-1.58,6.72,6.72,0,0,0-.19-1.65,1,1,0,0,0-.29.24q-.3.16-.3.24a6.52,6.52,0,0,0-.18,1.21,6.4,6.4,0,0,1-.18,1.21c0,.06-.11.06-.19,0a.93.93,0,0,1-.18-.16c0-.43-.09-.83-.11-1.21a6.51,6.51,0,0,0-.19-1.13c0-.11,0-.17-.11-.2a.57.57,0,0,1-.18-.12,1.05,1.05,0,0,0-.3-.24.82.82,0,0,1-.14.56l-.37-.4h-.15c-.05,0-.08,0-.11-.12a.53.53,0,0,0-.11-.21.58.58,0,0,1-.15.13.47.47,0,0,0-.14.12l-.3.48-.29.48a.31.31,0,0,0-.07.21.71.71,0,0,1-.08.28,6.36,6.36,0,0,0-.26,1.53q0,.81,0,1.62v16c0,.26,0,.55,0,.84a1.87,1.87,0,0,1-.11.85.19.19,0,0,1,0,.12.16.16,0,0,0,0,.12l-.15.16a2.3,2.3,0,0,1-.51.65c.09-.11,0-.07-.15.12a1.86,1.86,0,0,0-.37.44.25.25,0,0,1-.07.17,1.28,1.28,0,0,0-.11.4c0,.16-.11.21-.26.16s0,.08-.07.08a1.48,1.48,0,0,0-.15.41,1.54,1.54,0,0,0-.26.4,3.77,3.77,0,0,1-.26.48l-.77,1.5a10.17,10.17,0,0,1-.84,1.25l-.19.2-.26.28a3.8,3.8,0,0,0-.29.65,1.5,1.5,0,0,1-.37.65c-.05.05-.15-.06-.29-.33a1.72,1.72,0,0,1-.08-.52,1.08,1.08,0,0,0-.14-.53l-.45-.56a3.51,3.51,0,0,1-.51-.81,7.87,7.87,0,0,1-.74-1.37,15.66,15.66,0,0,0-.66-1.46c0-.05,0-.08,0-.08s0,0,0-.08-.22-.19-.22-.08a4.78,4.78,0,0,0-.11,1.38,3.67,3.67,0,0,1-.19,1.37q-.08.24-.15-.24a4.29,4.29,0,0,0-.14-.73l-.59-1.86v-.08q-.22.24-.3.24a.41.41,0,0,1-.29-.16c-.15.38-.28.76-.4,1.13s-.29.78-.48,1.21a.57.57,0,0,0-.11.29.79.79,0,0,1-.19.36.79.79,0,0,0-.14.36q-.08.29-.15.12a4,4,0,0,1-.08-1.65c.1-.24-.05-.72-.44-1.41a1.18,1.18,0,0,0-.37.48c0,.38-.08.78-.11,1.21a7.15,7.15,0,0,1-.18,1.29,2.51,2.51,0,0,1-.18.53c-.13.29-.26.47-.41.52s-.44-.13-.59-.56-.24-.7-.29-.81a6.46,6.46,0,0,1-.41-1.49,5.21,5.21,0,0,0-.4-1.42l-.3-.32c-.09-.11-.19-.22-.29-.32a.43.43,0,0,1-.22-.33,1,1,0,0,0-.44-.08.12.12,0,0,1-.11,0,.35.35,0,0,0-.19,0,2,2,0,0,1-.95-.8,1.88,1.88,0,0,1-.3-.65,4.38,4.38,0,0,1-.11-1.29c0-.49,0-.92,0-1.29V529.51c0-1,0-2-.08-3,0-.27,0-.55,0-.85a6.77,6.77,0,0,1,.11-.77,2.09,2.09,0,0,1,.81-1.13l.59-.24a2.18,2.18,0,0,1,.66-.08,4.47,4.47,0,0,1,1,0c.35,0,.67,0,1,0h8.54a11.19,11.19,0,0,0,1.25-.08,3.24,3.24,0,0,1,1.25.08.81.81,0,0,1,.37.08,1.41,1.41,0,0,1,1,.89,2.22,2.22,0,0,1,.36,1.21v2.83l.44-.49a1.05,1.05,0,0,0,.3-.24,8.11,8.11,0,0,1,.77-.65,9.77,9.77,0,0,1,.92-.64,5.81,5.81,0,0,1,.92-.69l.92-.52a5.21,5.21,0,0,1,1.29-.65,13.26,13.26,0,0,1,1.44-.4,13.62,13.62,0,0,1,4.48-.73h1.26a8.1,8.1,0,0,0,.81,0,8.51,8.51,0,0,1,.88,0,6.4,6.4,0,0,1,1,.08,1.34,1.34,0,0,1,.78.4,2.06,2.06,0,0,1,.66.89,2.75,2.75,0,0,1,.14.81v.4a5,5,0,0,1,0,1.09c0,.35,0,.69,0,1Z" transform="translate(-749.73 -455.52)"/><path class="cls-3" d="M906.12,526.24a3.36,3.36,0,0,1-.18.56c-.08.16-.16.35-.26.57a.23.23,0,0,0-.07.16.24.24,0,0,1-.08.16l-.88,2.1-1.77,4.52c-.19.7-.41,1.39-.66,2.06s-.49,1.33-.73,2a16.76,16.76,0,0,1-1,2.26l-.52,1.21q-1.19,3.63-2.32,6.86a13.91,13.91,0,0,1-2,4.2l-.22.65c-.35,1.29-.7,2.49-1.07,3.59a9.53,9.53,0,0,1-1.14,2.46,1.59,1.59,0,0,0-.15.4c-.2.6-.39,1.18-.59,1.74a15.93,15.93,0,0,1-.66,1.66l-.88,2.58a21.8,21.8,0,0,1-1,2.34,1.46,1.46,0,0,0-.15.4l-.44,1c-.49,1.35-1,2.49-1.4,3.43a16.89,16.89,0,0,1-1,2,10.67,10.67,0,0,0-.51,1.38.23.23,0,0,0-.08.16.25.25,0,0,1-.07.16,3.9,3.9,0,0,1-.29.72q-.08.33-.15.57a2.05,2.05,0,0,1-.22.48,6.43,6.43,0,0,1-.59,1.13,6.14,6.14,0,0,1-.66.65,4.42,4.42,0,0,0-.33,1c-.08.35-.16.69-.26,1l-.89,2.82a2.9,2.9,0,0,0-.14.57q-.08.4-.15.24a13.14,13.14,0,0,1-.15-2,14.42,14.42,0,0,0-.14-2c-.5.32-1,.64-1.44,1a4,4,0,0,1-1.51.65,1,1,0,0,1-.84-.24c-.23-.22-.43-.43-.63-.65a3.28,3.28,0,0,1-.59-.89l-.15-.24H877a3.7,3.7,0,0,0-.11,1.21,3.4,3.4,0,0,1-.19,1.29c0,.11-.1,0-.15-.2a2,2,0,0,0-.14-.52l-.22-1.62a1.9,1.9,0,0,1-.67,1,.38.38,0,0,1-.29.16,7.29,7.29,0,0,0-.11.85,3.89,3.89,0,0,1-.18.85s-.11,0-.19-.12a.85.85,0,0,1-.11-.37,7.32,7.32,0,0,1-.11-.8,2.37,2.37,0,0,0-.18-.73l-.33-.36a2.53,2.53,0,0,1-.34-.45l-.36-.4c0,.21,0,.35-.15.4s-.2-.13-.59-.56c0,0,0,.08,0,.08s0,0,0,.08c0,.81-.08,1.6-.08,2.38a21.38,21.38,0,0,1-.14,2.38,3.1,3.1,0,0,0-.08.69.88.88,0,0,1-.22.61c-.05,0-.11,0-.18-.17l-.19-.4c-.05-.43-.1-.85-.14-1.25s-.1-.8-.15-1.17a6.32,6.32,0,0,1,.07-1.62,2.58,2.58,0,0,0-.22-1.69L871,581a2.09,2.09,0,0,0-.14-.17.28.28,0,0,1-.15,0,.57.57,0,0,0-.22,0,1.05,1.05,0,0,1-.59-.24,1.41,1.41,0,0,1-.37-.4,1.91,1.91,0,0,1-.29-.49.34.34,0,0,0,0-.16.47.47,0,0,1,0-.16v-.48a1.21,1.21,0,0,1,.08-.49.49.49,0,0,1,.07-.32q.15-.48.33-.93c.12-.3.24-.58.33-.85l.15-.4.11-.24a.57.57,0,0,1,.11-.16l1.33-3.64c.24-.75.5-1.48.77-2.18s.53-1.34.77-1.94c.1-.27.21-.53.33-.8l.34-.73.14-.48.74-2c0-.06,0-.08,0-.08s0,0,0-.08l.3-.73-.22-.57-.15-.32a13.78,13.78,0,0,1-1.47-3q-1-2.34-2.06-5.41c-.2-.43-.4-.88-.59-1.37s-.42-1-.67-1.61a11.94,11.94,0,0,1-1-2.59c-.32-1.13-.65-2.31-1-3.55l-4.12-10.66c-.15-.43-.3-.83-.45-1.21s-.29-.75-.44-1.13c-.69-1.72-1.32-3.36-1.91-4.92a1.31,1.31,0,0,1-.15-.49,1.91,1.91,0,0,1-.07-.56.33.33,0,0,1,.07-.24,1.23,1.23,0,0,1,.22-.73,1.29,1.29,0,0,1,.37-.4,1.63,1.63,0,0,1,1-.57,3.41,3.41,0,0,1,1.29-.08,11.62,11.62,0,0,0,1.21.08h9.72a5.52,5.52,0,0,1,.66,0l.44,0,.44.24a.92.92,0,0,1,.59.41,3.53,3.53,0,0,1,.81,1.53c.15.59.27,1.1.37,1.53s.38,1,.55,1.54.36,1.1.55,1.69l.34.93c.12.35.23.72.33,1.09l.59,1.86v.08l.29.81a1.46,1.46,0,0,0,.15.4c.24.81.5,1.62.77,2.42s.55,1.62.85,2.43l.66,2.09v.17a.55.55,0,0,1,.15.4c.09,0,.12.11.07.16s0,.11.22.16a.21.21,0,0,0,.07-.16l.23-.48.22-.81a.93.93,0,0,0,.07-.24.21.21,0,0,1,.07-.16l.22-.65v-.08l1.11-3.23a1.3,1.3,0,0,0,.14-.4c.25-.86.52-1.7.81-2.51s.57-1.56.81-2.26a.23.23,0,0,0,.08-.16.23.23,0,0,1,.07-.16l.37-1q.23-.81.48-1.53c.17-.49.33-1,.48-1.54l.22-.56c.05-.16.09-.33.14-.49l.15-.48c.15-.43.32-.88.52-1.33a3.23,3.23,0,0,1,.81-1.17,3.32,3.32,0,0,1,2.13-.65,7.83,7.83,0,0,1,.81,0,7.83,7.83,0,0,0,.81,0h10.16a1.38,1.38,0,0,1,.88.24,1.14,1.14,0,0,1,.22.16l.15.17a1.64,1.64,0,0,1,.44,1.13v.56a.25.25,0,0,0-.07.16v.08Z" transform="translate(-749.73 -455.52)"/><path class="cls-3" d="M961.54,562.49a1.22,1.22,0,0,1-.07.48,2.55,2.55,0,0,1-.37,1.54,1.38,1.38,0,0,1-.29.36l-.44.36c-.54.59-.79,1.08-.74,1.46a1.77,1.77,0,0,0,.44,1,1.73,1.73,0,0,1,.44,1c0,.38-.19.86-.73,1.46a2.65,2.65,0,0,0-.11.52.78.78,0,0,1-.19.44c-.05.06-.15-.08-.29-.4s-.1-.56-.15-.89l-.15-1a10.89,10.89,0,0,1,0-1.57,3.34,3.34,0,0,0-.33-1.09l-.3.32c-.15.16-.28.3-.4.41a2.34,2.34,0,0,0-.41.48l-.59,1-.59,1a1.94,1.94,0,0,0-.22.4.89.89,0,0,1-.29.41c-.25.1-.44,0-.59-.41a2.62,2.62,0,0,0-.37-.72,4.85,4.85,0,0,1-.11-.49,1.18,1.18,0,0,0-.18-.48,2.07,2.07,0,0,1-.44-.41,1.28,1.28,0,0,1-.23-.32l-.73-1-.37-.4c-.1,0-.22,0-.37-.08s-.27-.19-.36-.25a1.6,1.6,0,0,0-.37.49,5.1,5.1,0,0,0-1,1.33c-.27.51-.52,1-.77,1.58a2.17,2.17,0,0,1-.26.4,1.9,1.9,0,0,1-.4.4c-.1.11-.17.17-.22.17-.05.32-.09.65-.11,1a4.75,4.75,0,0,1-.19,1c0,.06-.11,0-.18,0a.37.37,0,0,1-.11-.2,2.8,2.8,0,0,1-.11-.93,4.11,4.11,0,0,0-.26-1.25.22.22,0,0,1-.15-.08.51.51,0,0,0-.14-.24.43.43,0,0,0-.22-.32l-.67-1.22-.88-1.53a2.46,2.46,0,0,0-.22-.61c-.1-.18-.2-.36-.3-.52l-.07-.08a2.56,2.56,0,0,1-.59-.81.21.21,0,0,0,0-.12.16.16,0,0,1,0-.12,5.12,5.12,0,0,1-.08-.93v-2a1.58,1.58,0,0,0-.22.33l-.22.24a10.73,10.73,0,0,1-1.47,1.61,9.44,9.44,0,0,0-.44,1.66,6.72,6.72,0,0,1-.52,1.65,3,3,0,0,1-.25.69,2.24,2.24,0,0,1-.48.61,1.15,1.15,0,0,1-.41.16c-.22.05-.35.05-.4,0a1.79,1.79,0,0,1-.07-.53v-.52a2.53,2.53,0,0,1-.19.44,1.58,1.58,0,0,1-.26.36.77.77,0,0,1-.22.29,2.51,2.51,0,0,0-.29.28q-.23,1.29-.33,2.46c-.08.78-.16,1.6-.26,2.46q-.08.33-.15.69a5.37,5.37,0,0,1-.22.77.89.89,0,0,1-.22.64c0,.06-.15,0-.29-.16s-.1-.23-.15-.36a3.28,3.28,0,0,0-.15-.36c0-.27-.15-.72-.29-1.34a8.2,8.2,0,0,0-.37-1.25c0-.21-.1-.44-.15-.68s-.1-.48-.14-.69a4,4,0,0,1-.12-.52,1.91,1.91,0,0,0-.18-.61l-.22-.24c-.15-.22-.29-.45-.44-.69l-.44-.69a1.65,1.65,0,0,0-.22-.44,3,3,0,0,1-.3-.52,2.57,2.57,0,0,0-.15-.29.54.54,0,0,0-.22-.2h-.59a15.11,15.11,0,0,1-8.2-2.5,12.18,12.18,0,0,1-4.75-6l-.15-.48c-.05-.16-.09-.32-.14-.49a.53.53,0,0,0,0-.16.29.29,0,0,1,0-.16c0-.27-.1-.52-.14-.76s-.1-.48-.15-.69a6.56,6.56,0,0,1-.08-1v-1a4.78,4.78,0,0,1,0-.57,3.13,3.13,0,0,0,0-.56l.07-.57a11.08,11.08,0,0,1,.66-2.34,11.53,11.53,0,0,1,3.17-4.44,9.28,9.28,0,0,1,.88-.72c.3-.22.62-.43,1-.65l1-.57a3,3,0,0,1,.36-.32,1.64,1.64,0,0,1,.45-.24.82.82,0,0,1,.36-.24l.45-.16a9.27,9.27,0,0,1,1.65-.65l1.73-.48q1-.33,2.1-.57l2.24-.48,1.77-.33c.69-.1,1.36-.22,2-.36s1.34-.25,2-.36a.59.59,0,0,0,.37-.08l1.62-.33v-1.29c0,.22,0,.16,0-.16s0-.51,0-.57,0,0,0-.2,0-.25,0-.2a.32.32,0,0,0,0-.16.47.47,0,0,1,0-.16,2.43,2.43,0,0,0-.58-1s-.08,0-.08,0,0,0-.15,0a1.35,1.35,0,0,0-.33.32,2,2,0,0,0-.25.4c-.15.28-.32.61-.52,1a1.84,1.84,0,0,1-.73.85c-.35.22-.67.08-1-.4a6.74,6.74,0,0,0-.74-1.05c-.1-.11-.17-.16-.22-.16l-.66.72-.44.33-.44.32a4.18,4.18,0,0,1-.92.36,8.25,8.25,0,0,0-.92.29c-.59.21-1.17.44-1.73.68a8.41,8.41,0,0,1-1.73.53,2.71,2.71,0,0,1-2.06-.53,3.09,3.09,0,0,0-2.07-.6c-.68,0-1.36,0-2-.08a9.29,9.29,0,0,1-2-.41,1.17,1.17,0,0,0-.37-.16.22.22,0,0,0-.15.08.09.09,0,0,1-.15,0,.76.76,0,0,1-.11-.16.36.36,0,0,0-.18-.16,2.25,2.25,0,0,0-.37-.49,1.68,1.68,0,0,1-.22-.4,2.28,2.28,0,0,1-.07-1,6.46,6.46,0,0,1,.22-1l.15-.48c0-.16.09-.35.14-.57a14.33,14.33,0,0,1,1.62-2.66,14,14,0,0,1,2-2.18,13.32,13.32,0,0,1,2.61-1.86,5.71,5.71,0,0,1,1.4-1,7.45,7.45,0,0,1,1.59-.64c.56-.16,1.14-.3,1.73-.41a26.21,26.21,0,0,1,3.68-.76,30.57,30.57,0,0,1,4.34-.29h2.28a1.91,1.91,0,0,1,.59.08l.51.08h.37a3,3,0,0,1,1.4.25,10,10,0,0,1,2.5.48,16.15,16.15,0,0,1,1.73.41,5.92,5.92,0,0,1,1.51.64,7.65,7.65,0,0,1,1.88,1,19.77,19.77,0,0,1,1.65,1.29.07.07,0,0,0,.08.08,2.79,2.79,0,0,1,.4.37l.33.36a14.88,14.88,0,0,1,4.2,9.28.37.37,0,0,1,.07.25,22.67,22.67,0,0,1,.19,3.39c0,1.13,0,2.26,0,3.39v16.71c0,.27,0,.57,0,.89S961.54,562.16,961.54,562.49ZM944,549v-1q0-.09-.15,0a.54.54,0,0,0-.19,0,.74.74,0,0,1-.18,0,5,5,0,0,1-.66.28,7.44,7.44,0,0,0-.74.28,5.8,5.8,0,0,1-1.51.44c-.51.09-1,.18-1.58.29a5.86,5.86,0,0,0-.81.24,4.36,4.36,0,0,0-.81.4,2.16,2.16,0,0,0-.44.49,2.51,2.51,0,0,0-.51,1.45,3.11,3.11,0,0,0,.51,1.45l.33.21.41.28.36.16a5.89,5.89,0,0,1,1,.12,3.24,3.24,0,0,0,.89,0c2.11-.32,3.38-1.64,3.83-4a3.27,3.27,0,0,0,.14-.88A.53.53,0,0,1,944,549Z" transform="translate(-749.73 -455.52)"/><path class="cls-3" d="M1010.05,566.2c0,.43-.09.85-.11,1.25a8.06,8.06,0,0,1-.19,1.25l-.22,1.3a16.86,16.86,0,0,1-.52,1.81,4.85,4.85,0,0,1-.73,1.42,6.73,6.73,0,0,1-.52,1c-.19.33-.39.65-.59,1a11.37,11.37,0,0,1-1.17,1.54l-.89,1a.75.75,0,0,1-.14.12.4.4,0,0,0-.15.12,2.2,2.2,0,0,1-.44.4,3.05,3.05,0,0,0-.22.77,5.56,5.56,0,0,1-.22.85c-.2.53-.4,1.07-.59,1.61s-.42,1.08-.66,1.62a2.46,2.46,0,0,1-.26.64,4.51,4.51,0,0,1-.48.65,6.39,6.39,0,0,1-.48.44,2,2,0,0,0,.19-.2.67.67,0,0,1-.3.08,1.64,1.64,0,0,0-.44.65c-.15.32-.34.45-.59.4s-.33-.13-.26-.24a2.42,2.42,0,0,0,.15-.24c0-.06-.23-.06-.77,0,.09-.11,0,0-.22.2l-.3.28-.22.24a2.84,2.84,0,0,0,0,1.38c.12.53,0,.86-.33,1s-.47-.21-.37-.8a3.1,3.1,0,0,0-.08-1.54.19.19,0,0,1-.14-.08s0-.08,0-.08,0,0,0-.08a2.62,2.62,0,0,1-.22-.4,6.65,6.65,0,0,1-.48-1c-.12-.35-.25-.72-.4-1.09a.86.86,0,0,0-.15-.41c-.1-.16-.14-.21-.14-.16s0-.08,0-.08,0,0,0-.08a2.13,2.13,0,0,1-.22.41.36.36,0,0,1-.26.2.58.58,0,0,0-.33.2c-.19.16-.38.32-.55.48a2.21,2.21,0,0,1-.63.41,1.36,1.36,0,0,1-.84-.12,3.53,3.53,0,0,1-.77-.53,8.36,8.36,0,0,0-.08,1.09,4.72,4.72,0,0,1-.14,1.09,1.37,1.37,0,0,1-.3.2.37.37,0,0,1-.37,0,.64.64,0,0,1-.33-.28,1.58,1.58,0,0,0-.26-.36c-.1-.16-.24-.45-.44-.85s-.42-.82-.66-1.25h-.29c-.4,0-.45,0-.15,0s.27,0-.08.2c-.34.32-.68.19-1-.4a25.29,25.29,0,0,1-11-2.39,22,22,0,0,1-6.62-5,1.28,1.28,0,0,1-.29-.24l-.37-.49-.08-.08c-.34-.54-.7-1.1-1.06-1.69a10.72,10.72,0,0,1-.92-1.86l-.45-1.13c-.09-.38-.18-.77-.25-1.17a2.7,2.7,0,0,1,0-1.17,1.65,1.65,0,0,1,1-1.21,1.8,1.8,0,0,1,.63-.21l.4,0a3.11,3.11,0,0,1,.82,0,7.77,7.77,0,0,0,.8,0h12.74a2.46,2.46,0,0,1,.4,0,2.11,2.11,0,0,1,.55.29,2.66,2.66,0,0,1,1,1.29,2.8,2.8,0,0,0,.29.6c.1.14.18.23.23.29a1.78,1.78,0,0,0,.81.72.23.23,0,0,1,.14.08,3.6,3.6,0,0,0,1.62.33H989a1.8,1.8,0,0,0,.58-.08,2.44,2.44,0,0,0,1.66-1.21,6,6,0,0,0,.7-2.31,21.37,21.37,0,0,0,.15-2.38v-4.12a2.31,2.31,0,0,1-.44.41.07.07,0,0,0-.08.08l-1,1.21c-.25.32-.51.66-.81,1s-.59.69-.88,1a8,8,0,0,1-1.62,1.61,4.23,4.23,0,0,1-2,1.05,5.37,5.37,0,0,1-2.06-.08,9.88,9.88,0,0,1-2-.64l-.66-.41-.4-.12a2.62,2.62,0,0,1-.41-.12c-.29-.11-.59-.2-.88-.28a3.51,3.51,0,0,1-.88-.37.22.22,0,0,0-.15-.08.19.19,0,0,1-.15-.08,1.8,1.8,0,0,1-.55-.24,1.92,1.92,0,0,0-.55-.24,1.22,1.22,0,0,0-.59-.16,2.39,2.39,0,0,1-.59-.08,6.7,6.7,0,0,1-2.13-1.7c-.25-.38-.33-.51-.23-.4s0,0-.22-.24-.24-.25-.29-.25a.72.72,0,0,0-.07.41q0,.32-.15.24c-.1-.05-.15-.19-.15-.4s-.1-.5-.15-.69a1.59,1.59,0,0,0-.36-.61.92.92,0,0,1-.22-.32,2.79,2.79,0,0,1-.81-1,4.1,4.1,0,0,1-.59-.73l-.52-.8a24.68,24.68,0,0,1-2.28-6.87,22.55,22.55,0,0,1-.44-3.35q-.15-2.05-.15-4.11a25.72,25.72,0,0,1,.15-3.19.33.33,0,0,1,.07-.24,26.12,26.12,0,0,1,1.95-8.28,15.09,15.09,0,0,1,4-5.45c.1-.11.17-.16.22-.16a3,3,0,0,1,.7-.57c.27-.16.58-.32.92-.48a.93.93,0,0,1,.33-.24l.41-.16.74-.33a4.15,4.15,0,0,1,.73-.24,9.28,9.28,0,0,1,2.32-.56c.86-.11,1.7-.19,2.54-.25h.59a11.84,11.84,0,0,1,2.5.25,6.17,6.17,0,0,1,2.94.8,2.07,2.07,0,0,1,.81.33,4.67,4.67,0,0,1,1.37.8l1.14,1.05a4.63,4.63,0,0,1,.81.69,2.6,2.6,0,0,0,.36.4l1,.85v-2.18a2.15,2.15,0,0,1,.37-1.21,2.68,2.68,0,0,1,.44-.57,1.93,1.93,0,0,1,.37-.24,2.28,2.28,0,0,1,.81-.16h9.93c.4,0,.92,0,1.59-.08a6,6,0,0,1,1.73.08.38.38,0,0,0,.29.08,2.2,2.2,0,0,1,1.1,1l.23.81a8.23,8.23,0,0,1,.11,1.65c0,.57-.07,1.09-.11,1.58V541.5a2.44,2.44,0,0,0,.07.56v18.41c0,.91.07,1.86.07,2.82S1010.14,565.23,1010.05,566.2Zm-19.8-17.12a2.43,2.43,0,0,0,1.17-1.13,5.43,5.43,0,0,0,.52-1.61c0-.16.08-.31.11-.44a3.14,3.14,0,0,0,0-.45c0-.43.07-1.17.07-2.22s0-1.76-.07-2.14a2.87,2.87,0,0,0,0-.44,2.15,2.15,0,0,1,0-.45,7.19,7.19,0,0,0-.44-1.41,2,2,0,0,0-.88-1,1.61,1.61,0,0,0-1-.16,7.8,7.8,0,0,1-1.06.08,5.35,5.35,0,0,1-.89-.08,2.6,2.6,0,0,0-.88,0,1.94,1.94,0,0,0-1.32.81l-.22.4a6.16,6.16,0,0,0-.26.93c-.08.35-.16.69-.26,1a2.59,2.59,0,0,1,0,.48,4,4,0,0,0,0,.49,2.54,2.54,0,0,1-.08.72v1.25a6.28,6.28,0,0,0,.08,1.1q.07.8.18,1.53a4,4,0,0,0,.41,1.29,1.45,1.45,0,0,0,.18.32,2.68,2.68,0,0,1,.18.33,2.58,2.58,0,0,0,1.25,1,3,3,0,0,0,.78.2,6.85,6.85,0,0,0,.77,0l.81-.08A7.48,7.48,0,0,0,990.25,549.08Z" transform="translate(-749.73 -455.52)"/><path class="cls-3" d="M1056.34,562.49a1.43,1.43,0,0,1-.07.48,2.62,2.62,0,0,1-.37,1.54,1.26,1.26,0,0,1-.3.36,4.94,4.94,0,0,1-.44.36,2,2,0,0,0-.73,1.46,1.64,1.64,0,0,0,.44,1,1.8,1.8,0,0,1,.44,1c0,.38-.2.86-.74,1.46a3.65,3.65,0,0,0-.11.52.71.71,0,0,1-.18.44c0,.06-.15-.08-.3-.4s-.1-.56-.14-.89l-.15-1a14.13,14.13,0,0,1,0-1.57,2.86,2.86,0,0,0-.33-1.09l-.29.32c-.15.16-.29.3-.41.41a2.71,2.71,0,0,0-.4.48l-.59,1-.59,1a1.94,1.94,0,0,0-.22.4.9.9,0,0,1-.3.41c-.24.1-.44,0-.58-.41a2.62,2.62,0,0,0-.37-.72,3.11,3.11,0,0,1-.11-.49,1.38,1.38,0,0,0-.19-.48,2.35,2.35,0,0,1-.44-.41,1.22,1.22,0,0,1-.22-.32l-.73-1-.37-.4c-.1,0-.22,0-.37-.08l-.37-.25a1.82,1.82,0,0,0-.37.49,5.3,5.3,0,0,0-1,1.33c-.27.51-.53,1-.77,1.58a2.87,2.87,0,0,1-.26.4,1.94,1.94,0,0,1-.41.4c-.09.11-.17.17-.22.17,0,.32-.08.65-.11,1a4.19,4.19,0,0,1-.18,1c0,.06-.11,0-.18,0a.31.31,0,0,1-.11-.2,3.2,3.2,0,0,1-.12-.93,4,4,0,0,0-.25-1.25.22.22,0,0,1-.15-.08s-.05-.13-.15-.24a.41.41,0,0,0-.22-.32l-.66-1.22-.88-1.53a2.48,2.48,0,0,0-.23-.61c-.09-.18-.19-.36-.29-.52l-.07-.08a2.42,2.42,0,0,1-.59-.81.16.16,0,0,0,0-.12.21.21,0,0,1,0-.12,6.3,6.3,0,0,1-.07-.93v-2a1.26,1.26,0,0,0-.22.33l-.22.24a10.73,10.73,0,0,1-1.47,1.61,8.64,8.64,0,0,0-.44,1.66,6.72,6.72,0,0,1-.52,1.65,2.68,2.68,0,0,1-.26.69,1.91,1.91,0,0,1-.48.61,1.07,1.07,0,0,1-.4.16c-.22.05-.36.05-.4,0a1.78,1.78,0,0,1-.08-.53v-.52a2.53,2.53,0,0,1-.18.44,2,2,0,0,1-.26.36.77.77,0,0,1-.22.29,2.56,2.56,0,0,0-.3.28q-.21,1.29-.33,2.46c-.07.78-.16,1.6-.25,2.46q-.08.33-.15.69a5.37,5.37,0,0,1-.22.77.94.94,0,0,1-.22.64c0,.06-.15,0-.3-.16a3,3,0,0,1-.14-.36,3.28,3.28,0,0,0-.15-.36c0-.27-.15-.72-.3-1.34a8.54,8.54,0,0,0-.36-1.25c0-.21-.1-.44-.15-.68s-.1-.48-.15-.69a4,4,0,0,1-.11-.52,2.2,2.2,0,0,0-.18-.61l-.22-.24q-.23-.33-.45-.69c-.14-.24-.29-.47-.44-.69a1.4,1.4,0,0,0-.22-.44,3,3,0,0,1-.29-.52,2.57,2.57,0,0,0-.15-.29.54.54,0,0,0-.22-.2h-.59a15.17,15.17,0,0,1-8.21-2.5,12.16,12.16,0,0,1-4.74-6l-.15-.48-.15-.49a.5.5,0,0,0,0-.16.29.29,0,0,1,0-.16c0-.27-.1-.52-.15-.76s-.1-.48-.15-.69a8.14,8.14,0,0,1-.07-1v-1a3.32,3.32,0,0,1,0-.57,4.61,4.61,0,0,0,0-.56l.08-.57a11.08,11.08,0,0,1,.66-2.34,11.42,11.42,0,0,1,3.17-4.44,8.17,8.17,0,0,1,.88-.72c.29-.22.61-.43,1-.65l1-.57a3.16,3.16,0,0,1,.37-.32,1.75,1.75,0,0,1,.44-.24.85.85,0,0,1,.37-.24l.44-.16a9.37,9.37,0,0,1,1.66-.65l1.73-.48c.68-.22,1.38-.41,2.09-.57l2.25-.48,1.77-.33c.68-.1,1.36-.22,2-.36s1.34-.25,2-.36a.57.57,0,0,0,.37-.08l1.62-.33v-1.29c0,.22,0,.16,0-.16s0-.51,0-.57,0,0,0-.2,0-.25,0-.2a.45.45,0,0,0,0-.16.32.32,0,0,1,0-.16,2.46,2.46,0,0,0-.59-1s-.07,0-.07,0,0,0-.15,0a1.07,1.07,0,0,0-.33.32,2.87,2.87,0,0,0-.26.4c-.15.28-.32.61-.51,1a1.8,1.8,0,0,1-.74.85c-.34.22-.66.08-1-.4a6.83,6.83,0,0,0-.73-1.05c-.1-.11-.17-.16-.22-.16l-.66.72-.45.33-.44.32a3.82,3.82,0,0,1-.92.36,9,9,0,0,0-.92.29c-.59.21-1.16.44-1.73.68a8.22,8.22,0,0,1-1.73.53,2.73,2.73,0,0,1-2.06-.53,3.06,3.06,0,0,0-2.06-.6c-.69,0-1.36,0-2-.08a9.38,9.38,0,0,1-2-.41,1.08,1.08,0,0,0-.37-.16.23.23,0,0,0-.14.08.09.09,0,0,1-.15,0,.51.51,0,0,1-.11-.16.48.48,0,0,0-.18-.16,2.65,2.65,0,0,0-.37-.49,1.38,1.38,0,0,1-.22-.4,2.28,2.28,0,0,1-.08-1,7.84,7.84,0,0,1,.22-1l.15-.48q.08-.24.15-.57a14.33,14.33,0,0,1,1.62-2.66,14,14,0,0,1,1.95-2.18,13.32,13.32,0,0,1,2.61-1.86,5.53,5.53,0,0,1,1.4-1,7.58,7.58,0,0,1,1.58-.64c.57-.16,1.14-.3,1.73-.41a26.82,26.82,0,0,1,3.68-.76,30.67,30.67,0,0,1,4.34-.29h2.29a1.8,1.8,0,0,1,.58.08l.52.08h.37a3.09,3.09,0,0,1,1.4.25,10.12,10.12,0,0,1,2.5.48,16.74,16.74,0,0,1,1.73.41,6.08,6.08,0,0,1,1.51.64,7.59,7.59,0,0,1,1.87,1,18.46,18.46,0,0,1,1.66,1.29c0,.05,0,.08.07.08a2.41,2.41,0,0,1,.41.37l.33.36a14.87,14.87,0,0,1,4.19,9.28.37.37,0,0,1,.08.25,21.41,21.41,0,0,1,.18,3.39q0,1.69,0,3.39v16.71c0,.27,0,.57,0,.89S1056.34,562.16,1056.34,562.49ZM1038.82,549v-1q0-.09-.15,0a.49.49,0,0,0-.18,0,.74.74,0,0,1-.18,0,4.66,4.66,0,0,1-.67.28,7.28,7.28,0,0,0-.73.28,5.8,5.8,0,0,1-1.51.44c-.52.09-1,.18-1.58.29a5.15,5.15,0,0,0-.81.24,3.82,3.82,0,0,0-.81.4,1.77,1.77,0,0,0-.44.49,2.46,2.46,0,0,0-.52,1.45,3,3,0,0,0,.52,1.45l.33.21c.12.08.26.17.4.28l.37.16a6.08,6.08,0,0,1,1,.12,3.17,3.17,0,0,0,.88,0,4.39,4.39,0,0,0,3.83-4,3,3,0,0,0,.15-.88A.54.54,0,0,1,1038.82,549Z" transform="translate(-749.73 -455.52)"/><path class="cls-3" d="M1079.6,563.94a.24.24,0,0,0-.08.16.21.21,0,0,1-.07.16v.08l-.29.33-.3.32a.22.22,0,0,1-.15.08.21.21,0,0,1-.14.08,1.9,1.9,0,0,0-.3.49.54.54,0,0,0-.11.24.32.32,0,0,1-.18.24l-.59.77c-.2.24-.39.49-.59.76v.09h-.07s0,.13-.15.24l-1,1.77a2.47,2.47,0,0,1-.88,1l-.29.16a5.87,5.87,0,0,0,.07,1.58,10.34,10.34,0,0,1,.15,1.61c0,.46-.18.64-.52.53a.78.78,0,0,1-.59-.85,6.79,6.79,0,0,1,.19-1.53,5,5,0,0,0,.11-1.5s-.15-.08-.3-.24a3.08,3.08,0,0,1-.37-.52c-.1-.19-.19-.4-.29-.61a1.48,1.48,0,0,1-.29-.4l-.67-.73a7.66,7.66,0,0,0,0,1.62c.07.69,0,.94-.26.72a1.05,1.05,0,0,1-.29-1.21,3,3,0,0,0,.07-1.45.58.58,0,0,0-.18-.24,1.94,1.94,0,0,1-.26-.25l-.52-.56a3.39,3.39,0,0,0-.44-.57,9.29,9.29,0,0,0-.14,1.7,10.57,10.57,0,0,1-.15,1.77c0,.06-.1,0-.15-.08a.83.83,0,0,0-.15-.24c-.14-.21-.28-.4-.4-.56a1.38,1.38,0,0,0-.48-.41,1.19,1.19,0,0,0-.74-.08.84.84,0,0,1-.73-.24,2.16,2.16,0,0,1-.48-.53l-.4-.6a.22.22,0,0,1-.15-.08c-.05-.06-.1,0-.15.08,0,.91-.09,1.86-.11,2.83s-.09,1.93-.18,2.9c0,.11,0,0-.11-.2s-.14-.42-.19-.53c-.1-.32-.19-.68-.29-1.09s-.2-.76-.3-1.08a14.47,14.47,0,0,1-.33-1.54,3.36,3.36,0,0,1,0-.64,1.82,1.82,0,0,0-.07-.69c-.07-.3-.26-.88-.55-1.74l-.44-.24a2,2,0,0,1-.7-1,3.39,3.39,0,0,1-.19-1.13,5.67,5.67,0,0,1,0-1.17q0-.6,0-1.17v-35a2.3,2.3,0,0,1,.08-.65,1.67,1.67,0,0,1,.29-.64l.44-.49a2.58,2.58,0,0,1,1-.4,4.75,4.75,0,0,1,1.51-.08c.51,0,1,.08,1.36.08h7.29c.58,0,1.18,0,1.8-.08a6.76,6.76,0,0,1,1.8.08.67.67,0,0,1,.3.08,1.69,1.69,0,0,0,.33.16.82.82,0,0,1,.25.16,1.86,1.86,0,0,1,.3.41,2.25,2.25,0,0,1,.44,1,2.6,2.6,0,0,1,0,.76,8.45,8.45,0,0,0,0,.85c0,1,.06,2,0,3s0,2,0,3V561.6a5.24,5.24,0,0,0,.07.73V563A4.52,4.52,0,0,1,1079.6,563.94Zm-7.22-42.31a3,3,0,0,1-1.8-.24,13.13,13.13,0,0,1-1.8-1,4.5,4.5,0,0,1-.48-.2,3.27,3.27,0,0,0-.55-.2l-1.22-.36c-.41-.14-.82-.29-1.21-.45l-.41-.12-.4-.12-.59-.24a.7.7,0,0,0-.18-.25l-.26-.16a2.09,2.09,0,0,1-.59-1.21v-8.23c0-.49,0-1,0-1.62a2.45,2.45,0,0,1,.41-1.53l.44-.49a3.39,3.39,0,0,1,.66-.32,4.49,4.49,0,0,1,1.22-.16,8,8,0,0,1,1.14.08H1075c.45,0,.9-.09,1.37-.12a4.43,4.43,0,0,1,1.36.12s.07,0,.07,0,0,0,.07,0a1.36,1.36,0,0,1,.37.16,1.25,1.25,0,0,1,.59.57,1.8,1.8,0,0,1,.41.89c0,.27,0,.48,0,.64a2.77,2.77,0,0,1,.08.61v.6c0,1.13,0,2.29,0,3.47s0,2.35,0,3.48v1.45a2.34,2.34,0,0,1-.07.65,1.69,1.69,0,0,1-.44.8l-.3.33a.43.43,0,0,1-.29.16.45.45,0,0,0-.11.24.36.36,0,0,1-.19.24,2,2,0,0,0-.44-.08,1.24,1.24,0,0,0-.37.08l-.36.16a1,1,0,0,1-.37.12,1.15,1.15,0,0,0-.37.13.26.26,0,0,0-.22.08,5.26,5.26,0,0,0-1,.64,11.29,11.29,0,0,1-1.1.77A4.2,4.2,0,0,1,1072.38,521.63Z" transform="translate(-749.73 -455.52)"/><path class="cls-3" d="M1133.32,558.37c0,.75,0,1.53.08,2.34a12,12,0,0,1-.08,2.34,3.57,3.57,0,0,1-.07.89,2.2,2.2,0,0,1-.74,1,.19.19,0,0,1-.14.08.22.22,0,0,1-.15.08,2.89,2.89,0,0,0-.29.57c-.15.32-.27.48-.37.48a4.54,4.54,0,0,1-.81,1,.79.79,0,0,1-.15.12l-.15.12a24.05,24.05,0,0,0-.4,3,16.5,16.5,0,0,1-.48,2.95,3.66,3.66,0,0,1-.29.88c-.15.17-.25.22-.3.17s-.15-.14-.29-.41-.14-.52-.26-.93-.21-.71-.26-.92c-.1-.38-.19-.75-.29-1.09a10.8,10.8,0,0,0-.37-1.09,1.43,1.43,0,0,1-.11-.41.44.44,0,0,0-.18-.32,1.93,1.93,0,0,1-.37-.24.62.62,0,0,0-.19-.25.93.93,0,0,1-.18-.16c-.25-.37-.32-.54-.22-.48l-.52-.57c0,.06-.14.08-.29.08a.38.38,0,0,0-.3.09c0,1.18-.08,2.73-.11,4.64s-.08,3.48-.18,4.72c0,.11-.17,0-.52-.16a3.68,3.68,0,0,1-.51-.77c-.15-.29-.27-.55-.37-.76a2.34,2.34,0,0,0-.18-.45.68.68,0,0,1-.11-.36c-.1-1.24-.15-2.51-.15-3.8s0-2.53-.15-3.71c-.1-.11-.17-.16-.22-.16a1.72,1.72,0,0,0-.07.52,1,1,0,0,1-.15.53c0,.16-.17.13-.37-.08a5.83,5.83,0,0,1-.7-.37,7.49,7.49,0,0,0-.69-.36,3.52,3.52,0,0,0-.7-.28,1.31,1.31,0,0,1-.63-.37,1.37,1.37,0,0,1-.92.81,1.15,1.15,0,0,1-1.14-.32,3,3,0,0,1-.7-1,10.74,10.74,0,0,0-.7-1.29,2.8,2.8,0,0,1-.29-.37,1.19,1.19,0,0,1-.22-.52,5.08,5.08,0,0,1-.08-1.05V541.5a4.14,4.14,0,0,0-.07-.89,4.5,4.5,0,0,0-.89-2.34,1,1,0,0,0-.18-.29,1.06,1.06,0,0,0-.26-.2.29.29,0,0,0-.22-.08,1.24,1.24,0,0,0-.18.53,1.42,1.42,0,0,1-.19.52c-.24.27-.39.32-.44.16a1.3,1.3,0,0,1-.14-.4,4.87,4.87,0,0,0-.52.72,2,2,0,0,1-.29.65,2.77,2.77,0,0,0-.15.48c0,.22-.1.28-.15.17a4.24,4.24,0,0,1-.18-1c0-.33-.06-.67-.11-1,0,.11,0,.16-.08.16s0,.16-.07.16a4.8,4.8,0,0,1-.26.65,1.08,1.08,0,0,1-.48.56,4.44,4.44,0,0,0,.08,1.74c.15.72,0,1-.37.93s-.58-.5-.4-1.17a4.44,4.44,0,0,0,.11-1.82.66.66,0,0,1-.08-.4v-.93a.35.35,0,0,0-.22-.37l-.44-.08a4.23,4.23,0,0,0-1.1,2.51,4.6,4.6,0,0,0-.08.84v20.23c0,.38,0,.78,0,1.21a4,4,0,0,1-.11,1.21,2.05,2.05,0,0,1-.22.48,2.42,2.42,0,0,1-.3.41s-.07,0-.07,0,0,0-.07,0l-.15.16a2.77,2.77,0,0,0-.11.48,1.35,1.35,0,0,1-.19.49.13.13,0,0,1-.07.12s-.1,0-.15,0a.62.62,0,0,1-.11-.28.57.57,0,0,0-.11-.29,1.29,1.29,0,0,1-.29.25.72.72,0,0,0,0,.4.73.73,0,0,1,0,.4,1.79,1.79,0,0,1-.3.65c-.05,0-.15,0-.29-.08-.1-.27-.1-.36,0-.28s0,0-.3-.37a.21.21,0,0,1-.07-.16,1.62,1.62,0,0,0-.37.37,1.81,1.81,0,0,1-.37.36,1.15,1.15,0,0,0-.15.2c0,.08-.19.17-.44.28h-.07a1.9,1.9,0,0,1-.66.08,1.26,1.26,0,0,1-.55-.12,3.38,3.38,0,0,0-.56-.2c-.24-.16-.5-.35-.77-.56l-.63-.49c-.34-.21-.49-.32-.44-.32l-.14-.08a.26.26,0,0,1-.3,0,.48.48,0,0,0-.29-.12,2.22,2.22,0,0,0-.19.24,3.49,3.49,0,0,1-.25.32l-.15.16a.66.66,0,0,1-.22.16s-.08,0-.08.09-.07,0-.07.08a.19.19,0,0,0-.15.08,1.22,1.22,0,0,0-.14.52q-.07.45-.45.45a.85.85,0,0,1-.33-.21.91.91,0,0,0-.33-.2c-.1-.11-.17-.16-.22-.16a2.67,2.67,0,0,1-.55-.4,2.54,2.54,0,0,1-.41-.49c0-.05,0-.08,0-.08s0,0,0-.08a2.88,2.88,0,0,0-.07.65,1.5,1.5,0,0,1-.15.64c0,.06,0,.07-.07,0s-.1,0-.15,0c-.2,0-.3,0-.3.08,0-.21-.08-.43-.11-.64a4.9,4.9,0,0,0-.11-.65,2.48,2.48,0,0,1-.36.49l-.15.12a.53.53,0,0,0-.15.12c0,.37-.08.74-.11,1.09a7,7,0,0,1-.18,1.17,1.64,1.64,0,0,0-.11.53c0,.24-.09.33-.19.28a.51.51,0,0,1-.26-.53,1.44,1.44,0,0,0,0-.6,10.3,10.3,0,0,1-.08-1.17,4.13,4.13,0,0,0-.14-1.09c-.1-.11-.21-.25-.33-.41a4.71,4.71,0,0,1-.34-.48,1.58,1.58,0,0,1-.22-.33,1.13,1.13,0,0,0-.44-.16.14.14,0,0,1-.11,0,.29.29,0,0,0-.18,0,2.12,2.12,0,0,1-1-.8,1.73,1.73,0,0,1-.29-.65,4.06,4.06,0,0,1-.11-1.29q0-.74,0-1.29v-35a.88.88,0,0,1,0-.45,2.94,2.94,0,0,0,0-.44,2.15,2.15,0,0,1,.67-1.45,1.92,1.92,0,0,1,1.39-.57,6.18,6.18,0,0,1,1.22,0c.42,0,.8,0,1.14,0h7.8c.25,0,.64,0,1.18,0a8.71,8.71,0,0,1,1.47,0,2.27,2.27,0,0,1,1,.32,2,2,0,0,1,.88,1.21,3,3,0,0,1,.12,1c0,.38,0,.73,0,1l.15,1,.44-.48a10.45,10.45,0,0,1,.95-.93c.35-.3.69-.58,1-.85l.67-.48h.07a6.79,6.79,0,0,1,1.47-.89,3,3,0,0,1,1.55-.73.81.81,0,0,1,.37-.08,15.62,15.62,0,0,1,5.52-1,13.65,13.65,0,0,1,6.4,1.58,13.32,13.32,0,0,1,5.11,4.92,19.79,19.79,0,0,1,2.62,8.6,2.72,2.72,0,0,1,.07.61v.6a8.68,8.68,0,0,1,.07,1.13v18.33Z" transform="translate(-749.73 -455.52)"/></g></svg>