<?xml version="1.0" encoding="utf-8"?>
<!-- Generator: Adobe Illustrator 26.0.3, SVG Export Plug-In . SVG Version: 6.00 Build 0)  -->
<svg version="1.0" id="Layer_1" xmlns="http://www.w3.org/2000/svg" xmlns:xlink="http://www.w3.org/1999/xlink" x="0px" y="0px"
	 viewBox="0 0 1920 1080" style="enable-background:new 0 0 1920 1080;" xml:space="preserve">
<style type="text/css">
	.st0{fill:none;stroke:#000000;stroke-width:5;stroke-miterlimit:10;}
	.st1{fill:#FF0000;stroke:#FF0000;stroke-miterlimit:10;}
	.st2{fill:#E6E6E6;stroke:#FF0000;stroke-miterlimit:10;}
	.st3{fill:#C1272D;stroke:#FF0000;stroke-miterlimit:10;}
	.st4{fill:#E0B299;stroke:#FF0000;stroke-miterlimit:10;}
	.st5{fill:#1A4ADC;}
	.st6{fill:#EB0005;}
	.st7{font-family:'RubikWetPaint-Regular';}
	.st8{font-size:72px;}
	.st9{fill:#808080;}
	.st10{fill:#666666;}
</style>
<ellipse class="st0" cx="647" cy="230.8" rx="8.5" ry="10"/>
<ellipse class="st0" cx="668.5" cy="226.8" rx="9" ry="11"/>
<g>
	<path class="st1" d="M352.9,432.8c-13-3-19.6,10.2-21.5,17.4c-6.8-7.3-5.5-13.6-20.7-14c-22.3-0.5-17,16.7-10.6,27.3
		c6.4,10.5,20.1,15.3,31.1,22.5c0.4-0.2,0.7,0.3,0.9,0.2c8.8-3.7,22.5-14.4,27.8-22.7S372.5,437.3,352.9,432.8z"/>
</g>
<g>
	<path class="st1" d="M447.6,432.8c-13-3-19.6,10.2-21.5,17.4c-6.8-7.3-5.5-13.6-20.7-14c-22.3-0.5-17,16.7-10.6,27.3
		C401.3,474,415,478.8,426,486c0.4-0.2,0.7,0.3,0.9,0.2c8.8-3.7,22.5-14.4,27.8-22.7S467.2,437.3,447.6,432.8z"/>
</g>
<g>
	<path class="st1" d="M534.1,432.8c-13-3-19.6,10.2-21.5,17.4c-6.8-7.3-5.5-13.6-20.7-14c-22.3-0.5-17,16.7-10.6,27.3
		c6.4,10.5,20.1,15.3,31.1,22.5c0.4-0.2,0.7,0.3,0.9,0.2c8.8-3.7,22.5-14.4,27.8-22.7C546.6,455.2,553.7,437.3,534.1,432.8z"/>
</g>
<g>
	<path class="st2" d="M431.6,682.4c-7.1,31.1,61.9,56.9-10.1,55.9c-72-1.1,1.8-24-8.3-57.9c-10.2-33.9-51.1-57,11.8-57.1
		C487.8,623.2,438.6,651.4,431.6,682.4z"/>
</g>
<rect x="390" y="618.8" transform="matrix(-1 -4.484114e-11 4.484114e-11 -1 846.0259 1251.6674)" class="st3" width="66" height="14"/>
<rect x="389" y="730.8" transform="matrix(-1 -4.494328e-11 4.494328e-11 -1 843.0259 1475.6674)" class="st3" width="65" height="14"/>
<g>
	<path class="st4" d="M392.8,723.3c-10.9,12.8,17.2,8.2,31.4,8.3s35.5,5,29.2-5.5c-6.3-10.5-18.4-25.4-30.9-22.9
		C410.1,705.6,403.7,710.5,392.8,723.3z"/>
</g>
<path class="st5" d="M379.7,304.9l-87.3,2c-37.2,0.9-68.2-28.9-69.2-66.5l0,0c-1-37.6,28.5-68.8,65.7-69.6l87.3-2
	c37.2-0.9,68.2,28.9,69.2,66.5v0C446.3,272.9,416.9,304,379.7,304.9z"/>
<text transform="matrix(0.9997 -2.418000e-02 2.418000e-02 0.9997 257.1105 256.2159)" class="st6 st7 st8">Play</text>
<g>
	<path d="M641.6,233.6c-30.7,51.5-67.1,38.2-95,4.2c4.8-4.9,7.8-6.6,11.9-8.6c9.2,22.2,61,32.9,68.2-2.3
		C637.4,227.9,632.5,228.7,641.6,233.6z"/>
</g>
<ellipse cx="724.1" cy="232.9" rx="46.5" ry="42"/>
<ellipse class="st9" cx="724.5" cy="231.7" rx="24.5" ry="22.2"/>
<ellipse class="st10" cx="724.5" cy="232.5" rx="6.5" ry="5.8"/>
<rect x="719.8" y="202.5" class="st10" width="10.3" height="8.6"/>
<polygon class="st10" points="743.5,219.2 735.8,213 742.1,206.6 749.8,212.8 "/>
<rect x="748.3" y="225.8" transform="matrix(6.123234e-17 -1 1 6.123234e-17 522.3875 983.4807)" class="st10" width="9.3" height="9.5"/>
<polygon class="st10" points="738.7,249 745.2,241.7 752.6,247.1 746.1,254.4 "/>
<polygon class="st10" points="713.8,213.6 705.7,219.3 699.9,212.5 708.1,206.8 "/>
<rect x="692.3" y="226.6" transform="matrix(6.123234e-17 -1 1 6.123234e-17 465.6375 928.2863)" class="st10" width="9.3" height="9.5"/>
<rect x="719.8" y="252.3" class="st10" width="10.3" height="8.6"/>
<polygon class="st10" points="705.4,255.9 698.1,249.3 704.8,243.3 712.1,249.9 "/>
</svg>
